{
copyright = "Copyright (c) 2014 by Steven Ng with Reserved Font Name \"Aitu\". Licensed under the SIL Open Font License, Version 1.1. ";
customParameters = (
{
name = vendorID;
value = tyPL;
}
);
date = "2014-08-18 18:16:13 +0000";
designer = "Lukasz Dziedzic";
designerURL = "http://www.assignittous.com";
familyName = "Aitu";
featurePrefixes = (
{
automatic = 1;
code = "languagesystem DFLT dflt;\012languagesystem latn dflt;\012languagesystem math dflt;\012";
name = Languagesystems;
}
);
features = (
{
automatic = 1;
code = "feature frac;\012";
name = aalt;
},
{
automatic = 1;
code = "sub one slash four by onequarter;\012sub one slash two by onehalf;\012sub three slash four by threequarters;\012";
name = frac;
},
{
automatic = 1;
code = "sub f f i by f_f_i;\012sub f f l by f_f_l;\012sub f i by fi;\012sub f l by fl;\012";
name = liga;
}
);
fontMaster = (
{
alignmentZones = (
"{1445, 62}",
"{1025, 17}",
"{0, -17}",
"{-335, -10}"
);
ascender = 1610;
capHeight = 1446;
customParameters = (
{
name = typoAscender;
value = 1610;
},
{
name = typoDescender;
value = "-390";
},
{
name = typoLineGap;
value = 400;
},
{
name = underlinePosition;
value = "-6";
}
);
descender = "-390";
id = "EDEFDD19-C737-4BEE-813D-BCFC1948A1E8";
italicAngle = 7;
weight = Bold;
weightValue = 700;
widthValue = 5;
xHeight = 1026;
}
);
glyphs = (
{
glyphname = A;
layers = (
{
layerId = "EDEFDD19-C737-4BEE-813D-BCFC1948A1E8";
name = "Bold Italic";
paths = (
{
closed = 1;
nodes = (
"1229 0 LINE",
"884 1446 LINE",
"619 1446 LINE",
"-80 0 LINE",
"124 0 LINE SMOOTH",
"145.333 0 OFFCURVE",
"164.167 6 OFFCURVE",
"180.5 18 CURVE SMOOTH",
"196.833 30 OFFCURVE",
"208.667 43.6667 OFFCURVE",
"216 59 CURVE SMOOTH",
"350 361 LINE",
"889 361 LINE",
"949 59 LINE",
"954.333 41.6667 OFFCURVE",
"963.167 27.5 OFFCURVE",
"975.5 16.5 CURVE SMOOTH",
"987.833 5.5 OFFCURVE",
"1005.33 0 OFFCURVE",
"1028 0 CURVE SMOOTH"
);
},
{
closed = 1;
nodes = (
"431 544 LINE",
"651 1038 LINE SMOOTH",
"660.333 1060.67 OFFCURVE",
"671.5 1087.17 OFFCURVE",
"684.5 1117.5 CURVE SMOOTH",
"697.5 1147.83 OFFCURVE",
"710.667 1180.67 OFFCURVE",
"724 1216 CURVE",
"729.333 1180.67 OFFCURVE",
"734.5 1148 OFFCURVE",
"739.5 1118 CURVE SMOOTH",
"744.5 1088 OFFCURVE",
"749.333 1061.67 OFFCURVE",
"754 1039 CURVE SMOOTH",
"852 544 LINE"
);
}
);
width = 1300;
}
);
leftKerningGroup = A;
rightKerningGroup = A;
unicode = 0041;
},
{
glyphname = Aacute;
layers = (
{
layerId = "EDEFDD19-C737-4BEE-813D-BCFC1948A1E8";
name = "Bold Italic";
paths = (
{
closed = 1;
nodes = (
"0 0 LINE"
);
},
{
closed = 1;
nodes = (
"1229 0 LINE",
"884 1446 LINE",
"619 1446 LINE",
"-80 0 LINE",
"124 0 LINE SMOOTH",
"145.333 0 OFFCURVE",
"164.167 6 OFFCURVE",
"180.5 18 CURVE SMOOTH",
"196.833 30 OFFCURVE",
"208.667 43.6667 OFFCURVE",
"216 59 CURVE SMOOTH",
"350 361 LINE",
"889 361 LINE",
"949 59 LINE",
"954.333 41.6667 OFFCURVE",
"963.167 27.5 OFFCURVE",
"975.5 16.5 CURVE SMOOTH",
"987.833 5.5 OFFCURVE",
"1005.33 0 OFFCURVE",
"1028 0 CURVE SMOOTH"
);
},
{
closed = 1;
nodes = (
"431 544 LINE",
"651 1038 LINE SMOOTH",
"660.333 1060.67 OFFCURVE",
"671.5 1087.17 OFFCURVE",
"684.5 1117.5 CURVE SMOOTH",
"697.5 1147.83 OFFCURVE",
"710.667 1180.67 OFFCURVE",
"724 1216 CURVE",
"729.333 1180.67 OFFCURVE",
"734.5 1148 OFFCURVE",
"739.5 1118 CURVE SMOOTH",
"744.5 1088 OFFCURVE",
"749.333 1061.67 OFFCURVE",
"754 1039 CURVE SMOOTH",
"852 544 LINE"
);
},
{
closed = 1;
nodes = (
"1195 1861 LINE",
"943 1861 LINE SMOOTH",
"931 1861 OFFCURVE",
"920.5 1860.67 OFFCURVE",
"911.5 1860 CURVE SMOOTH",
"902.5 1859.33 OFFCURVE",
"894.167 1857.67 OFFCURVE",
"886.5 1855 CURVE SMOOTH",
"878.833 1852.33 OFFCURVE",
"871.667 1848.17 OFFCURVE",
"865 1842.5 CURVE SMOOTH",
"858.333 1836.83 OFFCURVE",
"851.333 1829.33 OFFCURVE",
"844 1820 CURVE SMOOTH",
"621 1549 LINE",
"785 1549 LINE SMOOTH",
"802.333 1549 OFFCURVE",
"816.5 1550.33 OFFCURVE",
"827.5 1553 CURVE SMOOTH",
"838.5 1555.67 OFFCURVE",
"851 1563 OFFCURVE",
"865 1575 CURVE SMOOTH"
);
}
);
width = 1300;
}
);
leftKerningGroup = A;
rightKerningGroup = A;
unicode = 00C1;
},
{
glyphname = Acircumflex;
layers = (
{
layerId = "EDEFDD19-C737-4BEE-813D-BCFC1948A1E8";
name = "Bold Italic";
paths = (
{
closed = 1;
nodes = (
"0 0 LINE"
);
},
{
closed = 1;
nodes = (
"1229 0 LINE",
"884 1446 LINE",
"619 1446 LINE",
"-80 0 LINE",
"124 0 LINE SMOOTH",
"145.333 0 OFFCURVE",
"164.167 6 OFFCURVE",
"180.5 18 CURVE SMOOTH",
"196.833 30 OFFCURVE",
"208.667 43.6667 OFFCURVE",
"216 59 CURVE SMOOTH",
"350 361 LINE",
"889 361 LINE",
"949 59 LINE",
"954.333 41.6667 OFFCURVE",
"963.167 27.5 OFFCURVE",
"975.5 16.5 CURVE SMOOTH",
"987.833 5.5 OFFCURVE",
"1005.33 0 OFFCURVE",
"1028 0 CURVE SMOOTH"
);
},
{
closed = 1;
nodes = (
"431 544 LINE",
"651 1038 LINE SMOOTH",
"660.333 1060.67 OFFCURVE",
"671.5 1087.17 OFFCURVE",
"684.5 1117.5 CURVE SMOOTH",
"697.5 1147.83 OFFCURVE",
"710.667 1180.67 OFFCURVE",
"724 1216 CURVE",
"729.333 1180.67 OFFCURVE",
"734.5 1148 OFFCURVE",
"739.5 1118 CURVE SMOOTH",
"744.5 1088 OFFCURVE",
"749.333 1061.67 OFFCURVE",
"754 1039 CURVE SMOOTH",
"852 544 LINE"
);
},
{
closed = 1;
nodes = (
"1099 1549 LINE",
"908 1824 LINE",
"702 1824 LINE",
"449 1549 LINE",
"607 1549 LINE SMOOTH",
"616.333 1549 OFFCURVE",
"627.667 1550.83 OFFCURVE",
"641 1554.5 CURVE SMOOTH",
"654.333 1558.17 OFFCURVE",
"669.333 1569 OFFCURVE",
"686 1587 CURVE",
"773 1693 LINE",
"789 1715 LINE",
"791 1711.67 OFFCURVE",
"792.833 1708.17 OFFCURVE",
"794.5 1704.5 CURVE SMOOTH",
"796.167 1700.83 OFFCURVE",
"798.333 1697 OFFCURVE",
"801 1693 CURVE",
"864 1587 LINE SMOOTH",
"875.333 1569 OFFCURVE",
"887.5 1558.17 OFFCURVE",
"900.5 1554.5 CURVE SMOOTH",
"913.5 1550.83 OFFCURVE",
"924.667 1549 OFFCURVE",
"934 1549 CURVE SMOOTH"
);
}
);
width = 1300;
}
);
leftKerningGroup = A;
rightKerningGroup = A;
unicode = 00C2;
},
{
glyphname = Adieresis;
layers = (
{
layerId = "EDEFDD19-C737-4BEE-813D-BCFC1948A1E8";
name = "Bold Italic";
paths = (
{
closed = 1;
nodes = (
"0 0 LINE"
);
},
{
closed = 1;
nodes = (
"1229 0 LINE",
"884 1446 LINE",
"619 1446 LINE",
"-80 0 LINE",
"124 0 LINE SMOOTH",
"145.333 0 OFFCURVE",
"164.167 6 OFFCURVE",
"180.5 18 CURVE SMOOTH",
"196.833 30 OFFCURVE",
"208.667 43.6667 OFFCURVE",
"216 59 CURVE SMOOTH",
"350 361 LINE",
"889 361 LINE",
"949 59 LINE",
"954.333 41.6667 OFFCURVE",
"963.167 27.5 OFFCURVE",
"975.5 16.5 CURVE SMOOTH",
"987.833 5.5 OFFCURVE",
"1005.33 0 OFFCURVE",
"1028 0 CURVE SMOOTH"
);
},
{
closed = 1;
nodes = (
"431 544 LINE",
"651 1038 LINE SMOOTH",
"660.333 1060.67 OFFCURVE",
"671.5 1087.17 OFFCURVE",
"684.5 1117.5 CURVE SMOOTH",
"697.5 1147.83 OFFCURVE",
"710.667 1180.67 OFFCURVE",
"724 1216 CURVE",
"729.333 1180.67 OFFCURVE",
"734.5 1148 OFFCURVE",
"739.5 1118 CURVE SMOOTH",
"744.5 1088 OFFCURVE",
"749.333 1061.67 OFFCURVE",
"754 1039 CURVE SMOOTH",
"852 544 LINE"
);
},
{
closed = 1;
nodes = (
"708 1683.67 OFFCURVE",
"704.333 1701.5 OFFCURVE",
"697 1718.5 CURVE SMOOTH",
"689.667 1735.5 OFFCURVE",
"679.5 1750.33 OFFCURVE",
"666.5 1763 CURVE SMOOTH",
"653.5 1775.67 OFFCURVE",
"638.5 1785.67 OFFCURVE",
"621.5 1793 CURVE SMOOTH",
"604.5 1800.33 OFFCURVE",
"586.667 1804 OFFCURVE",
"568 1804 CURVE SMOOTH",
"550 1804 OFFCURVE",
"532.833 1800.33 OFFCURVE",
"516.5 1793 CURVE SMOOTH",
"500.167 1785.67 OFFCURVE",
"485.667 1775.67 OFFCURVE",
"473 1763 CURVE SMOOTH",
"460.333 1750.33 OFFCURVE",
"450.333 1735.5 OFFCURVE",
"443 1718.5 CURVE SMOOTH",
"435.667 1701.5 OFFCURVE",
"432 1683.67 OFFCURVE",
"432 1665 CURVE SMOOTH",
"432 1646.33 OFFCURVE",
"435.667 1628.83 OFFCURVE",
"443 1612.5 CURVE SMOOTH",
"450.333 1596.17 OFFCURVE",
"460.333 1581.83 OFFCURVE",
"473 1569.5 CURVE SMOOTH",
"485.667 1557.17 OFFCURVE",
"500.167 1547.5 OFFCURVE",
"516.5 1540.5 CURVE SMOOTH",
"532.833 1533.5 OFFCURVE",
"550 1530 OFFCURVE",
"568 1530 CURVE SMOOTH",
"586.667 1530 OFFCURVE",
"604.5 1533.5 OFFCURVE",
"621.5 1540.5 CURVE SMOOTH",
"638.5 1547.5 OFFCURVE",
"653.5 1557.17 OFFCURVE",
"666.5 1569.5 CURVE SMOOTH",
"679.5 1581.83 OFFCURVE",
"689.667 1596.17 OFFCURVE",
"697 1612.5 CURVE SMOOTH",
"704.333 1628.83 OFFCURVE",
"708 1646.33 OFFCURVE",
"708 1665 CURVE SMOOTH"
);
},
{
closed = 1;
nodes = (
"1107 1683.67 OFFCURVE",
"1103.33 1701.5 OFFCURVE",
"1096 1718.5 CURVE SMOOTH",
"1088.67 1735.5 OFFCURVE",
"1078.83 1750.33 OFFCURVE",
"1066.5 1763 CURVE SMOOTH",
"1054.17 1775.67 OFFCURVE",
"1039.5 1785.67 OFFCURVE",
"1022.5 1793 CURVE SMOOTH",
"1005.5 1800.33 OFFCURVE",
"987.333 1804 OFFCURVE",
"968 1804 CURVE SMOOTH",
"949.333 1804 OFFCURVE",
"931.666 1800.33 OFFCURVE",
"915 1793 CURVE SMOOTH",
"898.333 1785.67 OFFCURVE",
"883.833 1775.67 OFFCURVE",
"871.5 1763 CURVE SMOOTH",
"859.166 1750.33 OFFCURVE",
"849.333 1735.5 OFFCURVE",
"842 1718.5 CURVE SMOOTH",
"834.666 1701.5 OFFCURVE",
"831 1683.67 OFFCURVE",
"831 1665 CURVE SMOOTH",
"831 1646.33 OFFCURVE",
"834.666 1628.83 OFFCURVE",
"842 1612.5 CURVE SMOOTH",
"849.333 1596.17 OFFCURVE",
"859.166 1581.83 OFFCURVE",
"871.5 1569.5 CURVE SMOOTH",
"883.833 1557.17 OFFCURVE",
"898.333 1547.5 OFFCURVE",
"915 1540.5 CURVE SMOOTH",
"931.666 1533.5 OFFCURVE",
"949.333 1530 OFFCURVE",
"968 1530 CURVE SMOOTH",
"987.333 1530 OFFCURVE",
"1005.5 1533.5 OFFCURVE",
"1022.5 1540.5 CURVE SMOOTH",
"1039.5 1547.5 OFFCURVE",
"1054.17 1557.17 OFFCURVE",
"1066.5 1569.5 CURVE SMOOTH",
"1078.83 1581.83 OFFCURVE",
"1088.67 1596.17 OFFCURVE",
"1096 1612.5 CURVE SMOOTH",
"1103.33 1628.83 OFFCURVE",
"1107 1646.33 OFFCURVE",
"1107 1665 CURVE SMOOTH"
);
}
);
width = 1300;
}
);
leftKerningGroup = A;
rightKerningGroup = A;
unicode = 00C4;
},
{
glyphname = Agrave;
layers = (
{
layerId = "EDEFDD19-C737-4BEE-813D-BCFC1948A1E8";
name = "Bold Italic";
paths = (
{
closed = 1;
nodes = (
"0 0 LINE"
);
},
{
closed = 1;
nodes = (
"1229 0 LINE",
"884 1446 LINE",
"619 1446 LINE",
"-80 0 LINE",
"124 0 LINE SMOOTH",
"145.333 0 OFFCURVE",
"164.167 6 OFFCURVE",
"180.5 18 CURVE SMOOTH",
"196.833 30 OFFCURVE",
"208.667 43.6667 OFFCURVE",
"216 59 CURVE SMOOTH",
"350 361 LINE",
"889 361 LINE",
"949 59 LINE",
"954.333 41.6667 OFFCURVE",
"963.167 27.5 OFFCURVE",
"975.5 16.5 CURVE SMOOTH",
"987.833 5.5 OFFCURVE",
"1005.33 0 OFFCURVE",
"1028 0 CURVE SMOOTH"
);
},
{
closed = 1;
nodes = (
"431 544 LINE",
"651 1038 LINE SMOOTH",
"660.333 1060.67 OFFCURVE",
"671.5 1087.17 OFFCURVE",
"684.5 1117.5 CURVE SMOOTH",
"697.5 1147.83 OFFCURVE",
"710.667 1180.67 OFFCURVE",
"724 1216 CURVE",
"729.333 1180.67 OFFCURVE",
"734.5 1148 OFFCURVE",
"739.5 1118 CURVE SMOOTH",
"744.5 1088 OFFCURVE",
"749.333 1061.67 OFFCURVE",
"754 1039 CURVE SMOOTH",
"852 544 LINE"
);
},
{
closed = 1;
nodes = (
"383 1861 LINE",
"644 1573 LINE SMOOTH",
"654.667 1561.67 OFFCURVE",
"664.833 1554.83 OFFCURVE",
"674.5 1552.5 CURVE SMOOTH",
"684.167 1550.17 OFFCURVE",
"698 1549 OFFCURVE",
"716 1549 CURVE SMOOTH",
"880 1549 LINE",
"711 1820 LINE SMOOTH",
"705 1829.33 OFFCURVE",
"699.333 1836.67 OFFCURVE",
"694 1842 CURVE SMOOTH",
"688.667 1847.33 OFFCURVE",
"682.667 1851.5 OFFCURVE",
"676 1854.5 CURVE SMOOTH",
"669.333 1857.5 OFFCURVE",
"661.5 1859.33 OFFCURVE",
"652.5 1860 CURVE SMOOTH",
"643.5 1860.67 OFFCURVE",
"633 1861 OFFCURVE",
"621 1861 CURVE SMOOTH"
);
}
);
width = 1300;
}
);
leftKerningGroup = A;
rightKerningGroup = A;
unicode = 00C0;
},
{
glyphname = Aring;
layers = (
{
layerId = "EDEFDD19-C737-4BEE-813D-BCFC1948A1E8";
name = "Bold Italic";
paths = (
{
closed = 1;
nodes = (
"0 0 LINE"
);
},
{
closed = 1;
nodes = (
"1229 0 LINE",
"884 1446 LINE",
"619 1446 LINE",
"-80 0 LINE",
"124 0 LINE SMOOTH",
"145.333 0 OFFCURVE",
"164.167 6 OFFCURVE",
"180.5 18 CURVE SMOOTH",
"196.833 30 OFFCURVE",
"208.667 43.6667 OFFCURVE",
"216 59 CURVE SMOOTH",
"350 361 LINE",
"889 361 LINE",
"949 59 LINE",
"954.333 41.6667 OFFCURVE",
"963.167 27.5 OFFCURVE",
"975.5 16.5 CURVE SMOOTH",
"987.833 5.5 OFFCURVE",
"1005.33 0 OFFCURVE",
"1028 0 CURVE SMOOTH"
);
},
{
closed = 1;
nodes = (
"431 544 LINE",
"651 1038 LINE SMOOTH",
"660.333 1060.67 OFFCURVE",
"671.5 1087.17 OFFCURVE",
"684.5 1117.5 CURVE SMOOTH",
"697.5 1147.83 OFFCURVE",
"710.667 1180.67 OFFCURVE",
"724 1216 CURVE",
"729.333 1180.67 OFFCURVE",
"734.5 1148 OFFCURVE",
"739.5 1118 CURVE SMOOTH",
"744.5 1088 OFFCURVE",
"749.333 1061.67 OFFCURVE",
"754 1039 CURVE SMOOTH",
"852 544 LINE"
);
},
{
closed = 1;
nodes = (
"590.667 1678 OFFCURVE",
"593 1652.67 OFFCURVE",
"601 1630 CURVE SMOOTH",
"609 1607.33 OFFCURVE",
"620.667 1587.67 OFFCURVE",
"636 1571 CURVE SMOOTH",
"651.333 1554.33 OFFCURVE",
"670 1541.5 OFFCURVE",
"692 1532.5 CURVE SMOOTH",
"714 1523.5 OFFCURVE",
"737.333 1519 OFFCURVE",
"762 1519 CURVE SMOOTH",
"788 1519 OFFCURVE",
"813.333 1523.5 OFFCURVE",
"838 1532.5 CURVE SMOOTH",
"862.667 1541.5 OFFCURVE",
"884.667 1554.33 OFFCURVE",
"904 1571 CURVE SMOOTH",
"923.333 1587.67 OFFCURVE",
"939.333 1607.33 OFFCURVE",
"952 1630 CURVE SMOOTH",
"964.667 1652.67 OFFCURVE",
"972.667 1678 OFFCURVE",
"976 1706 CURVE SMOOTH",
"979.333 1734.67 OFFCURVE",
"977.167 1760.83 OFFCURVE",
"969.5 1784.5 CURVE SMOOTH",
"961.833 1808.17 OFFCURVE",
"950.167 1828.33 OFFCURVE",
"934.5 1845 CURVE SMOOTH",
"918.833 1861.67 OFFCURVE",
"899.667 1874.67 OFFCURVE",
"877 1884 CURVE SMOOTH",
"854.333 1893.33 OFFCURVE",
"830 1898 OFFCURVE",
"804 1898 CURVE SMOOTH",
"779.333 1898 OFFCURVE",
"755.167 1893.33 OFFCURVE",
"731.5 1884 CURVE SMOOTH",
"707.833 1874.67 OFFCURVE",
"686.333 1861.67 OFFCURVE",
"667 1845 CURVE SMOOTH",
"647.667 1828.33 OFFCURVE",
"631.5 1808.17 OFFCURVE",
"618.5 1784.5 CURVE SMOOTH",
"605.5 1760.83 OFFCURVE",
"597.333 1734.67 OFFCURVE",
"594 1706 CURVE SMOOTH"
);
},
{
closed = 1;
nodes = (
"706.333 1734 OFFCURVE",
"716 1756.17 OFFCURVE",
"732 1772.5 CURVE SMOOTH",
"748 1788.83 OFFCURVE",
"769.333 1797 OFFCURVE",
"796 1797 CURVE SMOOTH",
"820.667 1797 OFFCURVE",
"839.5 1788.83 OFFCURVE",
"852.5 1772.5 CURVE SMOOTH",
"865.5 1756.17 OFFCURVE",
"870.667 1734 OFFCURVE",
"868 1706 CURVE SMOOTH",
"864.667 1680 OFFCURVE",
"854.667 1658.67 OFFCURVE",
"838 1642 CURVE SMOOTH",
"821.333 1625.33 OFFCURVE",
"801 1617 OFFCURVE",
"777 1617 CURVE SMOOTH",
"749.667 1617 OFFCURVE",
"729.833 1625.33 OFFCURVE",
"717.5 1642 CURVE SMOOTH",
"705.167 1658.67 OFFCURVE",
"700.333 1680 OFFCURVE",
"703 1706 CURVE SMOOTH"
);
}
);
width = 1300;
}
);
leftKerningGroup = A;
rightKerningGroup = A;
unicode = 00C5;
},
{
glyphname = Atilde;
layers = (
{
layerId = "EDEFDD19-C737-4BEE-813D-BCFC1948A1E8";
name = "Bold Italic";
paths = (
{
closed = 1;
nodes = (
"0 0 LINE"
);
},
{
closed = 1;
nodes = (
"1229 0 LINE",
"884 1446 LINE",
"619 1446 LINE",
"-80 0 LINE",
"124 0 LINE SMOOTH",
"145.333 0 OFFCURVE",
"164.167 6 OFFCURVE",
"180.5 18 CURVE SMOOTH",
"196.833 30 OFFCURVE",
"208.667 43.6667 OFFCURVE",
"216 59 CURVE SMOOTH",
"350 361 LINE",
"889 361 LINE",
"949 59 LINE",
"954.333 41.6667 OFFCURVE",
"963.167 27.5 OFFCURVE",
"975.5 16.5 CURVE SMOOTH",
"987.833 5.5 OFFCURVE",
"1005.33 0 OFFCURVE",
"1028 0 CURVE SMOOTH"
);
},
{
closed = 1;
nodes = (
"431 544 LINE",
"651 1038 LINE SMOOTH",
"660.333 1060.67 OFFCURVE",
"671.5 1087.17 OFFCURVE",
"684.5 1117.5 CURVE SMOOTH",
"697.5 1147.83 OFFCURVE",
"710.667 1180.67 OFFCURVE",
"724 1216 CURVE",
"729.333 1180.67 OFFCURVE",
"734.5 1148 OFFCURVE",
"739.5 1118 CURVE SMOOTH",
"744.5 1088 OFFCURVE",
"749.333 1061.67 OFFCURVE",
"754 1039 CURVE SMOOTH",
"852 544 LINE"
);
},
{
closed = 1;
nodes = (
"886.333 1699 OFFCURVE",
"870.667 1704.33 OFFCURVE",
"856 1715 CURVE SMOOTH",
"841.333 1725.67 OFFCURVE",
"825.5 1737.17 OFFCURVE",
"808.5 1749.5 CURVE SMOOTH",
"791.5 1761.83 OFFCURVE",
"771.833 1773.33 OFFCURVE",
"749.5 1784 CURVE SMOOTH",
"727.167 1794.67 OFFCURVE",
"700.333 1800 OFFCURVE",
"669 1800 CURVE SMOOTH",
"638.333 1800 OFFCURVE",
"610.5 1792.83 OFFCURVE",
"585.5 1778.5 CURVE SMOOTH",
"560.5 1764.17 OFFCURVE",
"538.5 1745.17 OFFCURVE",
"519.5 1721.5 CURVE SMOOTH",
"500.5 1697.83 OFFCURVE",
"485 1670.5 OFFCURVE",
"473 1639.5 CURVE SMOOTH",
"461 1608.5 OFFCURVE",
"453 1576.67 OFFCURVE",
"449 1544 CURVE",
"590 1544 LINE",
"591.333 1554.67 OFFCURVE",
"594.167 1565.67 OFFCURVE",
"598.5 1577 CURVE SMOOTH",
"602.833 1588.33 OFFCURVE",
"608.667 1598.67 OFFCURVE",
"616 1608 CURVE SMOOTH",
"623.333 1617.33 OFFCURVE",
"632.167 1625 OFFCURVE",
"642.5 1631 CURVE SMOOTH",
"652.833 1637 OFFCURVE",
"665 1640 OFFCURVE",
"679 1640 CURVE SMOOTH",
"695.667 1640 OFFCURVE",
"711.333 1634.67 OFFCURVE",
"726 1624 CURVE SMOOTH",
"740.667 1613.33 OFFCURVE",
"756.667 1601.83 OFFCURVE",
"774 1589.5 CURVE SMOOTH",
"791.333 1577.17 OFFCURVE",
"810.833 1565.67 OFFCURVE",
"832.5 1555 CURVE SMOOTH",
"854.167 1544.33 OFFCURVE",
"880.667 1539 OFFCURVE",
"912 1539 CURVE SMOOTH",
"942.667 1539 OFFCURVE",
"970.667 1546 OFFCURVE",
"996 1560 CURVE SMOOTH",
"1021.33 1574 OFFCURVE",
"1043.33 1592.83 OFFCURVE",
"1062 1616.5 CURVE SMOOTH",
"1080.67 1640.17 OFFCURVE",
"1095.83 1667.17 OFFCURVE",
"1107.5 1697.5 CURVE SMOOTH",
"1119.17 1727.83 OFFCURVE",
"1127 1759.67 OFFCURVE",
"1131 1793 CURVE",
"993 1793 LINE",
"991.666 1782.33 OFFCURVE",
"988.666 1771.5 OFFCURVE",
"984 1760.5 CURVE SMOOTH",
"979.333 1749.5 OFFCURVE",
"973.333 1739.5 OFFCURVE",
"966 1730.5 CURVE SMOOTH",
"958.666 1721.5 OFFCURVE",
"949.666 1714 OFFCURVE",
"939 1708 CURVE SMOOTH",
"928.333 1702 OFFCURVE",
"916.333 1699 OFFCURVE",
"903 1699 CURVE SMOOTH"
);
}
);
width = 1300;
}
);
leftKerningGroup = A;
rightKerningGroup = A;
unicode = 00C3;
},
{
glyphname = AE;
layers = (
{
layerId = "EDEFDD19-C737-4BEE-813D-BCFC1948A1E8";
name = "Bold Italic";
paths = (
{
closed = 1;
nodes = (
"760 1446 LINE",
"-78 0 LINE",
"124 0 LINE SMOOTH",
"146 0 OFFCURVE",
"165.667 6 OFFCURVE",
"183 18 CURVE SMOOTH",
"200.333 30 OFFCURVE",
"213.667 43.6667 OFFCURVE",
"223 59 CURVE",
"388 361 LINE",
"854 361 LINE",
"854 0 LINE",
"1589 0 LINE",
"1615 207 LINE",
"1099 207 LINE",
"1099 628 LINE",
"1542 628 LINE",
"1566 827 LINE",
"1099 827 LINE",
"1099 1239 LINE",
"1742 1239 LINE",
"1767 1446 LINE"
);
},
{
closed = 1;
nodes = (
"488 544 LINE",
"780 1078 LINE SMOOTH",
"793.333 1100.67 OFFCURVE",
"806 1124.83 OFFCURVE",
"818 1150.5 CURVE SMOOTH",
"830 1176.17 OFFCURVE",
"842 1204 OFFCURVE",
"854 1234 CURVE",
"854 544 LINE"
);
}
);
width = 1743;
}
);
leftKerningGroup = AE;
rightKerningGroup = E;
unicode = 00C6;
},
{
glyphname = B;
layers = (
{
layerId = "EDEFDD19-C737-4BEE-813D-BCFC1948A1E8";
name = "Bold Italic";
paths = (
{
closed = 1;
nodes = (
"77 0 LINE",
"586 0 LINE SMOOTH",
"670.667 0 OFFCURVE",
"746.5 11.8333 OFFCURVE",
"813.5 35.5 CURVE SMOOTH",
"880.5 59.1667 OFFCURVE",
"937.333 91.8333 OFFCURVE",
"984 133.5 CURVE SMOOTH",
"1030.67 175.167 OFFCURVE",
"1066.33 224.5 OFFCURVE",
"1091 281.5 CURVE SMOOTH",
"1115.67 338.5 OFFCURVE",
"1128 400.333 OFFCURVE",
"1128 467 CURVE SMOOTH",
"1128 538.333 OFFCURVE",
"1108 597.167 OFFCURVE",
"1068 643.5 CURVE SMOOTH",
"1028 689.833 OFFCURVE",
"967 723.333 OFFCURVE",
"885 744 CURVE",
"935 760.667 OFFCURVE",
"978 781.667 OFFCURVE",
"1014 807 CURVE SMOOTH",
"1050 832.333 OFFCURVE",
"1079.67 861 OFFCURVE",
"1103 893 CURVE SMOOTH",
"1126.33 925 OFFCURVE",
"1143.5 959.833 OFFCURVE",
"1154.5 997.5 CURVE SMOOTH",
"1165.5 1035.17 OFFCURVE",
"1171 1074.67 OFFCURVE",
"1171 1116 CURVE SMOOTH",
"1171 1166 OFFCURVE",
"1162.33 1211.33 OFFCURVE",
"1145 1252 CURVE SMOOTH",
"1127.67 1292.67 OFFCURVE",
"1100.83 1327.33 OFFCURVE",
"1064.5 1356 CURVE SMOOTH",
"1028.17 1384.67 OFFCURVE",
"981.5 1406.83 OFFCURVE",
"924.5 1422.5 CURVE SMOOTH",
"867.5 1438.17 OFFCURVE",
"799 1446 OFFCURVE",
"719 1446 CURVE SMOOTH",
"255 1446 LINE"
);
},
{
closed = 1;
nodes = (
"414 637 LINE",
"658 637 LINE SMOOTH",
"734 637 OFFCURVE",
"788.666 621.333 OFFCURVE",
"822 590 CURVE SMOOTH",
"855.333 558.666 OFFCURVE",
"872 516.666 OFFCURVE",
"872 464 CURVE SMOOTH",
"872 425.333 OFFCURVE",
"866.833 389.833 OFFCURVE",
"856.5 357.5 CURVE SMOOTH",
"846.166 325.166 OFFCURVE",
"830.333 297.5 OFFCURVE",
"809 274.5 CURVE SMOOTH",
"787.666 251.5 OFFCURVE",
"760.166 233.666 OFFCURVE",
"726.5 221 CURVE SMOOTH",
"692.833 208.333 OFFCURVE",
"653 202 OFFCURVE",
"607 202 CURVE SMOOTH",
"361 202 LINE"
);
},
{
closed = 1;
nodes = (
"436 816 LINE",
"489 1246 LINE",
"695 1246 LINE SMOOTH",
"767.666 1246 OFFCURVE",
"821.166 1232.17 OFFCURVE",
"855.5 1204.5 CURVE SMOOTH",
"889.833 1176.83 OFFCURVE",
"907 1132.67 OFFCURVE",
"907 1072 CURVE SMOOTH",
"907 985.333 OFFCURVE",
"882.833 921 OFFCURVE",
"834.5 879 CURVE SMOOTH",
"786.166 837 OFFCURVE",
"717.333 816 OFFCURVE",
"628 816 CURVE SMOOTH"
);
}
);
width = 1228;
}
);
leftKerningGroup = B;
rightKerningGroup = B;
unicode = 0042;
},
{
glyphname = C;
layers = (
{
layerId = "EDEFDD19-C737-4BEE-813D-BCFC1948A1E8";
name = "Bold Italic";
paths = (
{
closed = 1;
nodes = (
"636.333 204 OFFCURVE",
"591.333 213.833 OFFCURVE",
"550 233.5 CURVE SMOOTH",
"508.667 253.167 OFFCURVE",
"472.833 281.5 OFFCURVE",
"442.5 318.5 CURVE SMOOTH",
"412.167 355.5 OFFCURVE",
"388.5 400.667 OFFCURVE",
"371.5 454 CURVE SMOOTH",
"354.5 507.333 OFFCURVE",
"346 567.667 OFFCURVE",
"346 635 CURVE SMOOTH",
"346 727.667 OFFCURVE",
"358.5 811.167 OFFCURVE",
"383.5 885.5 CURVE SMOOTH",
"408.5 959.833 OFFCURVE",
"443 1023.33 OFFCURVE",
"487 1076 CURVE SMOOTH",
"531 1128.67 OFFCURVE",
"582.833 1169.17 OFFCURVE",
"642.5 1197.5 CURVE SMOOTH",
"702.167 1225.83 OFFCURVE",
"766.667 1240 OFFCURVE",
"836 1240 CURVE SMOOTH",
"888.667 1240 OFFCURVE",
"931.167 1234 OFFCURVE",
"963.5 1222 CURVE SMOOTH",
"995.833 1210 OFFCURVE",
"1022.17 1196.83 OFFCURVE",
"1042.5 1182.5 CURVE SMOOTH",
"1062.83 1168.17 OFFCURVE",
"1079.67 1155 OFFCURVE",
"1093 1143 CURVE SMOOTH",
"1106.33 1131 OFFCURVE",
"1120.33 1125 OFFCURVE",
"1135 1125 CURVE SMOOTH",
"1148.33 1125 OFFCURVE",
"1159.5 1128 OFFCURVE",
"1168.5 1134 CURVE SMOOTH",
"1177.5 1140 OFFCURVE",
"1185.33 1147 OFFCURVE",
"1192 1155 CURVE SMOOTH",
"1282 1263 LINE",
"1259.33 1293 OFFCURVE",
"1233.83 1320.17 OFFCURVE",
"1205.5 1344.5 CURVE SMOOTH",
"1177.17 1368.83 OFFCURVE",
"1145.5 1389.67 OFFCURVE",
"1110.5 1407 CURVE SMOOTH",
"1075.5 1424.33 OFFCURVE",
"1036.33 1437.83 OFFCURVE",
"993 1447.5 CURVE SMOOTH",
"949.667 1457.17 OFFCURVE",
"901.667 1462 OFFCURVE",
"849 1462 CURVE SMOOTH",
"777.667 1462 OFFCURVE",
"709.167 1452.67 OFFCURVE",
"643.5 1434 CURVE SMOOTH",
"577.833 1415.33 OFFCURVE",
"516.5 1388.33 OFFCURVE",
"459.5 1353 CURVE SMOOTH",
"402.5 1317.67 OFFCURVE",
"350.833 1275 OFFCURVE",
"304.5 1225 CURVE SMOOTH",
"258.167 1175 OFFCURVE",
"218.334 1118.5 OFFCURVE",
"185 1055.5 CURVE SMOOTH",
"151.667 992.5 OFFCURVE",
"126 923.833 OFFCURVE",
"108 849.5 CURVE SMOOTH",
"90 775.167 OFFCURVE",
"81 696.333 OFFCURVE",
"81 613 CURVE SMOOTH",
"81 522.333 OFFCURVE",
"93.5002 438.667 OFFCURVE",
"118.5 362 CURVE SMOOTH",
"143.5 285.333 OFFCURVE",
"179.834 219 OFFCURVE",
"227.5 163 CURVE SMOOTH",
"275.167 107 OFFCURVE",
"333.667 63.1667 OFFCURVE",
"403 31.5 CURVE SMOOTH",
"472.333 0 OFFCURVE",
"551.667 -16 OFFCURVE",
"641 -16 CURVE SMOOTH",
"751 -16 OFFCURVE",
"848.333 3.16672 OFFCURVE",
"933 41.5 CURVE SMOOTH",
"1017.67 79.8334 OFFCURVE",
"1091.33 135 OFFCURVE",
"1154 207 CURVE",
"1063 320 LINE",
"1059.67 323.333 OFFCURVE",
"1055.33 326.667 OFFCURVE",
"1050 330 CURVE SMOOTH",
"1044.67 333.333 OFFCURVE",
"1037.67 335 OFFCURVE",
"1029 335 CURVE SMOOTH",
"1019.67 335 OFFCURVE",
"1010.33 331.833 OFFCURVE",
"1001 325.5 CURVE SMOOTH",
"991.667 319.167 OFFCURVE",
"981 311 OFFCURVE",
"969 301 CURVE SMOOTH",
"957 291 OFFCURVE",
"943.167 280.5 OFFCURVE",
"927.5 269.5 CURVE SMOOTH",
"911.833 258.5 OFFCURVE",
"892.667 248 OFFCURVE",
"870 238 CURVE SMOOTH",
"847.333 228 OFFCURVE",
"821 219.833 OFFCURVE",
"791 213.5 CURVE SMOOTH",
"761 207.167 OFFCURVE",
"725.667 204 OFFCURVE",
"685 204 CURVE SMOOTH"
);
}
);
width = 1241;
}
);
leftKerningGroup = C;
rightKerningGroup = C;
unicode = 0043;
},
{
glyphname = Ccedilla;
layers = (
{
layerId = "EDEFDD19-C737-4BEE-813D-BCFC1948A1E8";
name = "Bold Italic";
paths = (
{
closed = 1;
nodes = (
"501.333 -234 OFFCURVE",
"491 -242 OFFCURVE",
"485 -257 CURVE SMOOTH",
"453 -334 LINE",
"473.667 -341 OFFCURVE",
"494.667 -347 OFFCURVE",
"516 -351 CURVE SMOOTH",
"537.333 -354 OFFCURVE",
"560.667 -356 OFFCURVE",
"586 -356 CURVE SMOOTH",
"622.667 -356 OFFCURVE",
"656.333 -352 OFFCURVE",
"687 -345 CURVE SMOOTH",
"717.667 -338 OFFCURVE",
"744 -327 OFFCURVE",
"766 -313 CURVE SMOOTH",
"788 -299 OFFCURVE",
"805.167 -282 OFFCURVE",
"817.5 -262 CURVE SMOOTH",
"829.833 -241 OFFCURVE",
"836 -218 OFFCURVE",
"836 -193 CURVE SMOOTH",
"836 -163 OFFCURVE",
"825.667 -137 OFFCURVE",
"805 -115 CURVE SMOOTH",
"784.333 -92 OFFCURVE",
"748.667 -74 OFFCURVE",
"698 -61 CURVE",
"717 -12 LINE",
"808.333 -4 OFFCURVE",
"890.167 18.6667 OFFCURVE",
"962.5 56 CURVE SMOOTH",
"1034.83 93.3333 OFFCURVE",
"1098.67 143.667 OFFCURVE",
"1154 207 CURVE",
"1063 320 LINE",
"1059.67 323.333 OFFCURVE",
"1055.33 326.667 OFFCURVE",
"1050 330 CURVE SMOOTH",
"1044.67 333.333 OFFCURVE",
"1037.67 335 OFFCURVE",
"1029 335 CURVE SMOOTH",
"1019.67 335 OFFCURVE",
"1010.33 331.833 OFFCURVE",
"1001 325.5 CURVE SMOOTH",
"991.667 319.167 OFFCURVE",
"981 311 OFFCURVE",
"969 301 CURVE SMOOTH",
"957 291 OFFCURVE",
"943.167 280.5 OFFCURVE",
"927.5 269.5 CURVE SMOOTH",
"911.833 258.5 OFFCURVE",
"892.667 248 OFFCURVE",
"870 238 CURVE SMOOTH",
"847.333 228 OFFCURVE",
"821 219.833 OFFCURVE",
"791 213.5 CURVE SMOOTH",
"761 207.167 OFFCURVE",
"725.667 204 OFFCURVE",
"685 204 CURVE SMOOTH",
"636.333 204 OFFCURVE",
"591.333 213.833 OFFCURVE",
"550 233.5 CURVE SMOOTH",
"508.667 253.167 OFFCURVE",
"472.833 281.5 OFFCURVE",
"442.5 318.5 CURVE SMOOTH",
"412.167 355.5 OFFCURVE",
"388.5 400.667 OFFCURVE",
"371.5 454 CURVE SMOOTH",
"354.5 507.333 OFFCURVE",
"346 567.667 OFFCURVE",
"346 635 CURVE SMOOTH",
"346 727.667 OFFCURVE",
"358.5 811.167 OFFCURVE",
"383.5 885.5 CURVE SMOOTH",
"408.5 959.833 OFFCURVE",
"443 1023.33 OFFCURVE",
"487 1076 CURVE SMOOTH",
"531 1128.67 OFFCURVE",
"582.833 1169.17 OFFCURVE",
"642.5 1197.5 CURVE SMOOTH",
"702.167 1225.83 OFFCURVE",
"766.667 1240 OFFCURVE",
"836 1240 CURVE SMOOTH",
"888.667 1240 OFFCURVE",
"931.167 1234 OFFCURVE",
"963.5 1222 CURVE SMOOTH",
"995.833 1210 OFFCURVE",
"1022.17 1196.83 OFFCURVE",
"1042.5 1182.5 CURVE SMOOTH",
"1062.83 1168.17 OFFCURVE",
"1079.67 1155 OFFCURVE",
"1093 1143 CURVE SMOOTH",
"1106.33 1131 OFFCURVE",
"1120.33 1125 OFFCURVE",
"1135 1125 CURVE SMOOTH",
"1148.33 1125 OFFCURVE",
"1159.5 1128 OFFCURVE",
"1168.5 1134 CURVE SMOOTH",
"1177.5 1140 OFFCURVE",
"1185.33 1147 OFFCURVE",
"1192 1155 CURVE SMOOTH",
"1282 1263 LINE",
"1259.33 1293 OFFCURVE",
"1233.83 1320.17 OFFCURVE",
"1205.5 1344.5 CURVE SMOOTH",
"1177.17 1368.83 OFFCURVE",
"1145.5 1389.67 OFFCURVE",
"1110.5 1407 CURVE SMOOTH",
"1075.5 1424.33 OFFCURVE",
"1036.33 1437.83 OFFCURVE",
"993 1447.5 CURVE SMOOTH",
"949.667 1457.17 OFFCURVE",
"901.667 1462 OFFCURVE",
"849 1462 CURVE SMOOTH",
"777.667 1462 OFFCURVE",
"709.167 1452.67 OFFCURVE",
"643.5 1434 CURVE SMOOTH",
"577.833 1415.33 OFFCURVE",
"516.5 1388.33 OFFCURVE",
"459.5 1353 CURVE SMOOTH",
"402.5 1317.67 OFFCURVE",
"350.833 1275 OFFCURVE",
"304.5 1225 CURVE SMOOTH",
"258.167 1175 OFFCURVE",
"218.334 1118.5 OFFCURVE",
"185 1055.5 CURVE SMOOTH",
"151.667 992.5 OFFCURVE",
"126 923.833 OFFCURVE",
"108 849.5 CURVE SMOOTH",
"90 775.167 OFFCURVE",
"81 696.333 OFFCURVE",
"81 613 CURVE SMOOTH",
"81 527.667 OFFCURVE",
"92 448.5 OFFCURVE",
"114 375.5 CURVE SMOOTH",
"136 302.5 OFFCURVE",
"168 238.5 OFFCURVE",
"210 183.5 CURVE SMOOTH",
"252 128.5 OFFCURVE",
"303.834 83.8334 OFFCURVE",
"365.5 49.5001 CURVE SMOOTH",
"427.167 15.1667 OFFCURVE",
"497.667 -6 OFFCURVE",
"577 -13 CURVE",
"520 -141 LINE",
"562 -148 OFFCURVE",
"593 -155 OFFCURVE",
"613 -163 CURVE SMOOTH",
"633 -171 OFFCURVE",
"643 -184 OFFCURVE",
"643 -201 CURVE SMOOTH",
"643 -214 OFFCURVE",
"638 -226 OFFCURVE",
"628 -235 CURVE SMOOTH",
"618 -244 OFFCURVE",
"602.667 -249 OFFCURVE",
"582 -249 CURVE SMOOTH",
"564.667 -249 OFFCURVE",
"551.667 -247 OFFCURVE",
"543 -242 CURVE SMOOTH",
"534.333 -237 OFFCURVE",
"525.333 -234 OFFCURVE",
"516 -234 CURVE SMOOTH"
);
}
);
width = 1241;
}
);
leftKerningGroup = C;
rightKerningGroup = C;
unicode = 00C7;
},
{
glyphname = D;
layers = (
{
layerId = "EDEFDD19-C737-4BEE-813D-BCFC1948A1E8";
name = "Bold Italic";
paths = (
{
closed = 1;
nodes = (
"1361 910.667 OFFCURVE",
"1347.17 994.333 OFFCURVE",
"1319.5 1071 CURVE SMOOTH",
"1291.83 1147.67 OFFCURVE",
"1252.33 1213.67 OFFCURVE",
"1201 1269 CURVE SMOOTH",
"1149.67 1324.33 OFFCURVE",
"1087.17 1367.67 OFFCURVE",
"1013.5 1399 CURVE SMOOTH",
"939.833 1430.33 OFFCURVE",
"857 1446 OFFCURVE",
"765 1446 CURVE SMOOTH",
"255 1446 LINE",
"76.9999 0 LINE",
"586 0 LINE SMOOTH",
"698 0 OFFCURVE",
"801.333 20.1668 OFFCURVE",
"896 60.5001 CURVE SMOOTH",
"990.667 100.833 OFFCURVE",
"1072.5 157.167 OFFCURVE",
"1141.5 229.5 CURVE SMOOTH",
"1210.5 301.833 OFFCURVE",
"1264.33 388.333 OFFCURVE",
"1303 489 CURVE SMOOTH",
"1341.67 589.667 OFFCURVE",
"1361 700 OFFCURVE",
"1361 820 CURVE SMOOTH"
);
},
{
closed = 1;
nodes = (
"1095 720 OFFCURVE",
"1083.5 635.5 OFFCURVE",
"1060.5 560.5 CURVE SMOOTH",
"1037.5 485.5 OFFCURVE",
"1004.83 421.833 OFFCURVE",
"962.5 369.5 CURVE SMOOTH",
"920.167 317.167 OFFCURVE",
"869.333 277 OFFCURVE",
"810 249 CURVE SMOOTH",
"750.667 221 OFFCURVE",
"684.667 207 OFFCURVE",
"612 207 CURVE SMOOTH",
"363 207 LINE",
"491 1240 LINE",
"739 1240 LINE SMOOTH",
"795.667 1240 OFFCURVE",
"846 1230 OFFCURVE",
"890 1210 CURVE SMOOTH",
"934 1190 OFFCURVE",
"971.167 1161.5 OFFCURVE",
"1001.5 1124.5 CURVE SMOOTH",
"1031.83 1087.5 OFFCURVE",
"1055 1042.67 OFFCURVE",
"1071 990 CURVE SMOOTH",
"1087 937.333 OFFCURVE",
"1095 878.667 OFFCURVE",
"1095 814 CURVE SMOOTH"
);
}
);
width = 1416;
}
);
leftKerningGroup = B;
rightKerningGroup = D;
unicode = 0044;
},
{
glyphname = Eth;
layers = (
{
layerId = "EDEFDD19-C737-4BEE-813D-BCFC1948A1E8";
name = "Bold Italic";
paths = (
{
closed = 1;
nodes = (
"27 801 LINE",
"8 653 LINE",
"172 653 LINE",
"92 0 LINE",
"602 0 LINE SMOOTH",
"713.333 0 OFFCURVE",
"816.333 20.1667 OFFCURVE",
"911 60.5 CURVE SMOOTH",
"1005.67 100.833 OFFCURVE",
"1087.33 157.167 OFFCURVE",
"1156 229.5 CURVE SMOOTH",
"1224.67 301.833 OFFCURVE",
"1278.33 388.333 OFFCURVE",
"1317 489 CURVE SMOOTH",
"1355.67 589.667 OFFCURVE",
"1375 700 OFFCURVE",
"1375 820 CURVE SMOOTH",
"1375 910.667 OFFCURVE",
"1361.33 994.333 OFFCURVE",
"1334 1071 CURVE SMOOTH",
"1306.67 1147.67 OFFCURVE",
"1267.17 1213.67 OFFCURVE",
"1215.5 1269 CURVE SMOOTH",
"1163.83 1324.33 OFFCURVE",
"1101.17 1367.67 OFFCURVE",
"1027.5 1399 CURVE SMOOTH",
"953.833 1430.33 OFFCURVE",
"871 1446 OFFCURVE",
"779 1446 CURVE SMOOTH",
"269 1446 LINE",
"190 801 LINE"
);
},
{
closed = 1;
nodes = (
"1109 720 OFFCURVE",
"1097.67 635.5 OFFCURVE",
"1075 560.5 CURVE SMOOTH",
"1052.33 485.5 OFFCURVE",
"1020 421.833 OFFCURVE",
"978 369.5 CURVE SMOOTH",
"936 317.167 OFFCURVE",
"885.333 277 OFFCURVE",
"826 249 CURVE SMOOTH",
"766.667 221 OFFCURVE",
"700.667 207 OFFCURVE",
"628 207 CURVE SMOOTH",
"379 207 LINE",
"433 653 LINE",
"762 653 LINE",
"780 801 LINE",
"451 801 LINE",
"504 1240 LINE",
"754 1240 LINE SMOOTH",
"810 1240 OFFCURVE",
"860 1230 OFFCURVE",
"904 1210 CURVE SMOOTH",
"948 1190 OFFCURVE",
"985.167 1161.5 OFFCURVE",
"1015.5 1124.5 CURVE SMOOTH",
"1045.83 1087.5 OFFCURVE",
"1069 1042.67 OFFCURVE",
"1085 990 CURVE SMOOTH",
"1101 937.333 OFFCURVE",
"1109 878.667 OFFCURVE",
"1109 814 CURVE SMOOTH"
);
}
);
width = 1430;
}
);
leftKerningGroup = B;
rightKerningGroup = D;
unicode = 00D0;
},
{
glyphname = E;
layers = (
{
layerId = "EDEFDD19-C737-4BEE-813D-BCFC1948A1E8";
name = "Bold Italic";
paths = (
{
closed = 1;
nodes = (
"1098 1446 LINE",
"255 1446 LINE",
"77 0 LINE",
"921 0 LINE",
"947 207 LINE",
"363 207 LINE",
"415 629 LINE",
"872 629 LINE",
"897 828 LINE",
"440 828 LINE",
"490 1239 LINE",
"1072 1239 LINE"
);
}
);
width = 1073;
}
);
leftKerningGroup = B;
rightKerningGroup = E;
unicode = 0045;
},
{
glyphname = Eacute;
layers = (
{
layerId = "EDEFDD19-C737-4BEE-813D-BCFC1948A1E8";
name = "Bold Italic";
paths = (
{
closed = 1;
nodes = (
"77 0 LINE"
);
},
{
closed = 1;
nodes = (
"1098 1446 LINE",
"255 1446 LINE",
"77 0 LINE",
"921 0 LINE",
"947 207 LINE",
"363 207 LINE",
"415 629 LINE",
"872 629 LINE",
"897 828 LINE",
"440 828 LINE",
"490 1239 LINE",
"1072 1239 LINE"
);
},
{
closed = 1;
nodes = (
"1140 1861 LINE",
"888 1861 LINE SMOOTH",
"876 1861 OFFCURVE",
"865.5 1860.67 OFFCURVE",
"856.5 1860 CURVE SMOOTH",
"847.5 1859.33 OFFCURVE",
"839.167 1857.67 OFFCURVE",
"831.5 1855 CURVE SMOOTH",
"823.833 1852.33 OFFCURVE",
"816.667 1848.17 OFFCURVE",
"810 1842.5 CURVE SMOOTH",
"803.333 1836.83 OFFCURVE",
"796.333 1829.33 OFFCURVE",
"789 1820 CURVE SMOOTH",
"566 1549 LINE",
"730 1549 LINE SMOOTH",
"747.333 1549 OFFCURVE",
"761.5 1550.33 OFFCURVE",
"772.5 1553 CURVE SMOOTH",
"783.5 1555.67 OFFCURVE",
"796 1563 OFFCURVE",
"810 1575 CURVE SMOOTH"
);
}
);
width = 1073;
}
);
leftKerningGroup = B;
rightKerningGroup = E;
unicode = 00C9;
},
{
glyphname = Ecircumflex;
layers = (
{
layerId = "EDEFDD19-C737-4BEE-813D-BCFC1948A1E8";
name = "Bold Italic";
paths = (
{
closed = 1;
nodes = (
"77 0 LINE"
);
},
{
closed = 1;
nodes = (
"1098 1446 LINE",
"255 1446 LINE",
"77 0 LINE",
"921 0 LINE",
"947 207 LINE",
"363 207 LINE",
"415 629 LINE",
"872 629 LINE",
"897 828 LINE",
"440 828 LINE",
"490 1239 LINE",
"1072 1239 LINE"
);
},
{
closed = 1;
nodes = (
"1022 1549 LINE",
"831 1824 LINE",
"625 1824 LINE",
"372 1549 LINE",
"530 1549 LINE SMOOTH",
"539.333 1549 OFFCURVE",
"550.667 1550.83 OFFCURVE",
"564 1554.5 CURVE SMOOTH",
"577.333 1558.17 OFFCURVE",
"592.333 1569 OFFCURVE",
"609 1587 CURVE",
"696 1693 LINE",
"712 1715 LINE",
"714 1711.67 OFFCURVE",
"715.833 1708.17 OFFCURVE",
"717.5 1704.5 CURVE SMOOTH",
"719.167 1700.83 OFFCURVE",
"721.333 1697 OFFCURVE",
"724 1693 CURVE",
"787 1587 LINE SMOOTH",
"798.333 1569 OFFCURVE",
"810.5 1558.17 OFFCURVE",
"823.5 1554.5 CURVE SMOOTH",
"836.5 1550.83 OFFCURVE",
"847.667 1549 OFFCURVE",
"857 1549 CURVE SMOOTH"
);
}
);
width = 1073;
}
);
leftKerningGroup = B;
rightKerningGroup = E;
unicode = 00CA;
},
{
glyphname = Edieresis;
layers = (
{
layerId = "EDEFDD19-C737-4BEE-813D-BCFC1948A1E8";
name = "Bold Italic";
paths = (
{
closed = 1;
nodes = (
"77 0 LINE"
);
},
{
closed = 1;
nodes = (
"1098 1446 LINE",
"255 1446 LINE",
"77 0 LINE",
"921 0 LINE",
"947 207 LINE",
"363 207 LINE",
"415 629 LINE",
"872 629 LINE",
"897 828 LINE",
"440 828 LINE",
"490 1239 LINE",
"1072 1239 LINE"
);
},
{
closed = 1;
nodes = (
"644 1683.67 OFFCURVE",
"640.333 1701.5 OFFCURVE",
"633 1718.5 CURVE SMOOTH",
"625.667 1735.5 OFFCURVE",
"615.5 1750.33 OFFCURVE",
"602.5 1763 CURVE SMOOTH",
"589.5 1775.67 OFFCURVE",
"574.5 1785.67 OFFCURVE",
"557.5 1793 CURVE SMOOTH",
"540.5 1800.33 OFFCURVE",
"522.667 1804 OFFCURVE",
"504 1804 CURVE SMOOTH",
"486 1804 OFFCURVE",
"468.833 1800.33 OFFCURVE",
"452.5 1793 CURVE SMOOTH",
"436.167 1785.67 OFFCURVE",
"421.667 1775.67 OFFCURVE",
"409 1763 CURVE SMOOTH",
"396.333 1750.33 OFFCURVE",
"386.333 1735.5 OFFCURVE",
"379 1718.5 CURVE SMOOTH",
"371.667 1701.5 OFFCURVE",
"368 1683.67 OFFCURVE",
"368 1665 CURVE SMOOTH",
"368 1646.33 OFFCURVE",
"371.667 1628.83 OFFCURVE",
"379 1612.5 CURVE SMOOTH",
"386.333 1596.17 OFFCURVE",
"396.333 1581.83 OFFCURVE",
"409 1569.5 CURVE SMOOTH",
"421.667 1557.17 OFFCURVE",
"436.167 1547.5 OFFCURVE",
"452.5 1540.5 CURVE SMOOTH",
"468.833 1533.5 OFFCURVE",
"486 1530 OFFCURVE",
"504 1530 CURVE SMOOTH",
"522.667 1530 OFFCURVE",
"540.5 1533.5 OFFCURVE",
"557.5 1540.5 CURVE SMOOTH",
"574.5 1547.5 OFFCURVE",
"589.5 1557.17 OFFCURVE",
"602.5 1569.5 CURVE SMOOTH",
"615.5 1581.83 OFFCURVE",
"625.667 1596.17 OFFCURVE",
"633 1612.5 CURVE SMOOTH",
"640.333 1628.83 OFFCURVE",
"644 1646.33 OFFCURVE",
"644 1665 CURVE SMOOTH"
);
},
{
closed = 1;
nodes = (
"1043 1683.67 OFFCURVE",
"1039.33 1701.5 OFFCURVE",
"1032 1718.5 CURVE SMOOTH",
"1024.67 1735.5 OFFCURVE",
"1014.83 1750.33 OFFCURVE",
"1002.5 1763 CURVE SMOOTH",
"990.167 1775.67 OFFCURVE",
"975.5 1785.67 OFFCURVE",
"958.5 1793 CURVE SMOOTH",
"941.5 1800.33 OFFCURVE",
"923.333 1804 OFFCURVE",
"904 1804 CURVE SMOOTH",
"885.333 1804 OFFCURVE",
"867.667 1800.33 OFFCURVE",
"851 1793 CURVE SMOOTH",
"834.333 1785.67 OFFCURVE",
"819.833 1775.67 OFFCURVE",
"807.5 1763 CURVE SMOOTH",
"795.167 1750.33 OFFCURVE",
"785.333 1735.5 OFFCURVE",
"778 1718.5 CURVE SMOOTH",
"770.667 1701.5 OFFCURVE",
"767 1683.67 OFFCURVE",
"767 1665 CURVE SMOOTH",
"767 1646.33 OFFCURVE",
"770.667 1628.83 OFFCURVE",
"778 1612.5 CURVE SMOOTH",
"785.333 1596.17 OFFCURVE",
"795.167 1581.83 OFFCURVE",
"807.5 1569.5 CURVE SMOOTH",
"819.833 1557.17 OFFCURVE",
"834.333 1547.5 OFFCURVE",
"851 1540.5 CURVE SMOOTH",
"867.667 1533.5 OFFCURVE",
"885.333 1530 OFFCURVE",
"904 1530 CURVE SMOOTH",
"923.333 1530 OFFCURVE",
"941.5 1533.5 OFFCURVE",
"958.5 1540.5 CURVE SMOOTH",
"975.5 1547.5 OFFCURVE",
"990.167 1557.17 OFFCURVE",
"1002.5 1569.5 CURVE SMOOTH",
"1014.83 1581.83 OFFCURVE",
"1024.67 1596.17 OFFCURVE",
"1032 1612.5 CURVE SMOOTH",
"1039.33 1628.83 OFFCURVE",
"1043 1646.33 OFFCURVE",
"1043 1665 CURVE SMOOTH"
);
}
);
width = 1073;
}
);
leftKerningGroup = B;
rightKerningGroup = E;
unicode = 00CB;
},
{
glyphname = Egrave;
layers = (
{
layerId = "EDEFDD19-C737-4BEE-813D-BCFC1948A1E8";
name = "Bold Italic";
paths = (
{
closed = 1;
nodes = (
"77 0 LINE"
);
},
{
closed = 1;
nodes = (
"1098 1446 LINE",
"255 1446 LINE",
"77 0 LINE",
"921 0 LINE",
"947 207 LINE",
"363 207 LINE",
"415 629 LINE",
"872 629 LINE",
"897 828 LINE",
"440 828 LINE",
"490 1239 LINE",
"1072 1239 LINE"
);
},
{
closed = 1;
nodes = (
"357 1861 LINE",
"618 1573 LINE SMOOTH",
"628.667 1561.67 OFFCURVE",
"638.833 1554.83 OFFCURVE",
"648.5 1552.5 CURVE SMOOTH",
"658.167 1550.17 OFFCURVE",
"672 1549 OFFCURVE",
"690 1549 CURVE SMOOTH",
"854 1549 LINE",
"685 1820 LINE SMOOTH",
"679 1829.33 OFFCURVE",
"673.333 1836.67 OFFCURVE",
"668 1842 CURVE SMOOTH",
"662.667 1847.33 OFFCURVE",
"656.667 1851.5 OFFCURVE",
"650 1854.5 CURVE SMOOTH",
"643.333 1857.5 OFFCURVE",
"635.5 1859.33 OFFCURVE",
"626.5 1860 CURVE SMOOTH",
"617.5 1860.67 OFFCURVE",
"607 1861 OFFCURVE",
"595 1861 CURVE SMOOTH"
);
}
);
width = 1073;
}
);
leftKerningGroup = B;
rightKerningGroup = E;
unicode = 00C8;
},
{
glyphname = F;
layers = (
{
layerId = "EDEFDD19-C737-4BEE-813D-BCFC1948A1E8";
name = "Bold Italic";
paths = (
{
closed = 1;
nodes = (
"1072 1239 LINE",
"1098 1446 LINE",
"255 1446 LINE",
"77 0 LINE",
"338 0 LINE",
"411 592 LINE",
"900 592 LINE",
"928 799 LINE",
"436 799 LINE",
"490 1239 LINE"
);
}
);
width = 1062;
}
);
leftKerningGroup = B;
rightKerningGroup = F;
unicode = 0046;
},
{
glyphname = G;
lastChange = "2014-08-21 04:52:07 -0500";
layers = (
{
layerId = "EDEFDD19-C737-4BEE-813D-BCFC1948A1E8";
name = "Bold Italic";
paths = (
{
closed = 1;
nodes = (
"658.667 191 OFFCURVE",
"608.5 201.167 OFFCURVE",
"563.5 221.5 CURVE SMOOTH",
"518.5 241.833 OFFCURVE",
"480 271 OFFCURVE",
"448 309 CURVE SMOOTH",
"416 347 OFFCURVE",
"391.167 393.333 OFFCURVE",
"373.5 448 CURVE SMOOTH",
"355.833 502.667 OFFCURVE",
"347 564.667 OFFCURVE",
"347 634 CURVE SMOOTH",
"347 725.333 OFFCURVE",
"359 808.167 OFFCURVE",
"383 882.5 CURVE SMOOTH",
"407 956.833 OFFCURVE",
"440.667 1020.5 OFFCURVE",
"484 1073.5 CURVE SMOOTH",
"527.333 1126.5 OFFCURVE",
"579 1167.5 OFFCURVE",
"639 1196.5 CURVE SMOOTH",
"699 1225.5 OFFCURVE",
"765 1240 OFFCURVE",
"837 1240 CURVE SMOOTH",
"876.333 1240 OFFCURVE",
"910.667 1237 OFFCURVE",
"940 1231 CURVE SMOOTH",
"969.333 1225 OFFCURVE",
"995.5 1217 OFFCURVE",
"1018.5 1207 CURVE SMOOTH",
"1041.5 1197 OFFCURVE",
"1062.67 1185.83 OFFCURVE",
"1082 1173.5 CURVE SMOOTH",
"1101.33 1161.17 OFFCURVE",
"1120.67 1148.67 OFFCURVE",
"1140 1136 CURVE SMOOTH",
"1160 1122.67 OFFCURVE",
"1179.67 1118.17 OFFCURVE",
"1199 1122.5 CURVE SMOOTH",
"1218.33 1126.83 OFFCURVE",
"1234.67 1138.33 OFFCURVE",
"1248 1157 CURVE",
"1332 1265 LINE",
"1308 1291.67 OFFCURVE",
"1280.67 1317 OFFCURVE",
"1250 1341 CURVE SMOOTH",
"1219.33 1365 OFFCURVE",
"1184.67 1386 OFFCURVE",
"1146 1404 CURVE SMOOTH",
"1107.33 1422 OFFCURVE",
"1064.17 1436.17 OFFCURVE",
"1016.5 1446.5 CURVE SMOOTH",
"968.834 1456.83 OFFCURVE",
"915.667 1462 OFFCURVE",
"857 1462 CURVE SMOOTH",
"783.667 1462 OFFCURVE",
"713.5 1452.67 OFFCURVE",
"646.5 1434 CURVE SMOOTH",
"579.5 1415.33 OFFCURVE",
"517.334 1388.5 OFFCURVE",
"460 1353.5 CURVE SMOOTH",
"402.667 1318.5 OFFCURVE",
"350.667 1276.17 OFFCURVE",
"304 1226.5 CURVE SMOOTH",
"257.334 1176.83 OFFCURVE",
"217.5 1121 OFFCURVE",
"184.5 1059 CURVE SMOOTH",
"151.5 997 OFFCURVE",
"126 929.5 OFFCURVE",
"108 856.5 CURVE SMOOTH",
"90 783.5 OFFCURVE",
"81 706.333 OFFCURVE",
"81 625 CURVE SMOOTH",
"81 532.333 OFFCURVE",
"95 446.833 OFFCURVE",
"123 368.5 CURVE SMOOTH",
"151 290.167 OFFCURVE",
"190.834 222.5 OFFCURVE",
"242.5 165.5 CURVE SMOOTH",
"294.167 108.5 OFFCURVE",
"356.167 64 OFFCURVE",
"428.5 32 CURVE SMOOTH",
"500.834 1.52588 OFFCURVE",
"527 -15 OFFCURVE",
"666 -22 CURVE",
"833 -22 OFFCURVE",
"875.334 -3 OFFCURVE",
"960 22 CURVE SMOOTH",
"1044.67 47.3333 OFFCURVE",
"1123.67 86.6667 OFFCURVE",
"1197 140 CURVE",
"1269 721 LINE",
"819 721 LINE",
"802 573 LINE SMOOTH",
"800.667 559.667 OFFCURVE",
"804.167 548.5 OFFCURVE",
"812.5 539.5 CURVE SMOOTH",
"820.834 530.5 OFFCURVE",
"833.334 526 OFFCURVE",
"850 526 CURVE SMOOTH",
"1010 526 LINE",
"976 250 LINE",
"938 231.333 OFFCURVE",
"898.334 216.833 OFFCURVE",
"857 206.5 CURVE SMOOTH",
"815.667 196.167 OFFCURVE",
"768 191 OFFCURVE",
"714 191 CURVE SMOOTH"
);
}
);
width = 1355;
}
);
leftKerningGroup = C;
rightKerningGroup = G;
unicode = 0047;
},
{
glyphname = H;
layers = (
{
layerId = "EDEFDD19-C737-4BEE-813D-BCFC1948A1E8";
name = "Bold Italic";
paths = (
{
closed = 1;
nodes = (
"1208 0 LINE",
"1386 1446 LINE",
"1125 1446 LINE",
"1047 819 LINE",
"438 819 LINE",
"516 1446 LINE",
"255 1446 LINE",
"77 0 LINE",
"338 0 LINE",
"416 635 LINE",
"1024 635 LINE",
"946 0 LINE"
);
}
);
width = 1435;
}
);
leftKerningGroup = B;
rightKerningGroup = H;
unicode = 0048;
},
{
glyphname = I;
layers = (
{
layerId = "EDEFDD19-C737-4BEE-813D-BCFC1948A1E8";
name = "Bold Italic";
paths = (
{
closed = 1;
nodes = (
"338 0 LINE",
"514 1446 LINE",
"253 1446 LINE",
"77 0 LINE"
);
}
);
width = 564;
}
);
leftKerningGroup = B;
rightKerningGroup = H;
unicode = 0049;
},
{
glyphname = Iacute;
layers = (
{
layerId = "EDEFDD19-C737-4BEE-813D-BCFC1948A1E8";
name = "Bold Italic";
paths = (
{
closed = 1;
nodes = (
"77 0 LINE"
);
},
{
closed = 1;
nodes = (
"338 0 LINE",
"514 1446 LINE",
"253 1446 LINE",
"77 0 LINE"
);
},
{
closed = 1;
nodes = (
"834 1861 LINE",
"582 1861 LINE SMOOTH",
"570 1861 OFFCURVE",
"559.5 1860.67 OFFCURVE",
"550.5 1860 CURVE SMOOTH",
"541.5 1859.33 OFFCURVE",
"533.167 1857.67 OFFCURVE",
"525.5 1855 CURVE SMOOTH",
"517.833 1852.33 OFFCURVE",
"510.667 1848.17 OFFCURVE",
"504 1842.5 CURVE SMOOTH",
"497.333 1836.83 OFFCURVE",
"490.333 1829.33 OFFCURVE",
"483 1820 CURVE SMOOTH",
"260 1549 LINE",
"424 1549 LINE SMOOTH",
"441.333 1549 OFFCURVE",
"455.5 1550.33 OFFCURVE",
"466.5 1553 CURVE SMOOTH",
"477.5 1555.67 OFFCURVE",
"490 1563 OFFCURVE",
"504 1575 CURVE SMOOTH"
);
}
);
width = 564;
}
);
leftKerningGroup = B;
rightKerningGroup = H;
unicode = 00CD;
},
{
glyphname = Icircumflex;
layers = (
{
layerId = "EDEFDD19-C737-4BEE-813D-BCFC1948A1E8";
name = "Bold Italic";
paths = (
{
closed = 1;
nodes = (
"74 0 LINE"
);
},
{
closed = 1;
nodes = (
"338 0 LINE",
"514 1446 LINE",
"253 1446 LINE",
"77 0 LINE"
);
},
{
closed = 1;
nodes = (
"724 1549 LINE",
"533 1824 LINE",
"327 1824 LINE",
"74 1549 LINE",
"232 1549 LINE SMOOTH",
"241.333 1549 OFFCURVE",
"252.667 1550.83 OFFCURVE",
"266 1554.5 CURVE SMOOTH",
"279.333 1558.17 OFFCURVE",
"294.333 1569 OFFCURVE",
"311 1587 CURVE",
"398 1693 LINE",
"414 1715 LINE",
"416 1711.67 OFFCURVE",
"417.833 1708.17 OFFCURVE",
"419.5 1704.5 CURVE SMOOTH",
"421.167 1700.83 OFFCURVE",
"423.333 1697 OFFCURVE",
"426 1693 CURVE",
"489 1587 LINE SMOOTH",
"500.333 1569 OFFCURVE",
"512.5 1558.17 OFFCURVE",
"525.5 1554.5 CURVE SMOOTH",
"538.5 1550.83 OFFCURVE",
"549.667 1549 OFFCURVE",
"559 1549 CURVE SMOOTH"
);
}
);
width = 564;
}
);
leftKerningGroup = B;
rightKerningGroup = H;
unicode = 00CE;
},
{
glyphname = Idieresis;
layers = (
{
layerId = "EDEFDD19-C737-4BEE-813D-BCFC1948A1E8";
name = "Bold Italic";
paths = (
{
closed = 1;
nodes = (
"71 0 LINE"
);
},
{
closed = 1;
nodes = (
"338 0 LINE",
"514 1446 LINE",
"253 1446 LINE",
"77 0 LINE"
);
},
{
closed = 1;
nodes = (
"347 1683.67 OFFCURVE",
"343.333 1701.5 OFFCURVE",
"336 1718.5 CURVE SMOOTH",
"328.667 1735.5 OFFCURVE",
"318.5 1750.33 OFFCURVE",
"305.5 1763 CURVE SMOOTH",
"292.5 1775.67 OFFCURVE",
"277.5 1785.67 OFFCURVE",
"260.5 1793 CURVE SMOOTH",
"243.5 1800.33 OFFCURVE",
"225.667 1804 OFFCURVE",
"207 1804 CURVE SMOOTH",
"189 1804 OFFCURVE",
"171.833 1800.33 OFFCURVE",
"155.5 1793 CURVE SMOOTH",
"139.167 1785.67 OFFCURVE",
"124.667 1775.67 OFFCURVE",
"112 1763 CURVE SMOOTH",
"99.3333 1750.33 OFFCURVE",
"89.3333 1735.5 OFFCURVE",
"82 1718.5 CURVE SMOOTH",
"74.6667 1701.5 OFFCURVE",
"71 1683.67 OFFCURVE",
"71 1665 CURVE SMOOTH",
"71 1646.33 OFFCURVE",
"74.6667 1628.83 OFFCURVE",
"82 1612.5 CURVE SMOOTH",
"89.3333 1596.17 OFFCURVE",
"99.3333 1581.83 OFFCURVE",
"112 1569.5 CURVE SMOOTH",
"124.667 1557.17 OFFCURVE",
"139.167 1547.5 OFFCURVE",
"155.5 1540.5 CURVE SMOOTH",
"171.833 1533.5 OFFCURVE",
"189 1530 OFFCURVE",
"207 1530 CURVE SMOOTH",
"225.667 1530 OFFCURVE",
"243.5 1533.5 OFFCURVE",
"260.5 1540.5 CURVE SMOOTH",
"277.5 1547.5 OFFCURVE",
"292.5 1557.17 OFFCURVE",
"305.5 1569.5 CURVE SMOOTH",
"318.5 1581.83 OFFCURVE",
"328.667 1596.17 OFFCURVE",
"336 1612.5 CURVE SMOOTH",
"343.333 1628.83 OFFCURVE",
"347 1646.33 OFFCURVE",
"347 1665 CURVE SMOOTH"
);
},
{
closed = 1;
nodes = (
"746 1683.67 OFFCURVE",
"742.333 1701.5 OFFCURVE",
"735 1718.5 CURVE SMOOTH",
"727.667 1735.5 OFFCURVE",
"717.833 1750.33 OFFCURVE",
"705.5 1763 CURVE SMOOTH",
"693.167 1775.67 OFFCURVE",
"678.5 1785.67 OFFCURVE",
"661.5 1793 CURVE SMOOTH",
"644.5 1800.33 OFFCURVE",
"626.333 1804 OFFCURVE",
"607 1804 CURVE SMOOTH",
"588.333 1804 OFFCURVE",
"570.667 1800.33 OFFCURVE",
"554 1793 CURVE SMOOTH",
"537.333 1785.67 OFFCURVE",
"522.833 1775.67 OFFCURVE",
"510.5 1763 CURVE SMOOTH",
"498.167 1750.33 OFFCURVE",
"488.333 1735.5 OFFCURVE",
"481 1718.5 CURVE SMOOTH",
"473.667 1701.5 OFFCURVE",
"470 1683.67 OFFCURVE",
"470 1665 CURVE SMOOTH",
"470 1646.33 OFFCURVE",
"473.667 1628.83 OFFCURVE",
"481 1612.5 CURVE SMOOTH",
"488.333 1596.17 OFFCURVE",
"498.167 1581.83 OFFCURVE",
"510.5 1569.5 CURVE SMOOTH",
"522.833 1557.17 OFFCURVE",
"537.333 1547.5 OFFCURVE",
"554 1540.5 CURVE SMOOTH",
"570.667 1533.5 OFFCURVE",
"588.333 1530 OFFCURVE",
"607 1530 CURVE SMOOTH",
"626.333 1530 OFFCURVE",
"644.5 1533.5 OFFCURVE",
"661.5 1540.5 CURVE SMOOTH",
"678.5 1547.5 OFFCURVE",
"693.167 1557.17 OFFCURVE",
"705.5 1569.5 CURVE SMOOTH",
"717.833 1581.83 OFFCURVE",
"727.667 1596.17 OFFCURVE",
"735 1612.5 CURVE SMOOTH",
"742.333 1628.83 OFFCURVE",
"746 1646.33 OFFCURVE",
"746 1665 CURVE SMOOTH"
);
}
);
width = 564;
}
);
leftKerningGroup = B;
rightKerningGroup = H;
unicode = 00CF;
},
{
glyphname = Igrave;
layers = (
{
layerId = "EDEFDD19-C737-4BEE-813D-BCFC1948A1E8";
name = "Bold Italic";
paths = (
{
closed = 1;
nodes = (
"26 0 LINE"
);
},
{
closed = 1;
nodes = (
"338 0 LINE",
"514 1446 LINE",
"253 1446 LINE",
"77 0 LINE"
);
},
{
closed = 1;
nodes = (
"26 1861 LINE",
"287 1573 LINE SMOOTH",
"297.667 1561.67 OFFCURVE",
"307.833 1554.83 OFFCURVE",
"317.5 1552.5 CURVE SMOOTH",
"327.167 1550.17 OFFCURVE",
"341 1549 OFFCURVE",
"359 1549 CURVE SMOOTH",
"523 1549 LINE",
"354 1820 LINE SMOOTH",
"348 1829.33 OFFCURVE",
"342.333 1836.67 OFFCURVE",
"337 1842 CURVE SMOOTH",
"331.667 1847.33 OFFCURVE",
"325.667 1851.5 OFFCURVE",
"319 1854.5 CURVE SMOOTH",
"312.333 1857.5 OFFCURVE",
"304.5 1859.33 OFFCURVE",
"295.5 1860 CURVE SMOOTH",
"286.5 1860.67 OFFCURVE",
"276 1861 OFFCURVE",
"264 1861 CURVE SMOOTH"
);
}
);
width = 564;
}
);
leftKerningGroup = B;
rightKerningGroup = H;
unicode = 00CC;
},
{
glyphname = J;
layers = (
{
layerId = "EDEFDD19-C737-4BEE-813D-BCFC1948A1E8";
name = "Bold Italic";
paths = (
{
closed = 1;
nodes = (
"780 1446 LINE",
"521 1446 LINE",
"405 495 LINE SMOOTH",
"399 441 OFFCURVE",
"388.833 395.167 OFFCURVE",
"374.5 357.5 CURVE SMOOTH",
"360.167 319.833 OFFCURVE",
"342.667 289.167 OFFCURVE",
"322 265.5 CURVE SMOOTH",
"301.333 241.833 OFFCURVE",
"277.833 224.667 OFFCURVE",
"251.5 214 CURVE SMOOTH",
"225.167 203.333 OFFCURVE",
"196.667 198 OFFCURVE",
"166 198 CURVE SMOOTH",
"135.333 198 OFFCURVE",
"109.833 200.333 OFFCURVE",
"89.5 205 CURVE SMOOTH",
"69.1667 209.667 OFFCURVE",
"51.3333 212 OFFCURVE",
"36 212 CURVE SMOOTH",
"18.6667 212 OFFCURVE",
"5.99998 207.333 OFFCURVE",
"-2 198 CURVE SMOOTH",
"-10 188.667 OFFCURVE",
"-15 177 OFFCURVE",
"-17 163 CURVE SMOOTH",
"-36 11 LINE",
"-2 1.66667 OFFCURVE",
"31.1667 -5 OFFCURVE",
"63.5 -10 CURVE SMOOTH",
"95.8333 -14 OFFCURVE",
"130 -16 OFFCURVE",
"166 -16 CURVE SMOOTH",
"238.667 -16 OFFCURVE",
"303.667 -4 OFFCURVE",
"361 20 CURVE SMOOTH",
"418.333 44 OFFCURVE",
"467.833 78.1667 OFFCURVE",
"509.5 122.5 CURVE SMOOTH",
"551.167 166.833 OFFCURVE",
"585 221 OFFCURVE",
"611 285 CURVE SMOOTH",
"637 349 OFFCURVE",
"655 421 OFFCURVE",
"665 501 CURVE SMOOTH"
);
}
);
width = 818;
}
);
leftKerningGroup = J;
rightKerningGroup = J;
unicode = 004A;
},
{
glyphname = K;
layers = (
{
layerId = "EDEFDD19-C737-4BEE-813D-BCFC1948A1E8";
name = "Bold Italic";
paths = (
{
closed = 1;
nodes = (
"437 835 LINE",
"513 1447 LINE",
"253 1447 LINE",
"77 0 LINE",
"335 0 LINE",
"413 639 LINE",
"491 639 LINE SMOOTH",
"519.667 639 OFFCURVE",
"541.5 635.333 OFFCURVE",
"556.5 628 CURVE SMOOTH",
"571.5 620.667 OFFCURVE",
"583.333 608 OFFCURVE",
"592 590 CURVE",
"890 51 LINE",
"894 43 OFFCURVE",
"898.5 35.8333 OFFCURVE",
"903.5 29.5 CURVE SMOOTH",
"908.5 23.1667 OFFCURVE",
"914.833 17.8333 OFFCURVE",
"922.5 13.5 CURVE SMOOTH",
"930.167 9.16667 OFFCURVE",
"939.333 5.83333 OFFCURVE",
"950 3.5 CURVE SMOOTH",
"960.667 1.16667 OFFCURVE",
"973.667 0 OFFCURVE",
"989 0 CURVE SMOOTH",
"1218 0 LINE",
"850 677 LINE",
"838.667 700.333 OFFCURVE",
"825.5 718.833 OFFCURVE",
"810.5 732.5 CURVE SMOOTH",
"795.5 746.167 OFFCURVE",
"778.333 757 OFFCURVE",
"759 765 CURVE",
"775 772.333 OFFCURVE",
"790.333 782.167 OFFCURVE",
"805 794.5 CURVE SMOOTH",
"819.667 806.833 OFFCURVE",
"834.333 822.333 OFFCURVE",
"849 841 CURVE",
"1361 1446 LINE",
"1138 1446 LINE SMOOTH",
"1112 1446 OFFCURVE",
"1089.17 1442.17 OFFCURVE",
"1069.5 1434.5 CURVE SMOOTH",
"1049.83 1426.83 OFFCURVE",
"1031.67 1412 OFFCURVE",
"1015 1390 CURVE",
"597 880 LINE SMOOTH",
"583.667 864 OFFCURVE",
"568.833 852.5 OFFCURVE",
"552.5 845.5 CURVE SMOOTH",
"536.167 838.5 OFFCURVE",
"516.333 835 OFFCURVE",
"493 835 CURVE SMOOTH"
);
}
);
width = 1283;
}
);
leftKerningGroup = B;
rightKerningGroup = K;
unicode = 004B;
},
{
glyphname = L;
layers = (
{
layerId = "EDEFDD19-C737-4BEE-813D-BCFC1948A1E8";
name = "Bold Italic";
paths = (
{
closed = 1;
nodes = (
"362 215 LINE",
"514 1446 LINE",
"255 1446 LINE",
"77 0 LINE",
"863 0 LINE",
"888 215 LINE"
);
}
);
width = 966;
}
);
leftKerningGroup = B;
rightKerningGroup = L;
unicode = 004C;
},
{
glyphname = M;
layers = (
{
layerId = "EDEFDD19-C737-4BEE-813D-BCFC1948A1E8";
name = "Bold Italic";
paths = (
{
closed = 1;
nodes = (
"832 578 LINE",
"533 1404 LINE",
"527 1412.67 OFFCURVE",
"521.333 1419.83 OFFCURVE",
"516 1425.5 CURVE SMOOTH",
"510.667 1431.17 OFFCURVE",
"505 1435.5 OFFCURVE",
"499 1438.5 CURVE SMOOTH",
"493 1441.5 OFFCURVE",
"486.167 1443.5 OFFCURVE",
"478.5 1444.5 CURVE SMOOTH",
"470.833 1445.5 OFFCURVE",
"461.333 1446 OFFCURVE",
"450 1446 CURVE SMOOTH",
"255 1446 LINE",
"77 0 LINE",
"306 0 LINE",
"420 946 LINE",
"421.333 962 OFFCURVE",
"422.667 979.667 OFFCURVE",
"424 999 CURVE SMOOTH",
"425.333 1018.33 OFFCURVE",
"426.333 1038.33 OFFCURVE",
"427 1059 CURVE",
"725 236 LINE SMOOTH",
"731.667 217.333 OFFCURVE",
"742.5 203.333 OFFCURVE",
"757.5 194 CURVE SMOOTH",
"772.5 184.667 OFFCURVE",
"790 180 OFFCURVE",
"810 180 CURVE SMOOTH",
"846 180 LINE SMOOTH",
"866 180 OFFCURVE",
"884.5 184.667 OFFCURVE",
"901.5 194 CURVE SMOOTH",
"918.5 203.333 OFFCURVE",
"932.667 217.333 OFFCURVE",
"944 236 CURVE SMOOTH",
"1441 1060 LINE",
"1435.67 1038.67 OFFCURVE",
"1431.17 1017.83 OFFCURVE",
"1427.5 997.5 CURVE SMOOTH",
"1423.83 977.167 OFFCURVE",
"1421 958.667 OFFCURVE",
"1419 942 CURVE SMOOTH",
"1303 0 LINE",
"1531 0 LINE",
"1709 1446 LINE",
"1512 1446 LINE SMOOTH",
"1500.67 1446 OFFCURVE",
"1491 1445.5 OFFCURVE",
"1483 1444.5 CURVE SMOOTH",
"1475 1443.5 OFFCURVE",
"1467.67 1441.5 OFFCURVE",
"1461 1438.5 CURVE SMOOTH",
"1454.33 1435.5 OFFCURVE",
"1447.83 1431.17 OFFCURVE",
"1441.5 1425.5 CURVE SMOOTH",
"1435.17 1419.83 OFFCURVE",
"1428 1412.67 OFFCURVE",
"1420 1404 CURVE",
"918 578 LINE SMOOTH",
"907.333 560.667 OFFCURVE",
"897.333 543 OFFCURVE",
"888 525 CURVE SMOOTH",
"878.667 507 OFFCURVE",
"870 488.667 OFFCURVE",
"862 470 CURVE",
"857.333 488.667 OFFCURVE",
"852.667 507 OFFCURVE",
"848 525 CURVE SMOOTH",
"843.333 543 OFFCURVE",
"838 560.667 OFFCURVE",
"832 578 CURVE"
);
}
);
width = 1758;
}
);
leftKerningGroup = B;
rightKerningGroup = H;
unicode = 004D;
},
{
glyphname = N;
layers = (
{
layerId = "EDEFDD19-C737-4BEE-813D-BCFC1948A1E8";
name = "Bold Italic";
paths = (
{
closed = 1;
nodes = (
"391 1446 LINE",
"255 1446 LINE",
"77 0 LINE",
"306 0 LINE",
"420 943 LINE SMOOTH",
"421.333 956.333 OFFCURVE",
"422.667 970.5 OFFCURVE",
"424 985.5 CURVE SMOOTH",
"425.333 1000.5 OFFCURVE",
"426.667 1016 OFFCURVE",
"428 1032 CURVE",
"988 45 LINE",
"999.333 29 OFFCURVE",
"1011.5 17.5 OFFCURVE",
"1024.5 10.5 CURVE SMOOTH",
"1037.5 3.5 OFFCURVE",
"1054 0 OFFCURVE",
"1074 0 CURVE SMOOTH",
"1208 0 LINE",
"1386 1446 LINE",
"1157 1446 LINE",
"1044 525 LINE SMOOTH",
"1042 509 OFFCURVE",
"1040.17 491.833 OFFCURVE",
"1038.5 473.5 CURVE SMOOTH",
"1036.83 455.167 OFFCURVE",
"1035.33 436.333 OFFCURVE",
"1034 417 CURVE",
"471 1404 LINE SMOOTH",
"465.667 1413.33 OFFCURVE",
"460.667 1420.67 OFFCURVE",
"456 1426 CURVE SMOOTH",
"451.333 1431.33 OFFCURVE",
"446 1435.5 OFFCURVE",
"440 1438.5 CURVE SMOOTH",
"434 1441.5 OFFCURVE",
"427.167 1443.5 OFFCURVE",
"419.5 1444.5 CURVE SMOOTH",
"411.833 1445.5 OFFCURVE",
"402.333 1446 OFFCURVE",
"391 1446 CURVE SMOOTH"
);
}
);
width = 1435;
}
);
leftKerningGroup = B;
rightKerningGroup = H;
unicode = 004E;
},
{
glyphname = Ntilde;
layers = (
{
layerId = "EDEFDD19-C737-4BEE-813D-BCFC1948A1E8";
name = "Bold Italic";
paths = (
{
closed = 1;
nodes = (
"255 1446 LINE",
"77 0 LINE",
"306 0 LINE",
"420 943 LINE SMOOTH",
"421.333 956.333 OFFCURVE",
"422.667 970.5 OFFCURVE",
"424 985.5 CURVE SMOOTH",
"425.333 1000.5 OFFCURVE",
"426.667 1016 OFFCURVE",
"428 1032 CURVE",
"988 45 LINE",
"999.333 29 OFFCURVE",
"1011.5 17.5 OFFCURVE",
"1024.5 10.5 CURVE SMOOTH",
"1037.5 3.5 OFFCURVE",
"1054 0 OFFCURVE",
"1074 0 CURVE SMOOTH",
"1208 0 LINE",
"1386 1446 LINE",
"1157 1446 LINE",
"1044 525 LINE SMOOTH",
"1042 509 OFFCURVE",
"1040.17 491.833 OFFCURVE",
"1038.5 473.5 CURVE SMOOTH",
"1036.83 455.167 OFFCURVE",
"1035.33 436.333 OFFCURVE",
"1034 417 CURVE",
"471 1404 LINE SMOOTH",
"465.667 1413.33 OFFCURVE",
"460.667 1420.67 OFFCURVE",
"456 1426 CURVE SMOOTH",
"451.333 1431.33 OFFCURVE",
"446 1435.5 OFFCURVE",
"440 1438.5 CURVE SMOOTH",
"434 1441.5 OFFCURVE",
"427.167 1443.5 OFFCURVE",
"419.5 1444.5 CURVE SMOOTH",
"411.833 1445.5 OFFCURVE",
"402.333 1446 OFFCURVE",
"391 1446 CURVE SMOOTH"
);
},
{
closed = 1;
nodes = (
"945.333 1699 OFFCURVE",
"929.667 1704.33 OFFCURVE",
"915 1715 CURVE SMOOTH",
"900.333 1725.67 OFFCURVE",
"884.5 1737.17 OFFCURVE",
"867.5 1749.5 CURVE SMOOTH",
"850.5 1761.83 OFFCURVE",
"830.833 1773.33 OFFCURVE",
"808.5 1784 CURVE SMOOTH",
"786.167 1794.67 OFFCURVE",
"759.333 1800 OFFCURVE",
"728 1800 CURVE SMOOTH",
"697.333 1800 OFFCURVE",
"669.5 1792.83 OFFCURVE",
"644.5 1778.5 CURVE SMOOTH",
"619.5 1764.17 OFFCURVE",
"597.5 1745.17 OFFCURVE",
"578.5 1721.5 CURVE SMOOTH",
"559.5 1697.83 OFFCURVE",
"544 1670.5 OFFCURVE",
"532 1639.5 CURVE SMOOTH",
"520 1608.5 OFFCURVE",
"512 1576.67 OFFCURVE",
"508 1544 CURVE",
"649 1544 LINE",
"650.333 1554.67 OFFCURVE",
"653.167 1565.67 OFFCURVE",
"657.5 1577 CURVE SMOOTH",
"661.833 1588.33 OFFCURVE",
"667.667 1598.67 OFFCURVE",
"675 1608 CURVE SMOOTH",
"682.333 1617.33 OFFCURVE",
"691.167 1625 OFFCURVE",
"701.5 1631 CURVE SMOOTH",
"711.833 1637 OFFCURVE",
"724 1640 OFFCURVE",
"738 1640 CURVE SMOOTH",
"754.667 1640 OFFCURVE",
"770.333 1634.67 OFFCURVE",
"785 1624 CURVE SMOOTH",
"799.667 1613.33 OFFCURVE",
"815.667 1601.83 OFFCURVE",
"833 1589.5 CURVE SMOOTH",
"850.333 1577.17 OFFCURVE",
"869.833 1565.67 OFFCURVE",
"891.5 1555 CURVE SMOOTH",
"913.167 1544.33 OFFCURVE",
"939.667 1539 OFFCURVE",
"971 1539 CURVE SMOOTH",
"1001.67 1539 OFFCURVE",
"1029.67 1546 OFFCURVE",
"1055 1560 CURVE SMOOTH",
"1080.33 1574 OFFCURVE",
"1102.33 1592.83 OFFCURVE",
"1121 1616.5 CURVE SMOOTH",
"1139.67 1640.17 OFFCURVE",
"1154.83 1667.17 OFFCURVE",
"1166.5 1697.5 CURVE SMOOTH",
"1178.17 1727.83 OFFCURVE",
"1186 1759.67 OFFCURVE",
"1190 1793 CURVE",
"1052 1793 LINE",
"1050.67 1782.33 OFFCURVE",
"1047.67 1771.5 OFFCURVE",
"1043 1760.5 CURVE SMOOTH",
"1038.33 1749.5 OFFCURVE",
"1032.33 1739.5 OFFCURVE",
"1025 1730.5 CURVE SMOOTH",
"1017.67 1721.5 OFFCURVE",
"1008.67 1714 OFFCURVE",
"998 1708 CURVE SMOOTH",
"987.333 1702 OFFCURVE",
"975.333 1699 OFFCURVE",
"962 1699 CURVE SMOOTH"
);
}
);
width = 1435;
}
);
leftKerningGroup = B;
rightKerningGroup = H;
unicode = 00D1;
},
{
glyphname = O;
layers = (
{
layerId = "EDEFDD19-C737-4BEE-813D-BCFC1948A1E8";
name = "Bold Italic";
paths = (
{
closed = 1;
nodes = (
"1453 911.333 OFFCURVE",
"1439.33 996.167 OFFCURVE",
"1412 1074.5 CURVE SMOOTH",
"1384.67 1152.83 OFFCURVE",
"1345.33 1220.67 OFFCURVE",
"1294 1278 CURVE SMOOTH",
"1242.67 1335.33 OFFCURVE",
"1180.33 1380.33 OFFCURVE",
"1107 1413 CURVE SMOOTH",
"1033.67 1445.67 OFFCURVE",
"951 1462 OFFCURVE",
"859 1462 CURVE SMOOTH",
"784.333 1462 OFFCURVE",
"713.333 1452.5 OFFCURVE",
"646 1433.5 CURVE SMOOTH",
"578.666 1414.5 OFFCURVE",
"516.166 1387.17 OFFCURVE",
"458.5 1351.5 CURVE SMOOTH",
"400.833 1315.83 OFFCURVE",
"348.833 1273 OFFCURVE",
"302.5 1223 CURVE SMOOTH",
"256.166 1173 OFFCURVE",
"216.5 1117 OFFCURVE",
"183.5 1055 CURVE SMOOTH",
"150.5 993 OFFCURVE",
"125.166 925.833 OFFCURVE",
"107.5 853.5 CURVE SMOOTH",
"89.833 781.167 OFFCURVE",
"80.9997 705 OFFCURVE",
"80.9997 625 CURVE SMOOTH",
"80.9997 533.667 OFFCURVE",
"94.6664 449 OFFCURVE",
"122 371 CURVE SMOOTH",
"149.333 293 OFFCURVE",
"188.833 225.333 OFFCURVE",
"240.5 168 CURVE SMOOTH",
"292.166 110.667 OFFCURVE",
"354.666 65.6668 OFFCURVE",
"428 33 CURVE SMOOTH",
"501.333 0.33345 OFFCURVE",
"584 -16 OFFCURVE",
"676 -16 CURVE SMOOTH",
"750 -16 OFFCURVE",
"820.666 -6 OFFCURVE",
"888 12.5001 CURVE SMOOTH",
"955.333 31.5001 OFFCURVE",
"1017.83 58.6668 OFFCURVE",
"1075.5 94 CURVE SMOOTH",
"1133.17 129.333 OFFCURVE",
"1185.33 172 OFFCURVE",
"1232 222 CURVE SMOOTH",
"1278.67 272 OFFCURVE",
"1318.33 328 OFFCURVE",
"1351 390 CURVE SMOOTH",
"1383.67 452 OFFCURVE",
"1408.83 519.167 OFFCURVE",
"1426.5 591.5 CURVE SMOOTH",
"1444.17 663.833 OFFCURVE",
"1453 740 OFFCURVE",
"1453 820 CURVE SMOOTH"
);
},
{
closed = 1;
nodes = (
"1187 720.667 OFFCURVE",
"1175.5 636.167 OFFCURVE",
"1152.5 560.5 CURVE SMOOTH",
"1129.5 484.833 OFFCURVE",
"1097 420.333 OFFCURVE",
"1055 367 CURVE SMOOTH",
"1013 313.667 OFFCURVE",
"962.333 272.333 OFFCURVE",
"902.999 243 CURVE SMOOTH",
"843.666 213.667 OFFCURVE",
"777.666 199 OFFCURVE",
"704.999 199 CURVE SMOOTH",
"648.333 199 OFFCURVE",
"597.833 209.167 OFFCURVE",
"553.499 229.5 CURVE SMOOTH",
"509.166 249.833 OFFCURVE",
"471.666 278.833 OFFCURVE",
"440.999 316.5 CURVE SMOOTH",
"410.333 354.167 OFFCURVE",
"386.999 399.667 OFFCURVE",
"370.999 453 CURVE SMOOTH",
"354.999 506.333 OFFCURVE",
"346.999 565.667 OFFCURVE",
"346.999 631 CURVE SMOOTH",
"346.999 723.667 OFFCURVE",
"358.499 808 OFFCURVE",
"381.499 884 CURVE SMOOTH",
"404.499 960 OFFCURVE",
"436.999 1025 OFFCURVE",
"478.999 1079 CURVE SMOOTH",
"520.999 1133 OFFCURVE",
"571.499 1174.67 OFFCURVE",
"630.499 1204 CURVE SMOOTH",
"689.499 1233.33 OFFCURVE",
"754.999 1248 OFFCURVE",
"826.999 1248 CURVE SMOOTH",
"882.999 1248 OFFCURVE",
"933.333 1237.67 OFFCURVE",
"977.999 1217 CURVE SMOOTH",
"1022.67 1196.33 OFFCURVE",
"1060.5 1167 OFFCURVE",
"1091.5 1129 CURVE SMOOTH",
"1122.5 1091 OFFCURVE",
"1146.17 1045.33 OFFCURVE",
"1162.5 992 CURVE SMOOTH",
"1178.83 938.667 OFFCURVE",
"1187 879.333 OFFCURVE",
"1187 814 CURVE SMOOTH"
);
}
);
width = 1506;
}
);
leftKerningGroup = C;
rightKerningGroup = O;
unicode = 004F;
},
{
glyphname = Oacute;
layers = (
{
layerId = "EDEFDD19-C737-4BEE-813D-BCFC1948A1E8";
name = "Bold Italic";
paths = (
{
closed = 1;
nodes = (
"81 0 LINE"
);
},
{
closed = 1;
nodes = (
"1453 911.333 OFFCURVE",
"1439.33 996.167 OFFCURVE",
"1412 1074.5 CURVE SMOOTH",
"1384.67 1152.83 OFFCURVE",
"1345.33 1220.67 OFFCURVE",
"1294 1278 CURVE SMOOTH",
"1242.67 1335.33 OFFCURVE",
"1180.33 1380.33 OFFCURVE",
"1107 1413 CURVE SMOOTH",
"1033.67 1445.67 OFFCURVE",
"951 1462 OFFCURVE",
"859 1462 CURVE SMOOTH",
"784.333 1462 OFFCURVE",
"713.333 1452.5 OFFCURVE",
"646 1433.5 CURVE SMOOTH",
"578.666 1414.5 OFFCURVE",
"516.166 1387.17 OFFCURVE",
"458.5 1351.5 CURVE SMOOTH",
"400.833 1315.83 OFFCURVE",
"348.833 1273 OFFCURVE",
"302.5 1223 CURVE SMOOTH",
"256.166 1173 OFFCURVE",
"216.5 1117 OFFCURVE",
"183.5 1055 CURVE SMOOTH",
"150.5 993 OFFCURVE",
"125.166 925.833 OFFCURVE",
"107.5 853.5 CURVE SMOOTH",
"89.833 781.167 OFFCURVE",
"80.9997 705 OFFCURVE",
"80.9997 625 CURVE SMOOTH",
"80.9997 533.667 OFFCURVE",
"94.6664 449 OFFCURVE",
"122 371 CURVE SMOOTH",
"149.333 293 OFFCURVE",
"188.833 225.333 OFFCURVE",
"240.5 168 CURVE SMOOTH",
"292.166 110.667 OFFCURVE",
"354.666 65.6668 OFFCURVE",
"428 33 CURVE SMOOTH",
"501.333 0.33345 OFFCURVE",
"584 -16 OFFCURVE",
"676 -16 CURVE SMOOTH",
"750 -16 OFFCURVE",
"820.666 -6 OFFCURVE",
"888 12.5001 CURVE SMOOTH",
"955.333 31.5001 OFFCURVE",
"1017.83 58.6668 OFFCURVE",
"1075.5 94 CURVE SMOOTH",
"1133.17 129.333 OFFCURVE",
"1185.33 172 OFFCURVE",
"1232 222 CURVE SMOOTH",
"1278.67 272 OFFCURVE",
"1318.33 328 OFFCURVE",
"1351 390 CURVE SMOOTH",
"1383.67 452 OFFCURVE",
"1408.83 519.167 OFFCURVE",
"1426.5 591.5 CURVE SMOOTH",
"1444.17 663.833 OFFCURVE",
"1453 740 OFFCURVE",
"1453 820 CURVE SMOOTH"
);
},
{
closed = 1;
nodes = (
"1187 720.667 OFFCURVE",
"1175.5 636.167 OFFCURVE",
"1152.5 560.5 CURVE SMOOTH",
"1129.5 484.833 OFFCURVE",
"1097 420.333 OFFCURVE",
"1055 367 CURVE SMOOTH",
"1013 313.667 OFFCURVE",
"962.333 272.333 OFFCURVE",
"902.999 243 CURVE SMOOTH",
"843.666 213.667 OFFCURVE",
"777.666 199 OFFCURVE",
"704.999 199 CURVE SMOOTH",
"648.333 199 OFFCURVE",
"597.833 209.167 OFFCURVE",
"553.499 229.5 CURVE SMOOTH",
"509.166 249.833 OFFCURVE",
"471.666 278.833 OFFCURVE",
"440.999 316.5 CURVE SMOOTH",
"410.333 354.167 OFFCURVE",
"386.999 399.667 OFFCURVE",
"370.999 453 CURVE SMOOTH",
"354.999 506.333 OFFCURVE",
"346.999 565.667 OFFCURVE",
"346.999 631 CURVE SMOOTH",
"346.999 723.667 OFFCURVE",
"358.499 808 OFFCURVE",
"381.499 884 CURVE SMOOTH",
"404.499 960 OFFCURVE",
"436.999 1025 OFFCURVE",
"478.999 1079 CURVE SMOOTH",
"520.999 1133 OFFCURVE",
"571.499 1174.67 OFFCURVE",
"630.499 1204 CURVE SMOOTH",
"689.499 1233.33 OFFCURVE",
"754.999 1248 OFFCURVE",
"826.999 1248 CURVE SMOOTH",
"882.999 1248 OFFCURVE",
"933.333 1237.67 OFFCURVE",
"977.999 1217 CURVE SMOOTH",
"1022.67 1196.33 OFFCURVE",
"1060.5 1167 OFFCURVE",
"1091.5 1129 CURVE SMOOTH",
"1122.5 1091 OFFCURVE",
"1146.17 1045.33 OFFCURVE",
"1162.5 992 CURVE SMOOTH",
"1178.83 938.667 OFFCURVE",
"1187 879.333 OFFCURVE",
"1187 814 CURVE SMOOTH"
);
},
{
closed = 1;
nodes = (
"1297 1861 LINE",
"1045 1861 LINE SMOOTH",
"1033 1861 OFFCURVE",
"1022.5 1860.67 OFFCURVE",
"1013.5 1860 CURVE SMOOTH",
"1004.5 1859.33 OFFCURVE",
"996.166 1857.67 OFFCURVE",
"988.499 1855 CURVE SMOOTH",
"980.833 1852.33 OFFCURVE",
"973.666 1848.17 OFFCURVE",
"966.999 1842.5 CURVE SMOOTH",
"960.333 1836.83 OFFCURVE",
"953.333 1829.33 OFFCURVE",
"945.999 1820 CURVE SMOOTH",
"722.999 1549 LINE",
"886.999 1549 LINE SMOOTH",
"904.333 1549 OFFCURVE",
"918.499 1550.33 OFFCURVE",
"929.499 1553 CURVE SMOOTH",
"940.499 1555.67 OFFCURVE",
"952.999 1563 OFFCURVE",
"966.999 1575 CURVE SMOOTH"
);
}
);
width = 1506;
}
);
leftKerningGroup = C;
rightKerningGroup = O;
unicode = 00D3;
},
{
glyphname = Ocircumflex;
layers = (
{
layerId = "EDEFDD19-C737-4BEE-813D-BCFC1948A1E8";
name = "Bold Italic";
paths = (
{
closed = 1;
nodes = (
"81 0 LINE"
);
},
{
closed = 1;
nodes = (
"1453 911.333 OFFCURVE",
"1439.33 996.167 OFFCURVE",
"1412 1074.5 CURVE SMOOTH",
"1384.67 1152.83 OFFCURVE",
"1345.33 1220.67 OFFCURVE",
"1294 1278 CURVE SMOOTH",
"1242.67 1335.33 OFFCURVE",
"1180.33 1380.33 OFFCURVE",
"1107 1413 CURVE SMOOTH",
"1033.67 1445.67 OFFCURVE",
"951 1462 OFFCURVE",
"859 1462 CURVE SMOOTH",
"784.333 1462 OFFCURVE",
"713.333 1452.5 OFFCURVE",
"646 1433.5 CURVE SMOOTH",
"578.666 1414.5 OFFCURVE",
"516.166 1387.17 OFFCURVE",
"458.5 1351.5 CURVE SMOOTH",
"400.833 1315.83 OFFCURVE",
"348.833 1273 OFFCURVE",
"302.5 1223 CURVE SMOOTH",
"256.166 1173 OFFCURVE",
"216.5 1117 OFFCURVE",
"183.5 1055 CURVE SMOOTH",
"150.5 993 OFFCURVE",
"125.166 925.833 OFFCURVE",
"107.5 853.5 CURVE SMOOTH",
"89.833 781.167 OFFCURVE",
"80.9997 705 OFFCURVE",
"80.9997 625 CURVE SMOOTH",
"80.9997 533.667 OFFCURVE",
"94.6664 449 OFFCURVE",
"122 371 CURVE SMOOTH",
"149.333 293 OFFCURVE",
"188.833 225.333 OFFCURVE",
"240.5 168 CURVE SMOOTH",
"292.166 110.667 OFFCURVE",
"354.666 65.6668 OFFCURVE",
"428 33 CURVE SMOOTH",
"501.333 0.33345 OFFCURVE",
"584 -16 OFFCURVE",
"676 -16 CURVE SMOOTH",
"750 -16 OFFCURVE",
"820.666 -6 OFFCURVE",
"888 12.5001 CURVE SMOOTH",
"955.333 31.5001 OFFCURVE",
"1017.83 58.6668 OFFCURVE",
"1075.5 94 CURVE SMOOTH",
"1133.17 129.333 OFFCURVE",
"1185.33 172 OFFCURVE",
"1232 222 CURVE SMOOTH",
"1278.67 272 OFFCURVE",
"1318.33 328 OFFCURVE",
"1351 390 CURVE SMOOTH",
"1383.67 452 OFFCURVE",
"1408.83 519.167 OFFCURVE",
"1426.5 591.5 CURVE SMOOTH",
"1444.17 663.833 OFFCURVE",
"1453 740 OFFCURVE",
"1453 820 CURVE SMOOTH"
);
},
{
closed = 1;
nodes = (
"1187 720.667 OFFCURVE",
"1175.5 636.167 OFFCURVE",
"1152.5 560.5 CURVE SMOOTH",
"1129.5 484.833 OFFCURVE",
"1097 420.333 OFFCURVE",
"1055 367 CURVE SMOOTH",
"1013 313.667 OFFCURVE",
"962.333 272.333 OFFCURVE",
"902.999 243 CURVE SMOOTH",
"843.666 213.667 OFFCURVE",
"777.666 199 OFFCURVE",
"704.999 199 CURVE SMOOTH",
"648.333 199 OFFCURVE",
"597.833 209.167 OFFCURVE",
"553.499 229.5 CURVE SMOOTH",
"509.166 249.833 OFFCURVE",
"471.666 278.833 OFFCURVE",
"440.999 316.5 CURVE SMOOTH",
"410.333 354.167 OFFCURVE",
"386.999 399.667 OFFCURVE",
"370.999 453 CURVE SMOOTH",
"354.999 506.333 OFFCURVE",
"346.999 565.667 OFFCURVE",
"346.999 631 CURVE SMOOTH",
"346.999 723.667 OFFCURVE",
"358.499 808 OFFCURVE",
"381.499 884 CURVE SMOOTH",
"404.499 960 OFFCURVE",
"436.999 1025 OFFCURVE",
"478.999 1079 CURVE SMOOTH",
"520.999 1133 OFFCURVE",
"571.499 1174.67 OFFCURVE",
"630.499 1204 CURVE SMOOTH",
"689.499 1233.33 OFFCURVE",
"754.999 1248 OFFCURVE",
"826.999 1248 CURVE SMOOTH",
"882.999 1248 OFFCURVE",
"933.333 1237.67 OFFCURVE",
"977.999 1217 CURVE SMOOTH",
"1022.67 1196.33 OFFCURVE",
"1060.5 1167 OFFCURVE",
"1091.5 1129 CURVE SMOOTH",
"1122.5 1091 OFFCURVE",
"1146.17 1045.33 OFFCURVE",
"1162.5 992 CURVE SMOOTH",
"1178.83 938.667 OFFCURVE",
"1187 879.333 OFFCURVE",
"1187 814 CURVE SMOOTH"
);
},
{
closed = 1;
nodes = (
"1194 1549 LINE",
"1003 1824 LINE",
"796.999 1824 LINE",
"543.999 1549 LINE",
"701.999 1549 LINE SMOOTH",
"711.333 1549 OFFCURVE",
"722.666 1550.83 OFFCURVE",
"735.999 1554.5 CURVE SMOOTH",
"749.333 1558.17 OFFCURVE",
"764.333 1569 OFFCURVE",
"780.999 1587 CURVE",
"867.999 1693 LINE",
"883.999 1715 LINE",
"885.999 1711.67 OFFCURVE",
"887.833 1708.17 OFFCURVE",
"889.499 1704.5 CURVE SMOOTH",
"891.166 1700.83 OFFCURVE",
"893.333 1697 OFFCURVE",
"895.999 1693 CURVE",
"958.999 1587 LINE SMOOTH",
"970.333 1569 OFFCURVE",
"982.499 1558.17 OFFCURVE",
"995.499 1554.5 CURVE SMOOTH",
"1008.5 1550.83 OFFCURVE",
"1019.67 1549 OFFCURVE",
"1029 1549 CURVE SMOOTH"
);
}
);
width = 1506;
}
);
leftKerningGroup = C;
rightKerningGroup = O;
unicode = 00D4;
},
{
glyphname = Odieresis;
layers = (
{
layerId = "EDEFDD19-C737-4BEE-813D-BCFC1948A1E8";
name = "Bold Italic";
paths = (
{
closed = 1;
nodes = (
"81 0 LINE"
);
},
{
closed = 1;
nodes = (
"1453 911.333 OFFCURVE",
"1439.33 996.167 OFFCURVE",
"1412 1074.5 CURVE SMOOTH",
"1384.67 1152.83 OFFCURVE",
"1345.33 1220.67 OFFCURVE",
"1294 1278 CURVE SMOOTH",
"1242.67 1335.33 OFFCURVE",
"1180.33 1380.33 OFFCURVE",
"1107 1413 CURVE SMOOTH",
"1033.67 1445.67 OFFCURVE",
"951 1462 OFFCURVE",
"859 1462 CURVE SMOOTH",
"784.333 1462 OFFCURVE",
"713.333 1452.5 OFFCURVE",
"646 1433.5 CURVE SMOOTH",
"578.666 1414.5 OFFCURVE",
"516.166 1387.17 OFFCURVE",
"458.5 1351.5 CURVE SMOOTH",
"400.833 1315.83 OFFCURVE",
"348.833 1273 OFFCURVE",
"302.5 1223 CURVE SMOOTH",
"256.166 1173 OFFCURVE",
"216.5 1117 OFFCURVE",
"183.5 1055 CURVE SMOOTH",
"150.5 993 OFFCURVE",
"125.166 925.833 OFFCURVE",
"107.5 853.5 CURVE SMOOTH",
"89.833 781.167 OFFCURVE",
"80.9997 705 OFFCURVE",
"80.9997 625 CURVE SMOOTH",
"80.9997 533.667 OFFCURVE",
"94.6664 449 OFFCURVE",
"122 371 CURVE SMOOTH",
"149.333 293 OFFCURVE",
"188.833 225.333 OFFCURVE",
"240.5 168 CURVE SMOOTH",
"292.166 110.667 OFFCURVE",
"354.666 65.6668 OFFCURVE",
"428 33 CURVE SMOOTH",
"501.333 0.33345 OFFCURVE",
"584 -16 OFFCURVE",
"676 -16 CURVE SMOOTH",
"750 -16 OFFCURVE",
"820.666 -6 OFFCURVE",
"888 12.5001 CURVE SMOOTH",
"955.333 31.5001 OFFCURVE",
"1017.83 58.6668 OFFCURVE",
"1075.5 94 CURVE SMOOTH",
"1133.17 129.333 OFFCURVE",
"1185.33 172 OFFCURVE",
"1232 222 CURVE SMOOTH",
"1278.67 272 OFFCURVE",
"1318.33 328 OFFCURVE",
"1351 390 CURVE SMOOTH",
"1383.67 452 OFFCURVE",
"1408.83 519.167 OFFCURVE",
"1426.5 591.5 CURVE SMOOTH",
"1444.17 663.833 OFFCURVE",
"1453 740 OFFCURVE",
"1453 820 CURVE SMOOTH"
);
},
{
closed = 1;
nodes = (
"1187 720.667 OFFCURVE",
"1175.5 636.167 OFFCURVE",
"1152.5 560.5 CURVE SMOOTH",
"1129.5 484.833 OFFCURVE",
"1097 420.333 OFFCURVE",
"1055 367 CURVE SMOOTH",
"1013 313.667 OFFCURVE",
"962.333 272.333 OFFCURVE",
"902.999 243 CURVE SMOOTH",
"843.666 213.667 OFFCURVE",
"777.666 199 OFFCURVE",
"704.999 199 CURVE SMOOTH",
"648.333 199 OFFCURVE",
"597.833 209.167 OFFCURVE",
"553.499 229.5 CURVE SMOOTH",
"509.166 249.833 OFFCURVE",
"471.666 278.833 OFFCURVE",
"440.999 316.5 CURVE SMOOTH",
"410.333 354.167 OFFCURVE",
"386.999 399.667 OFFCURVE",
"370.999 453 CURVE SMOOTH",
"354.999 506.333 OFFCURVE",
"346.999 565.667 OFFCURVE",
"346.999 631 CURVE SMOOTH",
"346.999 723.667 OFFCURVE",
"358.499 808 OFFCURVE",
"381.499 884 CURVE SMOOTH",
"404.499 960 OFFCURVE",
"436.999 1025 OFFCURVE",
"478.999 1079 CURVE SMOOTH",
"520.999 1133 OFFCURVE",
"571.499 1174.67 OFFCURVE",
"630.499 1204 CURVE SMOOTH",
"689.499 1233.33 OFFCURVE",
"754.999 1248 OFFCURVE",
"826.999 1248 CURVE SMOOTH",
"882.999 1248 OFFCURVE",
"933.333 1237.67 OFFCURVE",
"977.999 1217 CURVE SMOOTH",
"1022.67 1196.33 OFFCURVE",
"1060.5 1167 OFFCURVE",
"1091.5 1129 CURVE SMOOTH",
"1122.5 1091 OFFCURVE",
"1146.17 1045.33 OFFCURVE",
"1162.5 992 CURVE SMOOTH",
"1178.83 938.667 OFFCURVE",
"1187 879.333 OFFCURVE",
"1187 814 CURVE SMOOTH"
);
},
{
closed = 1;
nodes = (
"841.999 1683.67 OFFCURVE",
"838.333 1701.5 OFFCURVE",
"830.999 1718.5 CURVE SMOOTH",
"823.666 1735.5 OFFCURVE",
"813.499 1750.33 OFFCURVE",
"800.499 1763 CURVE SMOOTH",
"787.499 1775.67 OFFCURVE",
"772.499 1785.67 OFFCURVE",
"755.499 1793 CURVE SMOOTH",
"738.499 1800.33 OFFCURVE",
"720.666 1804 OFFCURVE",
"701.999 1804 CURVE SMOOTH",
"683.999 1804 OFFCURVE",
"666.833 1800.33 OFFCURVE",
"650.499 1793 CURVE SMOOTH",
"634.166 1785.67 OFFCURVE",
"619.666 1775.67 OFFCURVE",
"606.999 1763 CURVE SMOOTH",
"594.333 1750.33 OFFCURVE",
"584.333 1735.5 OFFCURVE",
"576.999 1718.5 CURVE SMOOTH",
"569.666 1701.5 OFFCURVE",
"565.999 1683.67 OFFCURVE",
"565.999 1665 CURVE SMOOTH",
"565.999 1646.33 OFFCURVE",
"569.666 1628.83 OFFCURVE",
"576.999 1612.5 CURVE SMOOTH",
"584.333 1596.17 OFFCURVE",
"594.333 1581.83 OFFCURVE",
"606.999 1569.5 CURVE SMOOTH",
"619.666 1557.17 OFFCURVE",
"634.166 1547.5 OFFCURVE",
"650.499 1540.5 CURVE SMOOTH",
"666.833 1533.5 OFFCURVE",
"683.999 1530 OFFCURVE",
"701.999 1530 CURVE SMOOTH",
"720.666 1530 OFFCURVE",
"738.499 1533.5 OFFCURVE",
"755.499 1540.5 CURVE SMOOTH",
"772.499 1547.5 OFFCURVE",
"787.499 1557.17 OFFCURVE",
"800.499 1569.5 CURVE SMOOTH",
"813.499 1581.83 OFFCURVE",
"823.666 1596.17 OFFCURVE",
"830.999 1612.5 CURVE SMOOTH",
"838.333 1628.83 OFFCURVE",
"841.999 1646.33 OFFCURVE",
"841.999 1665 CURVE SMOOTH"
);
},
{
closed = 1;
nodes = (
"1241 1683.67 OFFCURVE",
"1237.33 1701.5 OFFCURVE",
"1230 1718.5 CURVE SMOOTH",
"1222.67 1735.5 OFFCURVE",
"1212.83 1750.33 OFFCURVE",
"1200.5 1763 CURVE SMOOTH",
"1188.17 1775.67 OFFCURVE",
"1173.5 1785.67 OFFCURVE",
"1156.5 1793 CURVE SMOOTH",
"1139.5 1800.33 OFFCURVE",
"1121.33 1804 OFFCURVE",
"1102 1804 CURVE SMOOTH",
"1083.33 1804 OFFCURVE",
"1065.67 1800.33 OFFCURVE",
"1049 1793 CURVE SMOOTH",
"1032.33 1785.67 OFFCURVE",
"1017.83 1775.67 OFFCURVE",
"1005.5 1763 CURVE SMOOTH",
"993.166 1750.33 OFFCURVE",
"983.333 1735.5 OFFCURVE",
"975.999 1718.5 CURVE SMOOTH",
"968.666 1701.5 OFFCURVE",
"964.999 1683.67 OFFCURVE",
"964.999 1665 CURVE SMOOTH",
"964.999 1646.33 OFFCURVE",
"968.666 1628.83 OFFCURVE",
"975.999 1612.5 CURVE SMOOTH",
"983.333 1596.17 OFFCURVE",
"993.166 1581.83 OFFCURVE",
"1005.5 1569.5 CURVE SMOOTH",
"1017.83 1557.17 OFFCURVE",
"1032.33 1547.5 OFFCURVE",
"1049 1540.5 CURVE SMOOTH",
"1065.67 1533.5 OFFCURVE",
"1083.33 1530 OFFCURVE",
"1102 1530 CURVE SMOOTH",
"1121.33 1530 OFFCURVE",
"1139.5 1533.5 OFFCURVE",
"1156.5 1540.5 CURVE SMOOTH",
"1173.5 1547.5 OFFCURVE",
"1188.17 1557.17 OFFCURVE",
"1200.5 1569.5 CURVE SMOOTH",
"1212.83 1581.83 OFFCURVE",
"1222.67 1596.17 OFFCURVE",
"1230 1612.5 CURVE SMOOTH",
"1237.33 1628.83 OFFCURVE",
"1241 1646.33 OFFCURVE",
"1241 1665 CURVE SMOOTH"
);
}
);
width = 1506;
}
);
leftKerningGroup = C;
rightKerningGroup = O;
unicode = 00D6;
},
{
glyphname = Ograve;
layers = (
{
layerId = "EDEFDD19-C737-4BEE-813D-BCFC1948A1E8";
name = "Bold Italic";
paths = (
{
closed = 1;
nodes = (
"81 0 LINE"
);
},
{
closed = 1;
nodes = (
"1453 911.333 OFFCURVE",
"1439.33 996.167 OFFCURVE",
"1412 1074.5 CURVE SMOOTH",
"1384.67 1152.83 OFFCURVE",
"1345.33 1220.67 OFFCURVE",
"1294 1278 CURVE SMOOTH",
"1242.67 1335.33 OFFCURVE",
"1180.33 1380.33 OFFCURVE",
"1107 1413 CURVE SMOOTH",
"1033.67 1445.67 OFFCURVE",
"951 1462 OFFCURVE",
"859 1462 CURVE SMOOTH",
"784.333 1462 OFFCURVE",
"713.333 1452.5 OFFCURVE",
"646 1433.5 CURVE SMOOTH",
"578.666 1414.5 OFFCURVE",
"516.166 1387.17 OFFCURVE",
"458.5 1351.5 CURVE SMOOTH",
"400.833 1315.83 OFFCURVE",
"348.833 1273 OFFCURVE",
"302.5 1223 CURVE SMOOTH",
"256.166 1173 OFFCURVE",
"216.5 1117 OFFCURVE",
"183.5 1055 CURVE SMOOTH",
"150.5 993 OFFCURVE",
"125.166 925.833 OFFCURVE",
"107.5 853.5 CURVE SMOOTH",
"89.833 781.167 OFFCURVE",
"80.9997 705 OFFCURVE",
"80.9997 625 CURVE SMOOTH",
"80.9997 533.667 OFFCURVE",
"94.6664 449 OFFCURVE",
"122 371 CURVE SMOOTH",
"149.333 293 OFFCURVE",
"188.833 225.333 OFFCURVE",
"240.5 168 CURVE SMOOTH",
"292.166 110.667 OFFCURVE",
"354.666 65.6668 OFFCURVE",
"428 33 CURVE SMOOTH",
"501.333 0.33345 OFFCURVE",
"584 -16 OFFCURVE",
"676 -16 CURVE SMOOTH",
"750 -16 OFFCURVE",
"820.666 -6 OFFCURVE",
"888 12.5001 CURVE SMOOTH",
"955.333 31.5001 OFFCURVE",
"1017.83 58.6668 OFFCURVE",
"1075.5 94 CURVE SMOOTH",
"1133.17 129.333 OFFCURVE",
"1185.33 172 OFFCURVE",
"1232 222 CURVE SMOOTH",
"1278.67 272 OFFCURVE",
"1318.33 328 OFFCURVE",
"1351 390 CURVE SMOOTH",
"1383.67 452 OFFCURVE",
"1408.83 519.167 OFFCURVE",
"1426.5 591.5 CURVE SMOOTH",
"1444.17 663.833 OFFCURVE",
"1453 740 OFFCURVE",
"1453 820 CURVE SMOOTH"
);
},
{
closed = 1;
nodes = (
"1187 720.667 OFFCURVE",
"1175.5 636.167 OFFCURVE",
"1152.5 560.5 CURVE SMOOTH",
"1129.5 484.833 OFFCURVE",
"1097 420.333 OFFCURVE",
"1055 367 CURVE SMOOTH",
"1013 313.667 OFFCURVE",
"962.333 272.333 OFFCURVE",
"902.999 243 CURVE SMOOTH",
"843.666 213.667 OFFCURVE",
"777.666 199 OFFCURVE",
"704.999 199 CURVE SMOOTH",
"648.333 199 OFFCURVE",
"597.833 209.167 OFFCURVE",
"553.499 229.5 CURVE SMOOTH",
"509.166 249.833 OFFCURVE",
"471.666 278.833 OFFCURVE",
"440.999 316.5 CURVE SMOOTH",
"410.333 354.167 OFFCURVE",
"386.999 399.667 OFFCURVE",
"370.999 453 CURVE SMOOTH",
"354.999 506.333 OFFCURVE",
"346.999 565.667 OFFCURVE",
"346.999 631 CURVE SMOOTH",
"346.999 723.667 OFFCURVE",
"358.499 808 OFFCURVE",
"381.499 884 CURVE SMOOTH",
"404.499 960 OFFCURVE",
"436.999 1025 OFFCURVE",
"478.999 1079 CURVE SMOOTH",
"520.999 1133 OFFCURVE",
"571.499 1174.67 OFFCURVE",
"630.499 1204 CURVE SMOOTH",
"689.499 1233.33 OFFCURVE",
"754.999 1248 OFFCURVE",
"826.999 1248 CURVE SMOOTH",
"882.999 1248 OFFCURVE",
"933.333 1237.67 OFFCURVE",
"977.999 1217 CURVE SMOOTH",
"1022.67 1196.33 OFFCURVE",
"1060.5 1167 OFFCURVE",
"1091.5 1129 CURVE SMOOTH",
"1122.5 1091 OFFCURVE",
"1146.17 1045.33 OFFCURVE",
"1162.5 992 CURVE SMOOTH",
"1178.83 938.667 OFFCURVE",
"1187 879.333 OFFCURVE",
"1187 814 CURVE SMOOTH"
);
},
{
closed = 1;
nodes = (
"515.999 1861 LINE",
"776.999 1573 LINE SMOOTH",
"787.666 1561.67 OFFCURVE",
"797.833 1554.83 OFFCURVE",
"807.499 1552.5 CURVE SMOOTH",
"817.166 1550.17 OFFCURVE",
"830.999 1549 OFFCURVE",
"848.999 1549 CURVE SMOOTH",
"1013 1549 LINE",
"843.999 1820 LINE SMOOTH",
"837.999 1829.33 OFFCURVE",
"832.333 1836.67 OFFCURVE",
"826.999 1842 CURVE SMOOTH",
"821.666 1847.33 OFFCURVE",
"815.666 1851.5 OFFCURVE",
"808.999 1854.5 CURVE SMOOTH",
"802.333 1857.5 OFFCURVE",
"794.499 1859.33 OFFCURVE",
"785.499 1860 CURVE SMOOTH",
"776.499 1860.67 OFFCURVE",
"765.999 1861 OFFCURVE",
"753.999 1861 CURVE SMOOTH"
);
}
);
width = 1506;
}
);
leftKerningGroup = C;
rightKerningGroup = O;
unicode = 00D2;
},
{
glyphname = Oslash;
layers = (
{
layerId = "EDEFDD19-C737-4BEE-813D-BCFC1948A1E8";
name = "Bold Italic";
paths = (
{
closed = 1;
nodes = (
"1453 906.667 OFFCURVE",
"1440.67 987.167 OFFCURVE",
"1416 1061.5 CURVE SMOOTH",
"1391.33 1135.83 OFFCURVE",
"1355.67 1201.67 OFFCURVE",
"1309 1259 CURVE",
"1508 1510 LINE",
"1375 1510 LINE SMOOTH",
"1361 1510 OFFCURVE",
"1349 1508.83 OFFCURVE",
"1339 1506.5 CURVE SMOOTH",
"1329 1504.17 OFFCURVE",
"1319.83 1500.5 OFFCURVE",
"1311.5 1495.5 CURVE SMOOTH",
"1303.17 1490.5 OFFCURVE",
"1295 1483.83 OFFCURVE",
"1287 1475.5 CURVE SMOOTH",
"1279 1467.17 OFFCURVE",
"1270 1457.33 OFFCURVE",
"1260 1446 CURVE",
"1195 1364 LINE",
"1149 1395.33 OFFCURVE",
"1098 1419.5 OFFCURVE",
"1042 1436.5 CURVE SMOOTH",
"986 1453.5 OFFCURVE",
"925 1462 OFFCURVE",
"859 1462 CURVE SMOOTH",
"784.333 1462 OFFCURVE",
"713.333 1452.5 OFFCURVE",
"646 1433.5 CURVE SMOOTH",
"578.667 1414.5 OFFCURVE",
"516.167 1387.17 OFFCURVE",
"458.5 1351.5 CURVE SMOOTH",
"400.833 1315.83 OFFCURVE",
"348.833 1273 OFFCURVE",
"302.5 1223 CURVE SMOOTH",
"256.167 1173 OFFCURVE",
"216.5 1117 OFFCURVE",
"183.5 1055 CURVE SMOOTH",
"150.5 993 OFFCURVE",
"125.167 925.833 OFFCURVE",
"107.5 853.5 CURVE SMOOTH",
"89.8335 781.167 OFFCURVE",
"81 705 OFFCURVE",
"81 625 CURVE SMOOTH",
"81 531.667 OFFCURVE",
"95 445.667 OFFCURVE",
"123 367 CURVE SMOOTH",
"151 288.333 OFFCURVE",
"191.667 220 OFFCURVE",
"245 162 CURVE",
"29 -111 LINE",
"131 -111 LINE SMOOTH",
"155.667 -111 OFFCURVE",
"181.5 -106 OFFCURVE",
"208.5 -95 CURVE SMOOTH",
"235.5 -84 OFFCURVE",
"260 -66 OFFCURVE",
"282 -41 CURVE",
"365 64 LINE",
"409 38.6667 OFFCURVE",
"456.667 19 OFFCURVE",
"508 4.99998 CURVE SMOOTH",
"559.333 -9 OFFCURVE",
"615.333 -16 OFFCURVE",
"676 -16 CURVE SMOOTH",
"750 -16 OFFCURVE",
"820.667 -7 OFFCURVE",
"888 12.5 CURVE SMOOTH",
"955.333 31.5 OFFCURVE",
"1017.83 58.6667 OFFCURVE",
"1075.5 94 CURVE SMOOTH",
"1133.17 129.333 OFFCURVE",
"1185.33 172 OFFCURVE",
"1232 222 CURVE SMOOTH",
"1278.67 272 OFFCURVE",
"1318.33 328 OFFCURVE",
"1351 390 CURVE SMOOTH",
"1383.67 452 OFFCURVE",
"1408.83 519.167 OFFCURVE",
"1426.5 591.5 CURVE SMOOTH",
"1444.17 663.833 OFFCURVE",
"1453 740 OFFCURVE",
"1453 820 CURVE SMOOTH"
);
},
{
closed = 1;
nodes = (
"347 723.667 OFFCURVE",
"358.5 808 OFFCURVE",
"381.5 884 CURVE SMOOTH",
"404.5 960 OFFCURVE",
"437 1025 OFFCURVE",
"479 1079 CURVE SMOOTH",
"521 1133 OFFCURVE",
"571.5 1174.67 OFFCURVE",
"630.5 1204 CURVE SMOOTH",
"689.5 1233.33 OFFCURVE",
"755 1248 OFFCURVE",
"827 1248 CURVE SMOOTH",
"871 1248 OFFCURVE",
"911.166 1241.67 OFFCURVE",
"947.5 1229 CURVE SMOOTH",
"983.833 1216.33 OFFCURVE",
"1016.67 1198.33 OFFCURVE",
"1046 1175 CURVE",
"407 367 LINE",
"387.666 402.333 OFFCURVE",
"372.833 442 OFFCURVE",
"362.5 486 CURVE SMOOTH",
"352.166 530 OFFCURVE",
"347 578.333 OFFCURVE",
"347 631 CURVE SMOOTH"
);
},
{
closed = 1;
nodes = (
"1187 720.667 OFFCURVE",
"1175.5 636.167 OFFCURVE",
"1152.5 560.5 CURVE SMOOTH",
"1129.5 484.833 OFFCURVE",
"1097 420.333 OFFCURVE",
"1055 367 CURVE SMOOTH",
"1013 313.667 OFFCURVE",
"962.333 272.333 OFFCURVE",
"903 243 CURVE SMOOTH",
"843.666 213.667 OFFCURVE",
"777.666 199 OFFCURVE",
"705 199 CURVE SMOOTH",
"631 199 OFFCURVE",
"567 216.333 OFFCURVE",
"513 251 CURVE",
"1142 1047 LINE",
"1156.67 1014.33 OFFCURVE",
"1167.83 978.5 OFFCURVE",
"1175.5 939.5 CURVE SMOOTH",
"1183.17 900.5 OFFCURVE",
"1187 858.667 OFFCURVE",
"1187 814 CURVE SMOOTH"
);
}
);
width = 1506;
}
);
leftKerningGroup = C;
rightKerningGroup = O;
unicode = 00D8;
},
{
glyphname = Otilde;
layers = (
{
layerId = "EDEFDD19-C737-4BEE-813D-BCFC1948A1E8";
name = "Bold Italic";
paths = (
{
closed = 1;
nodes = (
"81 0 LINE"
);
},
{
closed = 1;
nodes = (
"1453 911.333 OFFCURVE",
"1439.33 996.167 OFFCURVE",
"1412 1074.5 CURVE SMOOTH",
"1384.67 1152.83 OFFCURVE",
"1345.33 1220.67 OFFCURVE",
"1294 1278 CURVE SMOOTH",
"1242.67 1335.33 OFFCURVE",
"1180.33 1380.33 OFFCURVE",
"1107 1413 CURVE SMOOTH",
"1033.67 1445.67 OFFCURVE",
"951 1462 OFFCURVE",
"859 1462 CURVE SMOOTH",
"784.333 1462 OFFCURVE",
"713.333 1452.5 OFFCURVE",
"646 1433.5 CURVE SMOOTH",
"578.666 1414.5 OFFCURVE",
"516.166 1387.17 OFFCURVE",
"458.5 1351.5 CURVE SMOOTH",
"400.833 1315.83 OFFCURVE",
"348.833 1273 OFFCURVE",
"302.5 1223 CURVE SMOOTH",
"256.166 1173 OFFCURVE",
"216.5 1117 OFFCURVE",
"183.5 1055 CURVE SMOOTH",
"150.5 993 OFFCURVE",
"125.166 925.833 OFFCURVE",
"107.5 853.5 CURVE SMOOTH",
"89.833 781.167 OFFCURVE",
"80.9997 705 OFFCURVE",
"80.9997 625 CURVE SMOOTH",
"80.9997 533.667 OFFCURVE",
"94.6664 449 OFFCURVE",
"122 371 CURVE SMOOTH",
"149.333 293 OFFCURVE",
"188.833 225.333 OFFCURVE",
"240.5 168 CURVE SMOOTH",
"292.166 110.667 OFFCURVE",
"354.666 65.6668 OFFCURVE",
"428 33 CURVE SMOOTH",
"501.333 0.33345 OFFCURVE",
"584 -16 OFFCURVE",
"676 -16 CURVE SMOOTH",
"750 -16 OFFCURVE",
"820.666 -6 OFFCURVE",
"888 12.5001 CURVE SMOOTH",
"955.333 31.5001 OFFCURVE",
"1017.83 58.6668 OFFCURVE",
"1075.5 94 CURVE SMOOTH",
"1133.17 129.333 OFFCURVE",
"1185.33 172 OFFCURVE",
"1232 222 CURVE SMOOTH",
"1278.67 272 OFFCURVE",
"1318.33 328 OFFCURVE",
"1351 390 CURVE SMOOTH",
"1383.67 452 OFFCURVE",
"1408.83 519.167 OFFCURVE",
"1426.5 591.5 CURVE SMOOTH",
"1444.17 663.833 OFFCURVE",
"1453 740 OFFCURVE",
"1453 820 CURVE SMOOTH"
);
},
{
closed = 1;
nodes = (
"1187 720.667 OFFCURVE",
"1175.5 636.167 OFFCURVE",
"1152.5 560.5 CURVE SMOOTH",
"1129.5 484.833 OFFCURVE",
"1097 420.333 OFFCURVE",
"1055 367 CURVE SMOOTH",
"1013 313.667 OFFCURVE",
"962.333 272.333 OFFCURVE",
"902.999 243 CURVE SMOOTH",
"843.666 213.667 OFFCURVE",
"777.666 199 OFFCURVE",
"704.999 199 CURVE SMOOTH",
"648.333 199 OFFCURVE",
"597.833 209.167 OFFCURVE",
"553.499 229.5 CURVE SMOOTH",
"509.166 249.833 OFFCURVE",
"471.666 278.833 OFFCURVE",
"440.999 316.5 CURVE SMOOTH",
"410.333 354.167 OFFCURVE",
"386.999 399.667 OFFCURVE",
"370.999 453 CURVE SMOOTH",
"354.999 506.333 OFFCURVE",
"346.999 565.667 OFFCURVE",
"346.999 631 CURVE SMOOTH",
"346.999 723.667 OFFCURVE",
"358.499 808 OFFCURVE",
"381.499 884 CURVE SMOOTH",
"404.499 960 OFFCURVE",
"436.999 1025 OFFCURVE",
"478.999 1079 CURVE SMOOTH",
"520.999 1133 OFFCURVE",
"571.499 1174.67 OFFCURVE",
"630.499 1204 CURVE SMOOTH",
"689.499 1233.33 OFFCURVE",
"754.999 1248 OFFCURVE",
"826.999 1248 CURVE SMOOTH",
"882.999 1248 OFFCURVE",
"933.333 1237.67 OFFCURVE",
"977.999 1217 CURVE SMOOTH",
"1022.67 1196.33 OFFCURVE",
"1060.5 1167 OFFCURVE",
"1091.5 1129 CURVE SMOOTH",
"1122.5 1091 OFFCURVE",
"1146.17 1045.33 OFFCURVE",
"1162.5 992 CURVE SMOOTH",
"1178.83 938.667 OFFCURVE",
"1187 879.333 OFFCURVE",
"1187 814 CURVE SMOOTH"
);
},
{
closed = 1;
nodes = (
"981.333 1699 OFFCURVE",
"965.666 1704.33 OFFCURVE",
"950.999 1715 CURVE SMOOTH",
"936.333 1725.67 OFFCURVE",
"920.499 1737.17 OFFCURVE",
"903.499 1749.5 CURVE SMOOTH",
"886.499 1761.83 OFFCURVE",
"866.833 1773.33 OFFCURVE",
"844.499 1784 CURVE SMOOTH",
"822.166 1794.67 OFFCURVE",
"795.333 1800 OFFCURVE",
"763.999 1800 CURVE SMOOTH",
"733.333 1800 OFFCURVE",
"705.499 1792.83 OFFCURVE",
"680.499 1778.5 CURVE SMOOTH",
"655.499 1764.17 OFFCURVE",
"633.499 1745.17 OFFCURVE",
"614.499 1721.5 CURVE SMOOTH",
"595.499 1697.83 OFFCURVE",
"579.999 1670.5 OFFCURVE",
"567.999 1639.5 CURVE SMOOTH",
"555.999 1608.5 OFFCURVE",
"547.999 1576.67 OFFCURVE",
"543.999 1544 CURVE",
"684.999 1544 LINE",
"686.333 1554.67 OFFCURVE",
"689.166 1565.67 OFFCURVE",
"693.499 1577 CURVE SMOOTH",
"697.833 1588.33 OFFCURVE",
"703.666 1598.67 OFFCURVE",
"710.999 1608 CURVE SMOOTH",
"718.333 1617.33 OFFCURVE",
"727.166 1625 OFFCURVE",
"737.499 1631 CURVE SMOOTH",
"747.833 1637 OFFCURVE",
"759.999 1640 OFFCURVE",
"773.999 1640 CURVE SMOOTH",
"790.666 1640 OFFCURVE",
"806.333 1634.67 OFFCURVE",
"820.999 1624 CURVE SMOOTH",
"835.666 1613.33 OFFCURVE",
"851.666 1601.83 OFFCURVE",
"868.999 1589.5 CURVE SMOOTH",
"886.333 1577.17 OFFCURVE",
"905.833 1565.67 OFFCURVE",
"927.499 1555 CURVE SMOOTH",
"949.166 1544.33 OFFCURVE",
"975.666 1539 OFFCURVE",
"1007 1539 CURVE SMOOTH",
"1037.67 1539 OFFCURVE",
"1065.67 1546 OFFCURVE",
"1091 1560 CURVE SMOOTH",
"1116.33 1574 OFFCURVE",
"1138.33 1592.83 OFFCURVE",
"1157 1616.5 CURVE SMOOTH",
"1175.67 1640.17 OFFCURVE",
"1190.83 1667.17 OFFCURVE",
"1202.5 1697.5 CURVE SMOOTH",
"1214.17 1727.83 OFFCURVE",
"1222 1759.67 OFFCURVE",
"1226 1793 CURVE",
"1088 1793 LINE",
"1086.67 1782.33 OFFCURVE",
"1083.67 1771.5 OFFCURVE",
"1079 1760.5 CURVE SMOOTH",
"1074.33 1749.5 OFFCURVE",
"1068.33 1739.5 OFFCURVE",
"1061 1730.5 CURVE SMOOTH",
"1053.67 1721.5 OFFCURVE",
"1044.67 1714 OFFCURVE",
"1034 1708 CURVE SMOOTH",
"1023.33 1702 OFFCURVE",
"1011.33 1699 OFFCURVE",
"997.999 1699 CURVE SMOOTH"
);
}
);
width = 1506;
}
);
leftKerningGroup = C;
rightKerningGroup = O;
unicode = 00D5;
},
{
glyphname = OE;
layers = (
{
layerId = "EDEFDD19-C737-4BEE-813D-BCFC1948A1E8";
name = "Bold Italic";
paths = (
{
closed = 1;
nodes = (
"2029 1446 LINE",
"1217 1446 LINE",
"1192 1247 LINE",
"1148.67 1313.67 OFFCURVE",
"1093.5 1366.17 OFFCURVE",
"1026.5 1404.5 CURVE SMOOTH",
"959.5 1442.83 OFFCURVE",
"881 1462 OFFCURVE",
"791 1462 CURVE SMOOTH",
"723.667 1462 OFFCURVE",
"659.333 1452.33 OFFCURVE",
"598 1433 CURVE SMOOTH",
"536.667 1413.67 OFFCURVE",
"479.833 1386 OFFCURVE",
"427.5 1350 CURVE SMOOTH",
"375.167 1314 OFFCURVE",
"327.667 1270.67 OFFCURVE",
"285 1220 CURVE SMOOTH",
"242.333 1169.33 OFFCURVE",
"206.167 1112.67 OFFCURVE",
"176.5 1050 CURVE SMOOTH",
"146.833 987.333 OFFCURVE",
"123.833 919.333 OFFCURVE",
"107.5 846 CURVE SMOOTH",
"91.1667 772.667 OFFCURVE",
"83 695.667 OFFCURVE",
"83 615 CURVE SMOOTH",
"83 525 OFFCURVE",
"95.1667 441.5 OFFCURVE",
"119.5 364.5 CURVE SMOOTH",
"143.833 287.5 OFFCURVE",
"178.667 221 OFFCURVE",
"224 165 CURVE SMOOTH",
"269.333 109 OFFCURVE",
"324.667 65 OFFCURVE",
"390 33 CURVE SMOOTH",
"455.333 1 OFFCURVE",
"529 -15 OFFCURVE",
"611 -15 CURVE SMOOTH",
"700.333 -15 OFFCURVE",
"782.833 1.33345 OFFCURVE",
"858.5 34 CURVE SMOOTH",
"934.167 66.6668 OFFCURVE",
"1001.33 113 OFFCURVE",
"1060 173 CURVE",
"1039 0 LINE",
"1851 0 LINE",
"1877 207 LINE",
"1296 207 LINE",
"1347 628 LINE",
"1803 628 LINE",
"1827 827 LINE",
"1371 827 LINE",
"1422 1239 LINE",
"2004 1239 LINE"
);
},
{
closed = 1;
nodes = (
"1104 730 OFFCURVE",
"1093.5 644.167 OFFCURVE",
"1072.5 566.5 CURVE SMOOTH",
"1051.5 488.833 OFFCURVE",
"1021.67 422.167 OFFCURVE",
"983 366.5 CURVE SMOOTH",
"944.333 310.833 OFFCURVE",
"897.833 267.667 OFFCURVE",
"843.5 237 CURVE SMOOTH",
"789.167 206.333 OFFCURVE",
"728.667 191 OFFCURVE",
"662 191 CURVE SMOOTH",
"611.333 191 OFFCURVE",
"566.5 201.333 OFFCURVE",
"527.5 222 CURVE SMOOTH",
"488.5 242.667 OFFCURVE",
"455.833 272 OFFCURVE",
"429.5 310 CURVE SMOOTH",
"403.167 348 OFFCURVE",
"383.167 393.333 OFFCURVE",
"369.5 446 CURVE SMOOTH",
"355.833 498.667 OFFCURVE",
"349 557 OFFCURVE",
"349 621 CURVE SMOOTH",
"349 715 OFFCURVE",
"359.5 801 OFFCURVE",
"380.5 879 CURVE SMOOTH",
"401.5 957 OFFCURVE",
"431.5 1023.83 OFFCURVE",
"470.5 1079.5 CURVE SMOOTH",
"509.5 1135.17 OFFCURVE",
"556.167 1178.5 OFFCURVE",
"610.5 1209.5 CURVE SMOOTH",
"664.833 1240.5 OFFCURVE",
"725.667 1256 OFFCURVE",
"793 1256 CURVE SMOOTH",
"843 1256 OFFCURVE",
"887.333 1245.5 OFFCURVE",
"926 1224.5 CURVE SMOOTH",
"964.667 1203.5 OFFCURVE",
"997.167 1174 OFFCURVE",
"1023.5 1136 CURVE SMOOTH",
"1049.83 1098 OFFCURVE",
"1069.83 1052.5 OFFCURVE",
"1083.5 999.5 CURVE SMOOTH",
"1097.17 946.5 OFFCURVE",
"1104 888 OFFCURVE",
"1104 824 CURVE SMOOTH"
);
}
);
width = 2004;
}
);
leftKerningGroup = C;
rightKerningGroup = E;
unicode = 0152;
},
{
glyphname = P;
layers = (
{
layerId = "EDEFDD19-C737-4BEE-813D-BCFC1948A1E8";
name = "Bold Italic";
paths = (
{
closed = 1;
nodes = (
"398 512 LINE",
"578 512 LINE SMOOTH",
"675.333 512 OFFCURVE",
"760.5 525.5 OFFCURVE",
"833.5 552.5 CURVE SMOOTH",
"906.5 579.5 OFFCURVE",
"967.333 616.833 OFFCURVE",
"1016 664.5 CURVE SMOOTH",
"1064.67 712.167 OFFCURVE",
"1101.17 768.833 OFFCURVE",
"1125.5 834.5 CURVE SMOOTH",
"1149.83 900.167 OFFCURVE",
"1162 971.667 OFFCURVE",
"1162 1049 CURVE SMOOTH",
"1162 1107 OFFCURVE",
"1152.83 1160.17 OFFCURVE",
"1134.5 1208.5 CURVE SMOOTH",
"1116.17 1256.83 OFFCURVE",
"1088 1298.67 OFFCURVE",
"1050 1334 CURVE SMOOTH",
"1012 1369.33 OFFCURVE",
"963.5 1396.83 OFFCURVE",
"904.5 1416.5 CURVE SMOOTH",
"845.5 1436.17 OFFCURVE",
"775 1446 OFFCURVE",
"693 1446 CURVE SMOOTH",
"253 1446 LINE",
"77 0 LINE",
"335 0 LINE"
);
},
{
closed = 1;
nodes = (
"488 1246 LINE",
"668 1246 LINE SMOOTH",
"708 1246 OFFCURVE",
"742.5 1240.67 OFFCURVE",
"771.5 1230 CURVE SMOOTH",
"800.5 1219.33 OFFCURVE",
"824.667 1204.5 OFFCURVE",
"844 1185.5 CURVE SMOOTH",
"863.333 1166.5 OFFCURVE",
"877.667 1143.33 OFFCURVE",
"887 1116 CURVE SMOOTH",
"896.333 1088.67 OFFCURVE",
"901 1058.67 OFFCURVE",
"901 1026 CURVE SMOOTH",
"901 980 OFFCURVE",
"895.167 938 OFFCURVE",
"883.5 900 CURVE SMOOTH",
"871.833 862 OFFCURVE",
"853.833 829.167 OFFCURVE",
"829.5 801.5 CURVE SMOOTH",
"805.167 773.834 OFFCURVE",
"774.333 752.334 OFFCURVE",
"737 737 CURVE SMOOTH",
"699.667 721.667 OFFCURVE",
"655.333 714 OFFCURVE",
"604 714 CURVE SMOOTH",
"423 714 LINE"
);
}
);
width = 1162;
}
);
leftKerningGroup = B;
rightKerningGroup = P;
unicode = 0050;
},
{
glyphname = Thorn;
layers = (
{
layerId = "EDEFDD19-C737-4BEE-813D-BCFC1948A1E8";
name = "Bold Italic";
paths = (
{
closed = 1;
nodes = (
"482 1194 LINE",
"513 1446 LINE",
"253 1446 LINE",
"77 0 LINE",
"335 0 LINE",
"367 263 LINE",
"549 263 LINE SMOOTH",
"645.667 263 OFFCURVE",
"730.5 276.333 OFFCURVE",
"803.5 303 CURVE SMOOTH",
"876.5 329.667 OFFCURVE",
"937.333 366.833 OFFCURVE",
"986 414.5 CURVE SMOOTH",
"1034.67 462.167 OFFCURVE",
"1071.17 518.667 OFFCURVE",
"1095.5 584 CURVE SMOOTH",
"1119.83 649.333 OFFCURVE",
"1132 721 OFFCURVE",
"1132 799 CURVE SMOOTH",
"1132 856.333 OFFCURVE",
"1122.83 909.167 OFFCURVE",
"1104.5 957.5 CURVE SMOOTH",
"1086.17 1005.83 OFFCURVE",
"1057.83 1047.5 OFFCURVE",
"1019.5 1082.5 CURVE SMOOTH",
"981.167 1117.5 OFFCURVE",
"932.5 1144.83 OFFCURVE",
"873.5 1164.5 CURVE SMOOTH",
"814.5 1184.17 OFFCURVE",
"744.667 1194 OFFCURVE",
"664 1194 CURVE SMOOTH"
);
},
{
closed = 1;
nodes = (
"457 993 LINE",
"638 993 LINE SMOOTH",
"678 993 OFFCURVE",
"712.5 987.833 OFFCURVE",
"741.5 977.5 CURVE SMOOTH",
"770.5 967.167 OFFCURVE",
"794.667 952.667 OFFCURVE",
"814 934 CURVE SMOOTH",
"833.333 915.333 OFFCURVE",
"847.667 892.667 OFFCURVE",
"857 866 CURVE SMOOTH",
"866.333 839.333 OFFCURVE",
"871 809.667 OFFCURVE",
"871 777 CURVE SMOOTH",
"871 731 OFFCURVE",
"865.167 688.833 OFFCURVE",
"853.5 650.5 CURVE SMOOTH",
"841.833 612.167 OFFCURVE",
"823.833 579.167 OFFCURVE",
"799.5 551.5 CURVE SMOOTH",
"775.167 523.833 OFFCURVE",
"744.333 502.333 OFFCURVE",
"707 487 CURVE SMOOTH",
"669.667 471.667 OFFCURVE",
"625.333 464 OFFCURVE",
"574 464 CURVE SMOOTH",
"392 464 LINE"
);
}
);
width = 1157;
}
);
leftKerningGroup = B;
rightKerningGroup = Thorn;
unicode = 00DE;
},
{
glyphname = Q;
lastChange = "2014-08-21 04:41:14 -0500";
layers = (
{
layerId = "EDEFDD19-C737-4BEE-813D-BCFC1948A1E8";
name = "Bold Italic";
paths = (
{
closed = 1;
nodes = (
"707 438 LINE",
"1018 -6 LINE SMOOTH",
"1036 -31 OFFCURVE",
"1055 -44 OFFCURVE",
"1079 -53 CURVE SMOOTH",
"1103 -61 OFFCURVE",
"1130 -65 OFFCURVE",
"1161 -65 CURVE SMOOTH",
"1373 -65 LINE",
"939 541 LINE"
);
},
{
closed = 1;
nodes = (
"1453 911.333 OFFCURVE",
"1439.33 996.167 OFFCURVE",
"1412 1074.5 CURVE SMOOTH",
"1384.67 1152.83 OFFCURVE",
"1345.33 1220.67 OFFCURVE",
"1294 1278 CURVE SMOOTH",
"1242.67 1335.33 OFFCURVE",
"1180.33 1380.33 OFFCURVE",
"1107 1413 CURVE SMOOTH",
"1033.67 1445.67 OFFCURVE",
"951 1462 OFFCURVE",
"859 1462 CURVE SMOOTH",
"784.333 1462 OFFCURVE",
"713.333 1452.5 OFFCURVE",
"646 1433.5 CURVE SMOOTH",
"578.666 1414.5 OFFCURVE",
"516.166 1387.17 OFFCURVE",
"458.5 1351.5 CURVE SMOOTH",
"400.833 1315.83 OFFCURVE",
"348.833 1273 OFFCURVE",
"302.5 1223 CURVE SMOOTH",
"256.166 1173 OFFCURVE",
"216.5 1117 OFFCURVE",
"183.5 1055 CURVE SMOOTH",
"150.5 993 OFFCURVE",
"125.166 925.833 OFFCURVE",
"107.5 853.5 CURVE SMOOTH",
"89.833 781.167 OFFCURVE",
"81 705 OFFCURVE",
"81 625 CURVE SMOOTH",
"81 533.667 OFFCURVE",
"94.666 449 OFFCURVE",
"122 371 CURVE SMOOTH",
"149.333 293 OFFCURVE",
"188.833 225.333 OFFCURVE",
"240.5 168 CURVE SMOOTH",
"292.166 110.667 OFFCURVE",
"354.666 65.667 OFFCURVE",
"428 33 CURVE SMOOTH",
"501.333 0.333 OFFCURVE",
"584 -16 OFFCURVE",
"676 -16 CURVE SMOOTH",
"750 -16 OFFCURVE",
"820.666 -6 OFFCURVE",
"888 12.5 CURVE SMOOTH",
"955.333 31.5 OFFCURVE",
"1017.83 58.667 OFFCURVE",
"1075.5 94 CURVE SMOOTH",
"1133.17 129.333 OFFCURVE",
"1185.33 172 OFFCURVE",
"1232 222 CURVE SMOOTH",
"1278.67 272 OFFCURVE",
"1318.33 328 OFFCURVE",
"1351 390 CURVE SMOOTH",
"1383.67 452 OFFCURVE",
"1408.83 519.167 OFFCURVE",
"1426.5 591.5 CURVE SMOOTH",
"1444.17 663.833 OFFCURVE",
"1453 740 OFFCURVE",
"1453 820 CURVE SMOOTH"
);
},
{
closed = 1;
nodes = (
"1187 720.667 OFFCURVE",
"1175.5 636.167 OFFCURVE",
"1152.5 560.5 CURVE SMOOTH",
"1129.5 484.833 OFFCURVE",
"1097 420.333 OFFCURVE",
"1055 367 CURVE SMOOTH",
"1013 313.667 OFFCURVE",
"962.333 272.333 OFFCURVE",
"902.999 243 CURVE SMOOTH",
"843.666 213.667 OFFCURVE",
"777.666 199 OFFCURVE",
"704.999 199 CURVE SMOOTH",
"648.333 199 OFFCURVE",
"597.833 209.167 OFFCURVE",
"553.499 229.5 CURVE SMOOTH",
"509.166 249.833 OFFCURVE",
"471.666 278.833 OFFCURVE",
"440.999 316.5 CURVE SMOOTH",
"410.333 354.167 OFFCURVE",
"386.999 399.667 OFFCURVE",
"370.999 453 CURVE SMOOTH",
"354.999 506.333 OFFCURVE",
"346.999 565.667 OFFCURVE",
"346.999 631 CURVE SMOOTH",
"346.999 723.667 OFFCURVE",
"358.499 808 OFFCURVE",
"381.499 884 CURVE SMOOTH",
"404.499 960 OFFCURVE",
"436.999 1025 OFFCURVE",
"478.999 1079 CURVE SMOOTH",
"520.999 1133 OFFCURVE",
"571.499 1174.67 OFFCURVE",
"630.499 1204 CURVE SMOOTH",
"689.499 1233.33 OFFCURVE",
"754.999 1248 OFFCURVE",
"826.999 1248 CURVE SMOOTH",
"882.999 1248 OFFCURVE",
"933.333 1237.67 OFFCURVE",
"977.999 1217 CURVE SMOOTH",
"1022.67 1196.33 OFFCURVE",
"1060.5 1167 OFFCURVE",
"1091.5 1129 CURVE SMOOTH",
"1122.5 1091 OFFCURVE",
"1146.17 1045.33 OFFCURVE",
"1162.5 992 CURVE SMOOTH",
"1178.83 938.667 OFFCURVE",
"1187 879.333 OFFCURVE",
"1187 814 CURVE SMOOTH"
);
}
);
width = 1506;
}
);
leftKerningGroup = C;
rightKerningGroup = O;
unicode = 0051;
},
{
glyphname = R;
layers = (
{
layerId = "EDEFDD19-C737-4BEE-813D-BCFC1948A1E8";
name = "Bold Italic";
paths = (
{
closed = 1;
nodes = (
"405 570 LINE",
"506 570 LINE SMOOTH",
"530.667 570 OFFCURVE",
"548.833 566.167 OFFCURVE",
"560.5 558.5 CURVE SMOOTH",
"572.167 550.833 OFFCURVE",
"582 538.333 OFFCURVE",
"590 521 CURVE SMOOTH",
"802 52 LINE SMOOTH",
"816.667 17.3333 OFFCURVE",
"846.333 0 OFFCURVE",
"891 0 CURVE SMOOTH",
"1124 0 LINE",
"866 539 LINE",
"847.333 574.333 OFFCURVE",
"822.667 601.667 OFFCURVE",
"792 621 CURVE",
"846 637.667 OFFCURVE",
"894.167 661 OFFCURVE",
"936.5 691 CURVE SMOOTH",
"978.833 721 OFFCURVE",
"1014.83 756 OFFCURVE",
"1044.5 796 CURVE SMOOTH",
"1074.17 836 OFFCURVE",
"1096.83 880.5 OFFCURVE",
"1112.5 929.5 CURVE SMOOTH",
"1128.17 978.5 OFFCURVE",
"1136 1031 OFFCURVE",
"1136 1087 CURVE SMOOTH",
"1136 1139.67 OFFCURVE",
"1127 1188 OFFCURVE",
"1109 1232 CURVE SMOOTH",
"1091 1276 OFFCURVE",
"1063 1313.83 OFFCURVE",
"1025 1345.5 CURVE SMOOTH",
"987 1377.17 OFFCURVE",
"938.166 1401.83 OFFCURVE",
"878.5 1419.5 CURVE SMOOTH",
"818.833 1437.17 OFFCURVE",
"747.333 1446 OFFCURVE",
"664 1446 CURVE SMOOTH",
"253 1446 LINE",
"76.9998 0 LINE",
"335 0 LINE"
);
},
{
closed = 1;
nodes = (
"488 1246 LINE",
"640 1246 LINE SMOOTH",
"720.666 1246 OFFCURVE",
"780.5 1228.33 OFFCURVE",
"819.5 1193 CURVE SMOOTH",
"858.5 1157.67 OFFCURVE",
"878 1108.67 OFFCURVE",
"878 1046 CURVE SMOOTH",
"878 1005.33 OFFCURVE",
"872 967.333 OFFCURVE",
"860 932 CURVE SMOOTH",
"848 896.667 OFFCURVE",
"829.666 865.833 OFFCURVE",
"805 839.5 CURVE SMOOTH",
"780.333 813.167 OFFCURVE",
"749.166 792.5 OFFCURVE",
"711.5 777.5 CURVE SMOOTH",
"673.833 762.5 OFFCURVE",
"629 755 OFFCURVE",
"577 755 CURVE SMOOTH",
"428 755 LINE"
);
}
);
width = 1199;
}
);
leftKerningGroup = B;
rightKerningGroup = R;
unicode = 0052;
},
{
glyphname = S;
layers = (
{
layerId = "EDEFDD19-C737-4BEE-813D-BCFC1948A1E8";
name = "Bold Italic";
paths = (
{
closed = 1;
nodes = (
"1019 1295 LINE",
"999.667 1319.67 OFFCURVE",
"976.833 1342.17 OFFCURVE",
"950.5 1362.5 CURVE SMOOTH",
"924.167 1382.83 OFFCURVE",
"895.333 1400.33 OFFCURVE",
"864 1415 CURVE SMOOTH",
"832.667 1429.67 OFFCURVE",
"798.833 1441 OFFCURVE",
"762.5 1449 CURVE SMOOTH",
"726.167 1457 OFFCURVE",
"688.333 1461 OFFCURVE",
"649 1461 CURVE SMOOTH",
"572.333 1461 OFFCURVE",
"503.5 1447.83 OFFCURVE",
"442.5 1421.5 CURVE SMOOTH",
"381.5 1395.17 OFFCURVE",
"329.5 1360.17 OFFCURVE",
"286.5 1316.5 CURVE SMOOTH",
"243.5 1272.83 OFFCURVE",
"210.5 1222.33 OFFCURVE",
"187.5 1165 CURVE SMOOTH",
"164.5 1107.67 OFFCURVE",
"153 1048 OFFCURVE",
"153 986 CURVE SMOOTH",
"153 931.333 OFFCURVE",
"160.667 885.333 OFFCURVE",
"176 848 CURVE SMOOTH",
"191.333 810.667 OFFCURVE",
"211.667 779.167 OFFCURVE",
"237 753.5 CURVE SMOOTH",
"262.333 727.833 OFFCURVE",
"291.167 706.833 OFFCURVE",
"323.5 690.5 CURVE SMOOTH",
"355.833 674.167 OFFCURVE",
"388.667 659.833 OFFCURVE",
"422 647.5 CURVE SMOOTH",
"455.333 635.167 OFFCURVE",
"488.167 623.5 OFFCURVE",
"520.5 612.5 CURVE SMOOTH",
"552.833 601.5 OFFCURVE",
"581.667 588.667 OFFCURVE",
"607 574 CURVE SMOOTH",
"632.333 559.333 OFFCURVE",
"652.667 541.333 OFFCURVE",
"668 520 CURVE SMOOTH",
"683.333 498.667 OFFCURVE",
"691 471.333 OFFCURVE",
"691 438 CURVE SMOOTH",
"691 362.667 OFFCURVE",
"669.667 303.667 OFFCURVE",
"627 261 CURVE SMOOTH",
"584.333 218.333 OFFCURVE",
"525 197 OFFCURVE",
"449 197 CURVE SMOOTH",
"419 197 OFFCURVE",
"392.167 200.333 OFFCURVE",
"368.5 207 CURVE SMOOTH",
"344.833 213.667 OFFCURVE",
"323.833 221.833 OFFCURVE",
"305.5 231.5 CURVE SMOOTH",
"287.167 241.167 OFFCURVE",
"270.833 251.833 OFFCURVE",
"256.5 263.5 CURVE SMOOTH",
"242.167 275.167 OFFCURVE",
"228.833 285.833 OFFCURVE",
"216.5 295.5 CURVE SMOOTH",
"204.167 305.167 OFFCURVE",
"192.833 313.333 OFFCURVE",
"182.5 320 CURVE SMOOTH",
"172.167 326.667 OFFCURVE",
"161.667 330 OFFCURVE",
"151 330 CURVE SMOOTH",
"139.667 330 OFFCURVE",
"128.333 327 OFFCURVE",
"117 321 CURVE SMOOTH",
"105.667 315 OFFCURVE",
"96.3334 307.333 OFFCURVE",
"89 298 CURVE SMOOTH",
"-3 174 LINE",
"19.6667 145.333 OFFCURVE",
"46.3334 119.333 OFFCURVE",
"77 96 CURVE SMOOTH",
"107.667 72.6667 OFFCURVE",
"141 52.6667 OFFCURVE",
"177 36 CURVE SMOOTH",
"213 19.3334 OFFCURVE",
"251.333 6.50006 OFFCURVE",
"292 -2 CURVE SMOOTH",
"332.667 -11 OFFCURVE",
"374 -16 OFFCURVE",
"416 -16 CURVE SMOOTH",
"496.667 -16 OFFCURVE",
"569.667 -2 OFFCURVE",
"635 25.5001 CURVE SMOOTH",
"700.333 53.1667 OFFCURVE",
"755.667 90.5001 OFFCURVE",
"801 137.5 CURVE SMOOTH",
"846.333 184.5 OFFCURVE",
"881.333 239.333 OFFCURVE",
"906 302 CURVE SMOOTH",
"930.667 364.667 OFFCURVE",
"943 431.333 OFFCURVE",
"943 502 CURVE SMOOTH",
"943 552.667 OFFCURVE",
"935.167 595.833 OFFCURVE",
"919.5 631.5 CURVE SMOOTH",
"903.833 667.167 OFFCURVE",
"883.333 697.667 OFFCURVE",
"858 723 CURVE SMOOTH",
"832.667 748.333 OFFCURVE",
"803.667 769.667 OFFCURVE",
"771 787 CURVE SMOOTH",
"738.333 804.333 OFFCURVE",
"705.167 819.667 OFFCURVE",
"671.5 833 CURVE SMOOTH",
"637.833 846.333 OFFCURVE",
"604.667 859 OFFCURVE",
"572 871 CURVE SMOOTH",
"539.333 883 OFFCURVE",
"510.333 896.667 OFFCURVE",
"485 912 CURVE SMOOTH",
"459.667 927.333 OFFCURVE",
"439.167 945.167 OFFCURVE",
"423.5 965.5 CURVE SMOOTH",
"407.833 985.833 OFFCURVE",
"400 1011.33 OFFCURVE",
"400 1042 CURVE SMOOTH",
"400 1071.33 OFFCURVE",
"404.833 1098.67 OFFCURVE",
"414.5 1124 CURVE SMOOTH",
"424.167 1149.33 OFFCURVE",
"438.5 1171.33 OFFCURVE",
"457.5 1190 CURVE SMOOTH",
"476.5 1208.67 OFFCURVE",
"500 1223.33 OFFCURVE",
"528 1234 CURVE SMOOTH",
"556 1244.67 OFFCURVE",
"588 1250 OFFCURVE",
"624 1250 CURVE SMOOTH",
"661.333 1250 OFFCURVE",
"693.333 1244.67 OFFCURVE",
"720 1234 CURVE SMOOTH",
"746.667 1223.33 OFFCURVE",
"769.667 1211.5 OFFCURVE",
"789 1198.5 CURVE SMOOTH",
"808.333 1185.5 OFFCURVE",
"825 1173.67 OFFCURVE",
"839 1163 CURVE SMOOTH",
"853 1152.33 OFFCURVE",
"866.667 1147 OFFCURVE",
"880 1147 CURVE SMOOTH",
"893.333 1147 OFFCURVE",
"904.5 1150.17 OFFCURVE",
"913.5 1156.5 CURVE SMOOTH",
"922.5 1162.83 OFFCURVE",
"931.667 1172.67 OFFCURVE",
"941 1186 CURVE SMOOTH"
);
}
);
width = 1031;
}
);
leftKerningGroup = S;
rightKerningGroup = S;
unicode = 0053;
},
{
glyphname = T;
layers = (
{
layerId = "EDEFDD19-C737-4BEE-813D-BCFC1948A1E8";
name = "Bold Italic";
paths = (
{
closed = 1;
nodes = (
"1185 1446 LINE",
"132 1446 LINE",
"106 1233 LINE",
"503 1233 LINE",
"353 0 LINE",
"611 0 LINE",
"763 1233 LINE",
"1158 1233 LINE"
);
}
);
width = 1114;
}
);
leftKerningGroup = T;
rightKerningGroup = T;
unicode = 0054;
},
{
glyphname = U;
layers = (
{
layerId = "EDEFDD19-C737-4BEE-813D-BCFC1948A1E8";
name = "Bold Italic";
paths = (
{
closed = 1;
nodes = (
"594.667 208 OFFCURVE",
"553.833 216.833 OFFCURVE",
"519.5 234.5 CURVE SMOOTH",
"485.167 252.167 OFFCURVE",
"457.167 277.167 OFFCURVE",
"435.5 309.5 CURVE SMOOTH",
"413.833 341.833 OFFCURVE",
"399.167 380.833 OFFCURVE",
"391.5 426.5 CURVE SMOOTH",
"383.833 472.167 OFFCURVE",
"383.333 522.667 OFFCURVE",
"390 578 CURVE SMOOTH",
"496 1446 LINE",
"236 1446 LINE",
"132 577 LINE SMOOTH",
"121.333 491.667 OFFCURVE",
"124.333 412.667 OFFCURVE",
"141 340 CURVE SMOOTH",
"157.667 267.333 OFFCURVE",
"186.667 204.667 OFFCURVE",
"228 152 CURVE SMOOTH",
"269.333 99.3333 OFFCURVE",
"322.5 58.1667 OFFCURVE",
"387.5 28.5 CURVE SMOOTH",
"452.5 -1 OFFCURVE",
"528 -16 OFFCURVE",
"614 -16 CURVE SMOOTH",
"700 -16 OFFCURVE",
"779.167 -1 OFFCURVE",
"851.5 28.5 CURVE SMOOTH",
"923.833 58.1667 OFFCURVE",
"987.167 99.3333 OFFCURVE",
"1041.5 152 CURVE SMOOTH",
"1095.83 204.667 OFFCURVE",
"1140.33 267.333 OFFCURVE",
"1175 340 CURVE SMOOTH",
"1209.67 412.667 OFFCURVE",
"1232.33 491.667 OFFCURVE",
"1243 577 CURVE SMOOTH",
"1350 1446 LINE",
"1090 1446 LINE",
"984 577 LINE SMOOTH",
"977.333 521.667 OFFCURVE",
"964.5 471.333 OFFCURVE",
"945.5 426 CURVE SMOOTH",
"926.5 380.667 OFFCURVE",
"902.333 341.833 OFFCURVE",
"873 309.5 CURVE SMOOTH",
"843.667 277.167 OFFCURVE",
"809.5 252.167 OFFCURVE",
"770.5 234.5 CURVE SMOOTH",
"731.5 216.833 OFFCURVE",
"688.667 208 OFFCURVE",
"642 208 CURVE SMOOTH"
);
}
);
width = 1383;
}
);
leftKerningGroup = U;
rightKerningGroup = U;
unicode = 0055;
},
{
glyphname = Uacute;
layers = (
{
layerId = "EDEFDD19-C737-4BEE-813D-BCFC1948A1E8";
name = "Bold Italic";
paths = (
{
closed = 1;
nodes = (
"116 0 LINE"
);
},
{
closed = 1;
nodes = (
"594.667 208 OFFCURVE",
"553.833 216.833 OFFCURVE",
"519.5 234.5 CURVE SMOOTH",
"485.167 252.167 OFFCURVE",
"457.167 277.167 OFFCURVE",
"435.5 309.5 CURVE SMOOTH",
"413.833 341.833 OFFCURVE",
"399.167 380.833 OFFCURVE",
"391.5 426.5 CURVE SMOOTH",
"383.833 472.167 OFFCURVE",
"383.333 522.667 OFFCURVE",
"390 578 CURVE SMOOTH",
"496 1446 LINE",
"236 1446 LINE",
"132 577 LINE SMOOTH",
"121.333 491.667 OFFCURVE",
"124.333 412.667 OFFCURVE",
"141 340 CURVE SMOOTH",
"157.667 267.333 OFFCURVE",
"186.667 204.667 OFFCURVE",
"228 152 CURVE SMOOTH",
"269.333 99.3333 OFFCURVE",
"322.5 58.1667 OFFCURVE",
"387.5 28.5 CURVE SMOOTH",
"452.5 -1 OFFCURVE",
"528 -16 OFFCURVE",
"614 -16 CURVE SMOOTH",
"700 -16 OFFCURVE",
"779.167 -1 OFFCURVE",
"851.5 28.5 CURVE SMOOTH",
"923.833 58.1667 OFFCURVE",
"987.167 99.3333 OFFCURVE",
"1041.5 152 CURVE SMOOTH",
"1095.83 204.667 OFFCURVE",
"1140.33 267.333 OFFCURVE",
"1175 340 CURVE SMOOTH",
"1209.67 412.667 OFFCURVE",
"1232.33 491.667 OFFCURVE",
"1243 577 CURVE SMOOTH",
"1350 1446 LINE",
"1090 1446 LINE",
"984 577 LINE SMOOTH",
"977.333 521.667 OFFCURVE",
"964.5 471.333 OFFCURVE",
"945.5 426 CURVE SMOOTH",
"926.5 380.667 OFFCURVE",
"902.333 341.833 OFFCURVE",
"873 309.5 CURVE SMOOTH",
"843.667 277.167 OFFCURVE",
"809.5 252.167 OFFCURVE",
"770.5 234.5 CURVE SMOOTH",
"731.5 216.833 OFFCURVE",
"688.667 208 OFFCURVE",
"642 208 CURVE SMOOTH"
);
},
{
closed = 1;
nodes = (
"1230 1861 LINE",
"978 1861 LINE SMOOTH",
"966 1861 OFFCURVE",
"955.5 1860.67 OFFCURVE",
"946.5 1860 CURVE SMOOTH",
"937.5 1859.33 OFFCURVE",
"929.167 1857.67 OFFCURVE",
"921.5 1855 CURVE SMOOTH",
"913.833 1852.33 OFFCURVE",
"906.667 1848.17 OFFCURVE",
"900 1842.5 CURVE SMOOTH",
"893.333 1836.83 OFFCURVE",
"886.333 1829.33 OFFCURVE",
"879 1820 CURVE SMOOTH",
"656 1549 LINE",
"820 1549 LINE SMOOTH",
"837.333 1549 OFFCURVE",
"851.5 1550.33 OFFCURVE",
"862.5 1553 CURVE SMOOTH",
"873.5 1555.67 OFFCURVE",
"886 1563 OFFCURVE",
"900 1575 CURVE SMOOTH"
);
}
);
width = 1383;
}
);
leftKerningGroup = U;
rightKerningGroup = U;
unicode = 00DA;
},
{
glyphname = Ucircumflex;
layers = (
{
layerId = "EDEFDD19-C737-4BEE-813D-BCFC1948A1E8";
name = "Bold Italic";
paths = (
{
closed = 1;
nodes = (
"116 0 LINE"
);
},
{
closed = 1;
nodes = (
"594.667 208 OFFCURVE",
"553.833 216.833 OFFCURVE",
"519.5 234.5 CURVE SMOOTH",
"485.167 252.167 OFFCURVE",
"457.167 277.167 OFFCURVE",
"435.5 309.5 CURVE SMOOTH",
"413.833 341.833 OFFCURVE",
"399.167 380.833 OFFCURVE",
"391.5 426.5 CURVE SMOOTH",
"383.833 472.167 OFFCURVE",
"383.333 522.667 OFFCURVE",
"390 578 CURVE SMOOTH",
"496 1446 LINE",
"236 1446 LINE",
"132 577 LINE SMOOTH",
"121.333 491.667 OFFCURVE",
"124.333 412.667 OFFCURVE",
"141 340 CURVE SMOOTH",
"157.667 267.333 OFFCURVE",
"186.667 204.667 OFFCURVE",
"228 152 CURVE SMOOTH",
"269.333 99.3333 OFFCURVE",
"322.5 58.1667 OFFCURVE",
"387.5 28.5 CURVE SMOOTH",
"452.5 -1 OFFCURVE",
"528 -16 OFFCURVE",
"614 -16 CURVE SMOOTH",
"700 -16 OFFCURVE",
"779.167 -1 OFFCURVE",
"851.5 28.5 CURVE SMOOTH",
"923.833 58.1667 OFFCURVE",
"987.167 99.3333 OFFCURVE",
"1041.5 152 CURVE SMOOTH",
"1095.83 204.667 OFFCURVE",
"1140.33 267.333 OFFCURVE",
"1175 340 CURVE SMOOTH",
"1209.67 412.667 OFFCURVE",
"1232.33 491.667 OFFCURVE",
"1243 577 CURVE SMOOTH",
"1350 1446 LINE",
"1090 1446 LINE",
"984 577 LINE SMOOTH",
"977.333 521.667 OFFCURVE",
"964.5 471.333 OFFCURVE",
"945.5 426 CURVE SMOOTH",
"926.5 380.667 OFFCURVE",
"902.333 341.833 OFFCURVE",
"873 309.5 CURVE SMOOTH",
"843.667 277.167 OFFCURVE",
"809.5 252.167 OFFCURVE",
"770.5 234.5 CURVE SMOOTH",
"731.5 216.833 OFFCURVE",
"688.667 208 OFFCURVE",
"642 208 CURVE SMOOTH"
);
},
{
closed = 1;
nodes = (
"1130 1549 LINE",
"939 1824 LINE",
"733 1824 LINE",
"480 1549 LINE",
"638 1549 LINE SMOOTH",
"647.333 1549 OFFCURVE",
"658.667 1550.83 OFFCURVE",
"672 1554.5 CURVE SMOOTH",
"685.333 1558.17 OFFCURVE",
"700.333 1569 OFFCURVE",
"717 1587 CURVE",
"804 1693 LINE",
"820 1715 LINE",
"822 1711.67 OFFCURVE",
"823.833 1708.17 OFFCURVE",
"825.5 1704.5 CURVE SMOOTH",
"827.167 1700.83 OFFCURVE",
"829.333 1697 OFFCURVE",
"832 1693 CURVE",
"895 1587 LINE SMOOTH",
"906.333 1569 OFFCURVE",
"918.5 1558.17 OFFCURVE",
"931.5 1554.5 CURVE SMOOTH",
"944.5 1550.83 OFFCURVE",
"955.667 1549 OFFCURVE",
"965 1549 CURVE SMOOTH"
);
}
);
width = 1383;
}
);
leftKerningGroup = U;
rightKerningGroup = U;
unicode = 00DB;
},
{
glyphname = Udieresis;
layers = (
{
layerId = "EDEFDD19-C737-4BEE-813D-BCFC1948A1E8";
name = "Bold Italic";
paths = (
{
closed = 1;
nodes = (
"116 0 LINE"
);
},
{
closed = 1;
nodes = (
"594.667 208 OFFCURVE",
"553.833 216.833 OFFCURVE",
"519.5 234.5 CURVE SMOOTH",
"485.167 252.167 OFFCURVE",
"457.167 277.167 OFFCURVE",
"435.5 309.5 CURVE SMOOTH",
"413.833 341.833 OFFCURVE",
"399.167 380.833 OFFCURVE",
"391.5 426.5 CURVE SMOOTH",
"383.833 472.167 OFFCURVE",
"383.333 522.667 OFFCURVE",
"390 578 CURVE SMOOTH",
"496 1446 LINE",
"236 1446 LINE",
"132 577 LINE SMOOTH",
"121.333 491.667 OFFCURVE",
"124.333 412.667 OFFCURVE",
"141 340 CURVE SMOOTH",
"157.667 267.333 OFFCURVE",
"186.667 204.667 OFFCURVE",
"228 152 CURVE SMOOTH",
"269.333 99.3333 OFFCURVE",
"322.5 58.1667 OFFCURVE",
"387.5 28.5 CURVE SMOOTH",
"452.5 -1 OFFCURVE",
"528 -16 OFFCURVE",
"614 -16 CURVE SMOOTH",
"700 -16 OFFCURVE",
"779.167 -1 OFFCURVE",
"851.5 28.5 CURVE SMOOTH",
"923.833 58.1667 OFFCURVE",
"987.167 99.3333 OFFCURVE",
"1041.5 152 CURVE SMOOTH",
"1095.83 204.667 OFFCURVE",
"1140.33 267.333 OFFCURVE",
"1175 340 CURVE SMOOTH",
"1209.67 412.667 OFFCURVE",
"1232.33 491.667 OFFCURVE",
"1243 577 CURVE SMOOTH",
"1350 1446 LINE",
"1090 1446 LINE",
"984 577 LINE SMOOTH",
"977.333 521.667 OFFCURVE",
"964.5 471.333 OFFCURVE",
"945.5 426 CURVE SMOOTH",
"926.5 380.667 OFFCURVE",
"902.333 341.833 OFFCURVE",
"873 309.5 CURVE SMOOTH",
"843.667 277.167 OFFCURVE",
"809.5 252.167 OFFCURVE",
"770.5 234.5 CURVE SMOOTH",
"731.5 216.833 OFFCURVE",
"688.667 208 OFFCURVE",
"642 208 CURVE SMOOTH"
);
},
{
closed = 1;
nodes = (
"766 1683.67 OFFCURVE",
"762.333 1701.5 OFFCURVE",
"755 1718.5 CURVE SMOOTH",
"747.667 1735.5 OFFCURVE",
"737.5 1750.33 OFFCURVE",
"724.5 1763 CURVE SMOOTH",
"711.5 1775.67 OFFCURVE",
"696.5 1785.67 OFFCURVE",
"679.5 1793 CURVE SMOOTH",
"662.5 1800.33 OFFCURVE",
"644.667 1804 OFFCURVE",
"626 1804 CURVE SMOOTH",
"608 1804 OFFCURVE",
"590.833 1800.33 OFFCURVE",
"574.5 1793 CURVE SMOOTH",
"558.167 1785.67 OFFCURVE",
"543.667 1775.67 OFFCURVE",
"531 1763 CURVE SMOOTH",
"518.333 1750.33 OFFCURVE",
"508.333 1735.5 OFFCURVE",
"501 1718.5 CURVE SMOOTH",
"493.667 1701.5 OFFCURVE",
"490 1683.67 OFFCURVE",
"490 1665 CURVE SMOOTH",
"490 1646.33 OFFCURVE",
"493.667 1628.83 OFFCURVE",
"501 1612.5 CURVE SMOOTH",
"508.333 1596.17 OFFCURVE",
"518.333 1581.83 OFFCURVE",
"531 1569.5 CURVE SMOOTH",
"543.667 1557.17 OFFCURVE",
"558.167 1547.5 OFFCURVE",
"574.5 1540.5 CURVE SMOOTH",
"590.833 1533.5 OFFCURVE",
"608 1530 OFFCURVE",
"626 1530 CURVE SMOOTH",
"644.667 1530 OFFCURVE",
"662.5 1533.5 OFFCURVE",
"679.5 1540.5 CURVE SMOOTH",
"696.5 1547.5 OFFCURVE",
"711.5 1557.17 OFFCURVE",
"724.5 1569.5 CURVE SMOOTH",
"737.5 1581.83 OFFCURVE",
"747.667 1596.17 OFFCURVE",
"755 1612.5 CURVE SMOOTH",
"762.333 1628.83 OFFCURVE",
"766 1646.33 OFFCURVE",
"766 1665 CURVE SMOOTH"
);
},
{
closed = 1;
nodes = (
"1165 1683.67 OFFCURVE",
"1161.33 1701.5 OFFCURVE",
"1154 1718.5 CURVE SMOOTH",
"1146.67 1735.5 OFFCURVE",
"1136.83 1750.33 OFFCURVE",
"1124.5 1763 CURVE SMOOTH",
"1112.17 1775.67 OFFCURVE",
"1097.5 1785.67 OFFCURVE",
"1080.5 1793 CURVE SMOOTH",
"1063.5 1800.33 OFFCURVE",
"1045.33 1804 OFFCURVE",
"1026 1804 CURVE SMOOTH",
"1007.33 1804 OFFCURVE",
"989.667 1800.33 OFFCURVE",
"973 1793 CURVE SMOOTH",
"956.333 1785.67 OFFCURVE",
"941.833 1775.67 OFFCURVE",
"929.5 1763 CURVE SMOOTH",
"917.167 1750.33 OFFCURVE",
"907.333 1735.5 OFFCURVE",
"900 1718.5 CURVE SMOOTH",
"892.667 1701.5 OFFCURVE",
"889 1683.67 OFFCURVE",
"889 1665 CURVE SMOOTH",
"889 1646.33 OFFCURVE",
"892.667 1628.83 OFFCURVE",
"900 1612.5 CURVE SMOOTH",
"907.333 1596.17 OFFCURVE",
"917.167 1581.83 OFFCURVE",
"929.5 1569.5 CURVE SMOOTH",
"941.833 1557.17 OFFCURVE",
"956.333 1547.5 OFFCURVE",
"973 1540.5 CURVE SMOOTH",
"989.667 1533.5 OFFCURVE",
"1007.33 1530 OFFCURVE",
"1026 1530 CURVE SMOOTH",
"1045.33 1530 OFFCURVE",
"1063.5 1533.5 OFFCURVE",
"1080.5 1540.5 CURVE SMOOTH",
"1097.5 1547.5 OFFCURVE",
"1112.17 1557.17 OFFCURVE",
"1124.5 1569.5 CURVE SMOOTH",
"1136.83 1581.83 OFFCURVE",
"1146.67 1596.17 OFFCURVE",
"1154 1612.5 CURVE SMOOTH",
"1161.33 1628.83 OFFCURVE",
"1165 1646.33 OFFCURVE",
"1165 1665 CURVE SMOOTH"
);
}
);
width = 1383;
}
);
leftKerningGroup = U;
rightKerningGroup = U;
unicode = 00DC;
},
{
glyphname = Ugrave;
layers = (
{
layerId = "EDEFDD19-C737-4BEE-813D-BCFC1948A1E8";
name = "Bold Italic";
paths = (
{
closed = 1;
nodes = (
"116 0 LINE"
);
},
{
closed = 1;
nodes = (
"594.667 208 OFFCURVE",
"553.833 216.833 OFFCURVE",
"519.5 234.5 CURVE SMOOTH",
"485.167 252.167 OFFCURVE",
"457.167 277.167 OFFCURVE",
"435.5 309.5 CURVE SMOOTH",
"413.833 341.833 OFFCURVE",
"399.167 380.833 OFFCURVE",
"391.5 426.5 CURVE SMOOTH",
"383.833 472.167 OFFCURVE",
"383.333 522.667 OFFCURVE",
"390 578 CURVE SMOOTH",
"496 1446 LINE",
"236 1446 LINE",
"132 577 LINE SMOOTH",
"121.333 491.667 OFFCURVE",
"124.333 412.667 OFFCURVE",
"141 340 CURVE SMOOTH",
"157.667 267.333 OFFCURVE",
"186.667 204.667 OFFCURVE",
"228 152 CURVE SMOOTH",
"269.333 99.3333 OFFCURVE",
"322.5 58.1667 OFFCURVE",
"387.5 28.5 CURVE SMOOTH",
"452.5 -1 OFFCURVE",
"528 -16 OFFCURVE",
"614 -16 CURVE SMOOTH",
"700 -16 OFFCURVE",
"779.167 -1 OFFCURVE",
"851.5 28.5 CURVE SMOOTH",
"923.833 58.1667 OFFCURVE",
"987.167 99.3333 OFFCURVE",
"1041.5 152 CURVE SMOOTH",
"1095.83 204.667 OFFCURVE",
"1140.33 267.333 OFFCURVE",
"1175 340 CURVE SMOOTH",
"1209.67 412.667 OFFCURVE",
"1232.33 491.667 OFFCURVE",
"1243 577 CURVE SMOOTH",
"1350 1446 LINE",
"1090 1446 LINE",
"984 577 LINE SMOOTH",
"977.333 521.667 OFFCURVE",
"964.5 471.333 OFFCURVE",
"945.5 426 CURVE SMOOTH",
"926.5 380.667 OFFCURVE",
"902.333 341.833 OFFCURVE",
"873 309.5 CURVE SMOOTH",
"843.667 277.167 OFFCURVE",
"809.5 252.167 OFFCURVE",
"770.5 234.5 CURVE SMOOTH",
"731.5 216.833 OFFCURVE",
"688.667 208 OFFCURVE",
"642 208 CURVE SMOOTH"
);
},
{
closed = 1;
nodes = (
"446 1861 LINE",
"707 1573 LINE SMOOTH",
"717.667 1561.67 OFFCURVE",
"727.833 1554.83 OFFCURVE",
"737.5 1552.5 CURVE SMOOTH",
"747.167 1550.17 OFFCURVE",
"761 1549 OFFCURVE",
"779 1549 CURVE SMOOTH",
"943 1549 LINE",
"774 1820 LINE SMOOTH",
"768 1829.33 OFFCURVE",
"762.333 1836.67 OFFCURVE",
"757 1842 CURVE SMOOTH",
"751.667 1847.33 OFFCURVE",
"745.667 1851.5 OFFCURVE",
"739 1854.5 CURVE SMOOTH",
"732.333 1857.5 OFFCURVE",
"724.5 1859.33 OFFCURVE",
"715.5 1860 CURVE SMOOTH",
"706.5 1860.67 OFFCURVE",
"696 1861 OFFCURVE",
"684 1861 CURVE SMOOTH"
);
}
);
width = 1383;
}
);
leftKerningGroup = U;
rightKerningGroup = U;
unicode = 00D9;
},
{
glyphname = V;
layers = (
{
layerId = "EDEFDD19-C737-4BEE-813D-BCFC1948A1E8";
name = "Bold Italic";
paths = (
{
closed = 1;
nodes = (
"96 1446 LINE",
"456 0 LINE",
"691 0 LINE",
"1406 1446 LINE",
"1196 1446 LINE SMOOTH",
"1174.67 1446 OFFCURVE",
"1155.5 1439.83 OFFCURVE",
"1138.5 1427.5 CURVE SMOOTH",
"1121.5 1415.17 OFFCURVE",
"1109.67 1401.67 OFFCURVE",
"1103 1387 CURVE SMOOTH",
"691 486 LINE SMOOTH",
"677 458 OFFCURVE",
"663.333 427.5 OFFCURVE",
"650 394.5 CURVE SMOOTH",
"636.667 361.5 OFFCURVE",
"624.333 327 OFFCURVE",
"613 291 CURVE",
"608.333 327 OFFCURVE",
"603 361.5 OFFCURVE",
"597 394.5 CURVE SMOOTH",
"591 427.5 OFFCURVE",
"584.333 458 OFFCURVE",
"577 486 CURVE",
"383 1387 LINE SMOOTH",
"379.667 1404.33 OFFCURVE",
"371.5 1418.5 OFFCURVE",
"358.5 1429.5 CURVE SMOOTH",
"345.5 1440.5 OFFCURVE",
"327.667 1446 OFFCURVE",
"305 1446 CURVE SMOOTH"
);
}
);
width = 1298;
}
);
leftKerningGroup = V;
rightKerningGroup = V;
unicode = 0056;
},
{
glyphname = W;
layers = (
{
layerId = "EDEFDD19-C737-4BEE-813D-BCFC1948A1E8";
name = "Bold Italic";
paths = (
{
closed = 1;
nodes = (
"112 1446 LINE",
"348 0 LINE",
"581 0 LINE",
"990 1002 LINE SMOOTH",
"995.333 1014.67 OFFCURVE",
"1000.83 1028.5 OFFCURVE",
"1006.5 1043.5 CURVE SMOOTH",
"1012.17 1058.5 OFFCURVE",
"1017.67 1074.33 OFFCURVE",
"1023 1091 CURVE",
"1024.33 1074.33 OFFCURVE",
"1026.17 1058.5 OFFCURVE",
"1028.5 1043.5 CURVE SMOOTH",
"1030.83 1028.5 OFFCURVE",
"1033 1014.67 OFFCURVE",
"1035 1002 CURVE SMOOTH",
"1198 0 LINE",
"1433 0 LINE",
"2024 1446 LINE",
"1819 1446 LINE SMOOTH",
"1808.33 1446 OFFCURVE",
"1797.83 1444.33 OFFCURVE",
"1787.5 1441 CURVE SMOOTH",
"1777.17 1437.67 OFFCURVE",
"1767.83 1433.33 OFFCURVE",
"1759.5 1428 CURVE SMOOTH",
"1751.17 1422.67 OFFCURVE",
"1744 1416.5 OFFCURVE",
"1738 1409.5 CURVE SMOOTH",
"1732 1402.5 OFFCURVE",
"1727.67 1395 OFFCURVE",
"1725 1387 CURVE",
"1382 500 LINE",
"1374.67 478.667 OFFCURVE",
"1367.33 456.167 OFFCURVE",
"1360 432.5 CURVE SMOOTH",
"1352.67 408.833 OFFCURVE",
"1345.33 384 OFFCURVE",
"1338 358 CURVE",
"1336 384 OFFCURVE",
"1333.5 409 OFFCURVE",
"1330.5 433 CURVE SMOOTH",
"1327.5 457 OFFCURVE",
"1324.33 479.333 OFFCURVE",
"1321 500 CURVE SMOOTH",
"1177 1387 LINE",
"1171.67 1404.33 OFFCURVE",
"1162.67 1418.5 OFFCURVE",
"1150 1429.5 CURVE SMOOTH",
"1137.33 1440.5 OFFCURVE",
"1119.67 1446 OFFCURVE",
"1097 1446 CURVE SMOOTH",
"1036 1446 LINE SMOOTH",
"1014.67 1446 OFFCURVE",
"995.833 1439.83 OFFCURVE",
"979.5 1427.5 CURVE SMOOTH",
"963.167 1415.17 OFFCURVE",
"951.333 1401.67 OFFCURVE",
"944 1387 CURVE",
"584 500 LINE SMOOTH",
"566 456.667 OFFCURVE",
"548.333 407.667 OFFCURVE",
"531 353 CURVE",
"529.667 380.333 OFFCURVE",
"528.167 406.333 OFFCURVE",
"526.5 431 CURVE SMOOTH",
"524.833 455.667 OFFCURVE",
"523 478.667 OFFCURVE",
"521 500 CURVE",
"394 1387 LINE SMOOTH",
"391.333 1404.33 OFFCURVE",
"383.167 1418.5 OFFCURVE",
"369.5 1429.5 CURVE SMOOTH",
"355.833 1440.5 OFFCURVE",
"337.667 1446 OFFCURVE",
"315 1446 CURVE SMOOTH"
);
}
);
width = 1937;
}
);
leftKerningGroup = W;
rightKerningGroup = W;
unicode = 0057;
},
{
glyphname = X;
lastChange = "2014-08-21 04:52:40 -0500";
layers = (
{
layerId = "EDEFDD19-C737-4BEE-813D-BCFC1948A1E8";
name = "Bold Italic";
paths = (
{
closed = 1;
nodes = (
"474 772 LINE",
"-84 0 LINE",
"175 0 LINE SMOOTH",
"190.333 0 OFFCURVE",
"204.833 3.33333 OFFCURVE",
"218.5 10 CURVE SMOOTH",
"232.167 16.6667 OFFCURVE",
"244.667 28.3333 OFFCURVE",
"256 45 CURVE SMOOTH",
"630 592 LINE SMOOTH",
"633.333 596.667 OFFCURVE",
"636.5 601.667 OFFCURVE",
"639.5 607 CURVE SMOOTH",
"642.5 612.333 OFFCURVE",
"645.667 617.667 OFFCURVE",
"649 623 CURVE",
"899 44.9999 LINE SMOOTH",
"904.333 33.6666 OFFCURVE",
"911.833 23.3333 OFFCURVE",
"921.5 13.9999 CURVE SMOOTH",
"931.167 4.66661 OFFCURVE",
"927 13 OFFCURVE",
"942 -6 CURVE",
"1195 -6 LINE",
"832 784 LINE",
"1324 1446 LINE",
"1053 1446 LINE SMOOTH",
"1029.67 1446 OFFCURVE",
"1010 1434 OFFCURVE",
"994 1410 CURVE SMOOTH",
"686 956 LINE SMOOTH",
"681.333 948.667 OFFCURVE",
"677 941.667 OFFCURVE",
"673 935 CURVE SMOOTH",
"669 928.333 OFFCURVE",
"665.333 921.667 OFFCURVE",
"662 915 CURVE",
"441 1413 LINE SMOOTH",
"435.667 1425 OFFCURVE",
"429 1433.5 OFFCURVE",
"421 1438.5 CURVE SMOOTH",
"413 1443.5 OFFCURVE",
"400.333 1446 OFFCURVE",
"383 1446 CURVE SMOOTH",
"148 1446 LINE"
);
}
);
width = 1261;
}
);
leftKerningGroup = X;
rightKerningGroup = X;
unicode = 0058;
},
{
glyphname = Y;
layers = (
{
layerId = "EDEFDD19-C737-4BEE-813D-BCFC1948A1E8";
name = "Bold Italic";
paths = (
{
closed = 1;
nodes = (
"731 563 LINE",
"1324 1446 LINE",
"1109 1446 LINE SMOOTH",
"1087.67 1446 OFFCURVE",
"1069.33 1440 OFFCURVE",
"1054 1428 CURVE SMOOTH",
"1038.67 1416 OFFCURVE",
"1026.33 1402.33 OFFCURVE",
"1017 1387 CURVE SMOOTH",
"706 887 LINE SMOOTH",
"690.667 861.667 OFFCURVE",
"677 837.667 OFFCURVE",
"665 815 CURVE SMOOTH",
"653 792.333 OFFCURVE",
"641.667 770 OFFCURVE",
"631 748 CURVE",
"626.333 770 OFFCURVE",
"621 792.5 OFFCURVE",
"615 815.5 CURVE SMOOTH",
"609 838.5 OFFCURVE",
"601.667 862.333 OFFCURVE",
"593 887 CURVE SMOOTH",
"407 1387 LINE SMOOTH",
"401 1405 OFFCURVE",
"391.667 1419.33 OFFCURVE",
"379 1430 CURVE SMOOTH",
"366.333 1440.67 OFFCURVE",
"348.666 1446 OFFCURVE",
"326 1446 CURVE SMOOTH",
"94.9998 1446 LINE",
"472 562 LINE",
"402 0 LINE",
"661 0 LINE"
);
}
);
width = 1215;
}
);
leftKerningGroup = Y;
rightKerningGroup = Y;
unicode = 0059;
},
{
glyphname = Yacute;
layers = (
{
layerId = "EDEFDD19-C737-4BEE-813D-BCFC1948A1E8";
name = "Bold Italic";
paths = (
{
closed = 1;
nodes = (
"95 0 LINE"
);
},
{
closed = 1;
nodes = (
"731 563 LINE",
"1324 1446 LINE",
"1109 1446 LINE SMOOTH",
"1087.67 1446 OFFCURVE",
"1069.33 1440 OFFCURVE",
"1054 1428 CURVE SMOOTH",
"1038.67 1416 OFFCURVE",
"1026.33 1402.33 OFFCURVE",
"1017 1387 CURVE SMOOTH",
"706 887 LINE SMOOTH",
"690.667 861.667 OFFCURVE",
"677 837.667 OFFCURVE",
"665 815 CURVE SMOOTH",
"653 792.333 OFFCURVE",
"641.667 770 OFFCURVE",
"631 748 CURVE",
"626.333 770 OFFCURVE",
"621 792.5 OFFCURVE",
"615 815.5 CURVE SMOOTH",
"609 838.5 OFFCURVE",
"601.667 862.333 OFFCURVE",
"593 887 CURVE SMOOTH",
"407 1387 LINE SMOOTH",
"401 1405 OFFCURVE",
"391.667 1419.33 OFFCURVE",
"379 1430 CURVE SMOOTH",
"366.333 1440.67 OFFCURVE",
"348.666 1446 OFFCURVE",
"326 1446 CURVE SMOOTH",
"94.9998 1446 LINE",
"472 562 LINE",
"402 0 LINE",
"661 0 LINE"
);
},
{
closed = 1;
nodes = (
"1140 1861 LINE",
"888 1861 LINE SMOOTH",
"876 1861 OFFCURVE",
"865.5 1860.67 OFFCURVE",
"856.5 1860 CURVE SMOOTH",
"847.5 1859.33 OFFCURVE",
"839.166 1857.67 OFFCURVE",
"831.5 1855 CURVE SMOOTH",
"823.833 1852.33 OFFCURVE",
"816.666 1848.17 OFFCURVE",
"810 1842.5 CURVE SMOOTH",
"803.333 1836.83 OFFCURVE",
"796.333 1829.33 OFFCURVE",
"789 1820 CURVE SMOOTH",
"566 1549 LINE",
"730 1549 LINE SMOOTH",
"747.333 1549 OFFCURVE",
"761.5 1550.33 OFFCURVE",
"772.5 1553 CURVE SMOOTH",
"783.5 1555.67 OFFCURVE",
"796 1563 OFFCURVE",
"810 1575 CURVE SMOOTH"
);
}
);
width = 1215;
}
);
leftKerningGroup = Y;
rightKerningGroup = Y;
unicode = 00DD;
},
{
glyphname = Ydieresis;
layers = (
{
layerId = "EDEFDD19-C737-4BEE-813D-BCFC1948A1E8";
name = "Bold Italic";
paths = (
{
closed = 1;
nodes = (
"95 0 LINE"
);
},
{
closed = 1;
nodes = (
"731 563 LINE",
"1324 1446 LINE",
"1109 1446 LINE SMOOTH",
"1087.67 1446 OFFCURVE",
"1069.33 1440 OFFCURVE",
"1054 1428 CURVE SMOOTH",
"1038.67 1416 OFFCURVE",
"1026.33 1402.33 OFFCURVE",
"1017 1387 CURVE SMOOTH",
"706 887 LINE SMOOTH",
"690.667 861.667 OFFCURVE",
"677 837.667 OFFCURVE",
"665 815 CURVE SMOOTH",
"653 792.333 OFFCURVE",
"641.667 770 OFFCURVE",
"631 748 CURVE",
"626.333 770 OFFCURVE",
"621 792.5 OFFCURVE",
"615 815.5 CURVE SMOOTH",
"609 838.5 OFFCURVE",
"601.667 862.333 OFFCURVE",
"593 887 CURVE SMOOTH",
"407 1387 LINE SMOOTH",
"401 1405 OFFCURVE",
"391.667 1419.33 OFFCURVE",
"379 1430 CURVE SMOOTH",
"366.333 1440.67 OFFCURVE",
"348.666 1446 OFFCURVE",
"326 1446 CURVE SMOOTH",
"94.9998 1446 LINE",
"472 562 LINE",
"402 0 LINE",
"661 0 LINE"
);
},
{
closed = 1;
nodes = (
"666 1683.67 OFFCURVE",
"662.333 1701.5 OFFCURVE",
"655 1718.5 CURVE SMOOTH",
"647.667 1735.5 OFFCURVE",
"637.5 1750.33 OFFCURVE",
"624.5 1763 CURVE SMOOTH",
"611.5 1775.67 OFFCURVE",
"596.5 1785.67 OFFCURVE",
"579.5 1793 CURVE SMOOTH",
"562.5 1800.33 OFFCURVE",
"544.667 1804 OFFCURVE",
"526 1804 CURVE SMOOTH",
"508 1804 OFFCURVE",
"490.833 1800.33 OFFCURVE",
"474.5 1793 CURVE SMOOTH",
"458.167 1785.67 OFFCURVE",
"443.667 1775.67 OFFCURVE",
"431 1763 CURVE SMOOTH",
"418.333 1750.33 OFFCURVE",
"408.333 1735.5 OFFCURVE",
"401 1718.5 CURVE SMOOTH",
"393.667 1701.5 OFFCURVE",
"390 1683.67 OFFCURVE",
"390 1665 CURVE SMOOTH",
"390 1646.33 OFFCURVE",
"393.667 1628.83 OFFCURVE",
"401 1612.5 CURVE SMOOTH",
"408.333 1596.17 OFFCURVE",
"418.333 1581.83 OFFCURVE",
"431 1569.5 CURVE SMOOTH",
"443.667 1557.17 OFFCURVE",
"458.167 1547.5 OFFCURVE",
"474.5 1540.5 CURVE SMOOTH",
"490.833 1533.5 OFFCURVE",
"508 1530 OFFCURVE",
"526 1530 CURVE SMOOTH",
"544.667 1530 OFFCURVE",
"562.5 1533.5 OFFCURVE",
"579.5 1540.5 CURVE SMOOTH",
"596.5 1547.5 OFFCURVE",
"611.5 1557.17 OFFCURVE",
"624.5 1569.5 CURVE SMOOTH",
"637.5 1581.83 OFFCURVE",
"647.667 1596.17 OFFCURVE",
"655 1612.5 CURVE SMOOTH",
"662.333 1628.83 OFFCURVE",
"666 1646.33 OFFCURVE",
"666 1665 CURVE SMOOTH"
);
},
{
closed = 1;
nodes = (
"1065 1683.67 OFFCURVE",
"1061.33 1701.5 OFFCURVE",
"1054 1718.5 CURVE SMOOTH",
"1046.67 1735.5 OFFCURVE",
"1036.83 1750.33 OFFCURVE",
"1024.5 1763 CURVE SMOOTH",
"1012.17 1775.67 OFFCURVE",
"997.5 1785.67 OFFCURVE",
"980.5 1793 CURVE SMOOTH",
"963.5 1800.33 OFFCURVE",
"945.333 1804 OFFCURVE",
"926 1804 CURVE SMOOTH",
"907.333 1804 OFFCURVE",
"889.666 1800.33 OFFCURVE",
"873 1793 CURVE SMOOTH",
"856.333 1785.67 OFFCURVE",
"841.833 1775.67 OFFCURVE",
"829.5 1763 CURVE SMOOTH",
"817.166 1750.33 OFFCURVE",
"807.333 1735.5 OFFCURVE",
"800 1718.5 CURVE SMOOTH",
"792.666 1701.5 OFFCURVE",
"789 1683.67 OFFCURVE",
"789 1665 CURVE SMOOTH",
"789 1646.33 OFFCURVE",
"792.666 1628.83 OFFCURVE",
"800 1612.5 CURVE SMOOTH",
"807.333 1596.17 OFFCURVE",
"817.166 1581.83 OFFCURVE",
"829.5 1569.5 CURVE SMOOTH",
"841.833 1557.17 OFFCURVE",
"856.333 1547.5 OFFCURVE",
"873 1540.5 CURVE SMOOTH",
"889.666 1533.5 OFFCURVE",
"907.333 1530 OFFCURVE",
"926 1530 CURVE SMOOTH",
"945.333 1530 OFFCURVE",
"963.5 1533.5 OFFCURVE",
"980.5 1540.5 CURVE SMOOTH",
"997.5 1547.5 OFFCURVE",
"1012.17 1557.17 OFFCURVE",
"1024.5 1569.5 CURVE SMOOTH",
"1036.83 1581.83 OFFCURVE",
"1046.67 1596.17 OFFCURVE",
"1054 1612.5 CURVE SMOOTH",
"1061.33 1628.83 OFFCURVE",
"1065 1646.33 OFFCURVE",
"1065 1665 CURVE SMOOTH"
);
}
);
width = 1215;
}
);
leftKerningGroup = Y;
rightKerningGroup = Y;
unicode = 0178;
},
{
glyphname = Z;
layers = (
{
layerId = "EDEFDD19-C737-4BEE-813D-BCFC1948A1E8";
name = "Bold Italic";
paths = (
{
closed = 1;
nodes = (
"1174 1446 LINE",
"185 1446 LINE",
"160 1239 LINE",
"802 1239 LINE",
"1 141 LINE",
"-6 131 OFFCURVE",
"-12 121 OFFCURVE",
"-17 111 CURVE SMOOTH",
"-22 101 OFFCURVE",
"-26 90.3333 OFFCURVE",
"-27 79 CURVE SMOOTH",
"-37 0 LINE",
"979 0 LINE",
"1005 207 LINE",
"335 207 LINE",
"1134 1303 LINE SMOOTH",
"1141.33 1313 OFFCURVE",
"1147.5 1323 OFFCURVE",
"1152.5 1333 CURVE SMOOTH",
"1157.5 1343 OFFCURVE",
"1161 1353.67 OFFCURVE",
"1163 1365 CURVE"
);
}
);
width = 1122;
}
);
leftKerningGroup = Z;
rightKerningGroup = Z;
unicode = 005A;
},
{
glyphname = a;
layers = (
{
layerId = "EDEFDD19-C737-4BEE-813D-BCFC1948A1E8";
name = "Bold Italic";
paths = (
{
closed = 1;
nodes = (
"855 0 LINE",
"978 995 LINE",
"934 1012.33 OFFCURVE",
"888.833 1024.33 OFFCURVE",
"842.5 1031 CURVE SMOOTH",
"796.167 1037.67 OFFCURVE",
"750 1041 OFFCURVE",
"704 1041 CURVE SMOOTH",
"640 1041 OFFCURVE",
"579.167 1032.5 OFFCURVE",
"521.5 1015.5 CURVE SMOOTH",
"463.833 998.5 OFFCURVE",
"410.167 974.667 OFFCURVE",
"360.5 944 CURVE SMOOTH",
"310.833 913.333 OFFCURVE",
"266 876.667 OFFCURVE",
"226 834 CURVE SMOOTH",
"186 791.333 OFFCURVE",
"151.833 744.5 OFFCURVE",
"123.5 693.5 CURVE SMOOTH",
"95.1667 642.5 OFFCURVE",
"73.3333 588 OFFCURVE",
"58 530 CURVE SMOOTH",
"42.6667 472 OFFCURVE",
"35 412.333 OFFCURVE",
"35 351 CURVE SMOOTH",
"35 289.667 OFFCURVE",
"42.1667 236.167 OFFCURVE",
"56.5 190.5 CURVE SMOOTH",
"70.8333 144.833 OFFCURVE",
"90.5 106.833 OFFCURVE",
"115.5 76.4998 CURVE SMOOTH",
"140.5 46.1665 OFFCURVE",
"169.833 23.3332 OFFCURVE",
"203.5 7.99983 CURVE SMOOTH",
"237.167 -7 OFFCURVE",
"273.333 -15 OFFCURVE",
"312 -15 CURVE SMOOTH",
"380 -15 OFFCURVE",
"442.333 5.49983 OFFCURVE",
"499 46.4998 CURVE SMOOTH",
"555.667 87.4998 OFFCURVE",
"606.667 143.333 OFFCURVE",
"652 214 CURVE",
"644 81.9998 LINE",
"644 58.6665 OFFCURVE",
"649.5 39.1665 OFFCURVE",
"660.5 23.4998 CURVE SMOOTH",
"671.5 7.83316 OFFCURVE",
"692.667 0 OFFCURVE",
"724 0 CURVE SMOOTH"
);
},
{
closed = 1;
nodes = (
"369.667 187 OFFCURVE",
"338.667 203.667 OFFCURVE",
"316 237 CURVE SMOOTH",
"293.333 270.333 OFFCURVE",
"282 323 OFFCURVE",
"282 395 CURVE SMOOTH",
"282 458.333 OFFCURVE",
"291.833 518.5 OFFCURVE",
"311.5 575.5 CURVE SMOOTH",
"331.167 632.5 OFFCURVE",
"358.167 682.5 OFFCURVE",
"392.5 725.5 CURVE SMOOTH",
"426.833 768.5 OFFCURVE",
"467.667 802.667 OFFCURVE",
"515 828 CURVE SMOOTH",
"562.333 853.333 OFFCURVE",
"613.667 866 OFFCURVE",
"669 866 CURVE SMOOTH",
"685 866 OFFCURVE",
"702 865 OFFCURVE",
"720 863 CURVE",
"681 554 LINE",
"666.333 502.667 OFFCURVE",
"649 454.667 OFFCURVE",
"629 410 CURVE SMOOTH",
"609 365.333 OFFCURVE",
"587.333 326.5 OFFCURVE",
"564 293.5 CURVE SMOOTH",
"540.667 260.5 OFFCURVE",
"515.833 234.5 OFFCURVE",
"489.5 215.5 CURVE SMOOTH",
"463.167 196.5 OFFCURVE",
"436.333 187 OFFCURVE",
"409 187 CURVE SMOOTH"
);
}
);
width = 1042;
}
);
leftKerningGroup = a;
rightKerningGroup = a;
unicode = 0061;
},
{
glyphname = aacute;
layers = (
{
layerId = "EDEFDD19-C737-4BEE-813D-BCFC1948A1E8";
name = "Bold Italic";
paths = (
{
closed = 1;
nodes = (
"35 0 LINE"
);
},
{
closed = 1;
nodes = (
"855 0 LINE",
"978 995 LINE",
"934 1012.33 OFFCURVE",
"888.833 1024.33 OFFCURVE",
"842.5 1031 CURVE SMOOTH",
"796.167 1037.67 OFFCURVE",
"750 1041 OFFCURVE",
"704 1041 CURVE SMOOTH",
"640 1041 OFFCURVE",
"579.167 1032.5 OFFCURVE",
"521.5 1015.5 CURVE SMOOTH",
"463.833 998.5 OFFCURVE",
"410.167 974.667 OFFCURVE",
"360.5 944 CURVE SMOOTH",
"310.833 913.333 OFFCURVE",
"266 876.667 OFFCURVE",
"226 834 CURVE SMOOTH",
"186 791.333 OFFCURVE",
"151.833 744.5 OFFCURVE",
"123.5 693.5 CURVE SMOOTH",
"95.1667 642.5 OFFCURVE",
"73.3333 588 OFFCURVE",
"58 530 CURVE SMOOTH",
"42.6667 472 OFFCURVE",
"35 412.333 OFFCURVE",
"35 351 CURVE SMOOTH",
"35 289.667 OFFCURVE",
"42.1667 236.167 OFFCURVE",
"56.5 190.5 CURVE SMOOTH",
"70.8333 144.833 OFFCURVE",
"90.5 106.833 OFFCURVE",
"115.5 76.4998 CURVE SMOOTH",
"140.5 46.1665 OFFCURVE",
"169.833 23.3332 OFFCURVE",
"203.5 7.99983 CURVE SMOOTH",
"237.167 -7 OFFCURVE",
"273.333 -15 OFFCURVE",
"312 -15 CURVE SMOOTH",
"380 -15 OFFCURVE",
"442.333 5.49983 OFFCURVE",
"499 46.4998 CURVE SMOOTH",
"555.667 87.4998 OFFCURVE",
"606.667 143.333 OFFCURVE",
"652 214 CURVE",
"644 81.9998 LINE",
"644 58.6665 OFFCURVE",
"649.5 39.1665 OFFCURVE",
"660.5 23.4998 CURVE SMOOTH",
"671.5 7.83316 OFFCURVE",
"692.667 0 OFFCURVE",
"724 0 CURVE SMOOTH"
);
},
{
closed = 1;
nodes = (
"369.667 187 OFFCURVE",
"338.667 203.667 OFFCURVE",
"316 237 CURVE SMOOTH",
"293.333 270.333 OFFCURVE",
"282 323 OFFCURVE",
"282 395 CURVE SMOOTH",
"282 458.333 OFFCURVE",
"291.833 518.5 OFFCURVE",
"311.5 575.5 CURVE SMOOTH",
"331.167 632.5 OFFCURVE",
"358.167 682.5 OFFCURVE",
"392.5 725.5 CURVE SMOOTH",
"426.833 768.5 OFFCURVE",
"467.667 802.667 OFFCURVE",
"515 828 CURVE SMOOTH",
"562.333 853.333 OFFCURVE",
"613.667 866 OFFCURVE",
"669 866 CURVE SMOOTH",
"685 866 OFFCURVE",
"702 865 OFFCURVE",
"720 863 CURVE",
"681 554 LINE",
"666.333 502.667 OFFCURVE",
"649 454.667 OFFCURVE",
"629 410 CURVE SMOOTH",
"609 365.333 OFFCURVE",
"587.333 326.5 OFFCURVE",
"564 293.5 CURVE SMOOTH",
"540.667 260.5 OFFCURVE",
"515.833 234.5 OFFCURVE",
"489.5 215.5 CURVE SMOOTH",
"463.167 196.5 OFFCURVE",
"436.333 187 OFFCURVE",
"409 187 CURVE SMOOTH"
);
},
{
closed = 1;
nodes = (
"1069 1462 LINE",
"849 1462 LINE SMOOTH",
"824.333 1462 OFFCURVE",
"805.333 1457.5 OFFCURVE",
"792 1448.5 CURVE SMOOTH",
"778.667 1439.5 OFFCURVE",
"766.333 1426.33 OFFCURVE",
"755 1409 CURVE SMOOTH",
"597 1166 LINE",
"733 1166 LINE SMOOTH",
"750.333 1166 OFFCURVE",
"764.667 1168.5 OFFCURVE",
"776 1173.5 CURVE SMOOTH",
"787.333 1178.5 OFFCURVE",
"799.333 1187.67 OFFCURVE",
"812 1201 CURVE SMOOTH"
);
}
);
width = 1042;
}
);
leftKerningGroup = a;
rightKerningGroup = a;
unicode = 00E1;
},
{
glyphname = acircumflex;
layers = (
{
layerId = "EDEFDD19-C737-4BEE-813D-BCFC1948A1E8";
name = "Bold Italic";
paths = (
{
closed = 1;
nodes = (
"35 0 LINE"
);
},
{
closed = 1;
nodes = (
"855 0 LINE",
"978 995 LINE",
"934 1012.33 OFFCURVE",
"888.833 1024.33 OFFCURVE",
"842.5 1031 CURVE SMOOTH",
"796.167 1037.67 OFFCURVE",
"750 1041 OFFCURVE",
"704 1041 CURVE SMOOTH",
"640 1041 OFFCURVE",
"579.167 1032.5 OFFCURVE",
"521.5 1015.5 CURVE SMOOTH",
"463.833 998.5 OFFCURVE",
"410.167 974.667 OFFCURVE",
"360.5 944 CURVE SMOOTH",
"310.833 913.333 OFFCURVE",
"266 876.667 OFFCURVE",
"226 834 CURVE SMOOTH",
"186 791.333 OFFCURVE",
"151.833 744.5 OFFCURVE",
"123.5 693.5 CURVE SMOOTH",
"95.1667 642.5 OFFCURVE",
"73.3333 588 OFFCURVE",
"58 530 CURVE SMOOTH",
"42.6667 472 OFFCURVE",
"35 412.333 OFFCURVE",
"35 351 CURVE SMOOTH",
"35 289.667 OFFCURVE",
"42.1667 236.167 OFFCURVE",
"56.5 190.5 CURVE SMOOTH",
"70.8333 144.833 OFFCURVE",
"90.5 106.833 OFFCURVE",
"115.5 76.4998 CURVE SMOOTH",
"140.5 46.1665 OFFCURVE",
"169.833 23.3332 OFFCURVE",
"203.5 7.99983 CURVE SMOOTH",
"237.167 -7 OFFCURVE",
"273.333 -15 OFFCURVE",
"312 -15 CURVE SMOOTH",
"380 -15 OFFCURVE",
"442.333 5.49983 OFFCURVE",
"499 46.4998 CURVE SMOOTH",
"555.667 87.4998 OFFCURVE",
"606.667 143.333 OFFCURVE",
"652 214 CURVE",
"644 81.9998 LINE",
"644 58.6665 OFFCURVE",
"649.5 39.1665 OFFCURVE",
"660.5 23.4998 CURVE SMOOTH",
"671.5 7.83316 OFFCURVE",
"692.667 0 OFFCURVE",
"724 0 CURVE SMOOTH"
);
},
{
closed = 1;
nodes = (
"369.667 187 OFFCURVE",
"338.667 203.667 OFFCURVE",
"316 237 CURVE SMOOTH",
"293.333 270.333 OFFCURVE",
"282 323 OFFCURVE",
"282 395 CURVE SMOOTH",
"282 458.333 OFFCURVE",
"291.833 518.5 OFFCURVE",
"311.5 575.5 CURVE SMOOTH",
"331.167 632.5 OFFCURVE",
"358.167 682.5 OFFCURVE",
"392.5 725.5 CURVE SMOOTH",
"426.833 768.5 OFFCURVE",
"467.667 802.667 OFFCURVE",
"515 828 CURVE SMOOTH",
"562.333 853.333 OFFCURVE",
"613.667 866 OFFCURVE",
"669 866 CURVE SMOOTH",
"685 866 OFFCURVE",
"702 865 OFFCURVE",
"720 863 CURVE",
"681 554 LINE",
"666.333 502.667 OFFCURVE",
"649 454.667 OFFCURVE",
"629 410 CURVE SMOOTH",
"609 365.333 OFFCURVE",
"587.333 326.5 OFFCURVE",
"564 293.5 CURVE SMOOTH",
"540.667 260.5 OFFCURVE",
"515.833 234.5 OFFCURVE",
"489.5 215.5 CURVE SMOOTH",
"463.167 196.5 OFFCURVE",
"436.333 187 OFFCURVE",
"409 187 CURVE SMOOTH"
);
},
{
closed = 1;
nodes = (
"994 1168 LINE",
"815 1446 LINE",
"601 1446 LINE",
"359 1168 LINE",
"517 1168 LINE SMOOTH",
"526.333 1168 OFFCURVE",
"535.667 1170 OFFCURVE",
"545 1174 CURVE SMOOTH",
"554.333 1178 OFFCURVE",
"563.333 1184.33 OFFCURVE",
"572 1193 CURVE SMOOTH",
"675 1297 LINE",
"686 1308 LINE SMOOTH",
"690 1312 OFFCURVE",
"693.667 1316.33 OFFCURVE",
"697 1321 CURVE",
"700.333 1316.33 OFFCURVE",
"703.167 1312 OFFCURVE",
"705.5 1308 CURVE SMOOTH",
"707.833 1304 OFFCURVE",
"710.667 1300.33 OFFCURVE",
"714 1297 CURVE",
"792 1193 LINE",
"800 1183.67 OFFCURVE",
"808.167 1177.17 OFFCURVE",
"816.5 1173.5 CURVE SMOOTH",
"824.833 1169.83 OFFCURVE",
"833.333 1168 OFFCURVE",
"842 1168 CURVE SMOOTH"
);
}
);
width = 1042;
}
);
leftKerningGroup = a;
rightKerningGroup = a;
unicode = 00E2;
},
{
glyphname = adieresis;
layers = (
{
layerId = "EDEFDD19-C737-4BEE-813D-BCFC1948A1E8";
name = "Bold Italic";
paths = (
{
closed = 1;
nodes = (
"35 0 LINE"
);
},
{
closed = 1;
nodes = (
"855 0 LINE",
"978 995 LINE",
"934 1012.33 OFFCURVE",
"888.833 1024.33 OFFCURVE",
"842.5 1031 CURVE SMOOTH",
"796.167 1037.67 OFFCURVE",
"750 1041 OFFCURVE",
"704 1041 CURVE SMOOTH",
"640 1041 OFFCURVE",
"579.167 1032.5 OFFCURVE",
"521.5 1015.5 CURVE SMOOTH",
"463.833 998.5 OFFCURVE",
"410.167 974.667 OFFCURVE",
"360.5 944 CURVE SMOOTH",
"310.833 913.333 OFFCURVE",
"266 876.667 OFFCURVE",
"226 834 CURVE SMOOTH",
"186 791.333 OFFCURVE",
"151.833 744.5 OFFCURVE",
"123.5 693.5 CURVE SMOOTH",
"95.1667 642.5 OFFCURVE",
"73.3333 588 OFFCURVE",
"58 530 CURVE SMOOTH",
"42.6667 472 OFFCURVE",
"35 412.333 OFFCURVE",
"35 351 CURVE SMOOTH",
"35 289.667 OFFCURVE",
"42.1667 236.167 OFFCURVE",
"56.5 190.5 CURVE SMOOTH",
"70.8333 144.833 OFFCURVE",
"90.5 106.833 OFFCURVE",
"115.5 76.4998 CURVE SMOOTH",
"140.5 46.1665 OFFCURVE",
"169.833 23.3332 OFFCURVE",
"203.5 7.99983 CURVE SMOOTH",
"237.167 -7 OFFCURVE",
"273.333 -15 OFFCURVE",
"312 -15 CURVE SMOOTH",
"380 -15 OFFCURVE",
"442.333 5.49983 OFFCURVE",
"499 46.4998 CURVE SMOOTH",
"555.667 87.4998 OFFCURVE",
"606.667 143.333 OFFCURVE",
"652 214 CURVE",
"644 81.9998 LINE",
"644 58.6665 OFFCURVE",
"649.5 39.1665 OFFCURVE",
"660.5 23.4998 CURVE SMOOTH",
"671.5 7.83316 OFFCURVE",
"692.667 0 OFFCURVE",
"724 0 CURVE SMOOTH"
);
},
{
closed = 1;
nodes = (
"369.667 187 OFFCURVE",
"338.667 203.667 OFFCURVE",
"316 237 CURVE SMOOTH",
"293.333 270.333 OFFCURVE",
"282 323 OFFCURVE",
"282 395 CURVE SMOOTH",
"282 458.333 OFFCURVE",
"291.833 518.5 OFFCURVE",
"311.5 575.5 CURVE SMOOTH",
"331.167 632.5 OFFCURVE",
"358.167 682.5 OFFCURVE",
"392.5 725.5 CURVE SMOOTH",
"426.833 768.5 OFFCURVE",
"467.667 802.667 OFFCURVE",
"515 828 CURVE SMOOTH",
"562.333 853.333 OFFCURVE",
"613.667 866 OFFCURVE",
"669 866 CURVE SMOOTH",
"685 866 OFFCURVE",
"702 865 OFFCURVE",
"720 863 CURVE",
"681 554 LINE",
"666.333 502.667 OFFCURVE",
"649 454.667 OFFCURVE",
"629 410 CURVE SMOOTH",
"609 365.333 OFFCURVE",
"587.333 326.5 OFFCURVE",
"564 293.5 CURVE SMOOTH",
"540.667 260.5 OFFCURVE",
"515.833 234.5 OFFCURVE",
"489.5 215.5 CURVE SMOOTH",
"463.167 196.5 OFFCURVE",
"436.333 187 OFFCURVE",
"409 187 CURVE SMOOTH"
);
},
{
closed = 1;
nodes = (
"660 1311.33 OFFCURVE",
"656.333 1329.5 OFFCURVE",
"649 1346.5 CURVE SMOOTH",
"641.667 1363.5 OFFCURVE",
"631.5 1378.33 OFFCURVE",
"618.5 1391 CURVE SMOOTH",
"605.5 1403.67 OFFCURVE",
"590.5 1413.67 OFFCURVE",
"573.5 1421 CURVE SMOOTH",
"556.5 1428.33 OFFCURVE",
"538.667 1432 OFFCURVE",
"520 1432 CURVE SMOOTH",
"502 1432 OFFCURVE",
"484.833 1428.33 OFFCURVE",
"468.5 1421 CURVE SMOOTH",
"452.167 1413.67 OFFCURVE",
"437.667 1403.67 OFFCURVE",
"425 1391 CURVE SMOOTH",
"412.333 1378.33 OFFCURVE",
"402.333 1363.5 OFFCURVE",
"395 1346.5 CURVE SMOOTH",
"387.667 1329.5 OFFCURVE",
"384 1311.33 OFFCURVE",
"384 1292 CURVE SMOOTH",
"384 1273.33 OFFCURVE",
"387.667 1255.83 OFFCURVE",
"395 1239.5 CURVE SMOOTH",
"402.333 1223.17 OFFCURVE",
"412.333 1209 OFFCURVE",
"425 1197 CURVE SMOOTH",
"437.667 1185 OFFCURVE",
"452.167 1175.5 OFFCURVE",
"468.5 1168.5 CURVE SMOOTH",
"484.833 1161.5 OFFCURVE",
"502 1158 OFFCURVE",
"520 1158 CURVE SMOOTH",
"538.667 1158 OFFCURVE",
"556.5 1161.5 OFFCURVE",
"573.5 1168.5 CURVE SMOOTH",
"590.5 1175.5 OFFCURVE",
"605.5 1185 OFFCURVE",
"618.5 1197 CURVE SMOOTH",
"631.5 1209 OFFCURVE",
"641.667 1223.17 OFFCURVE",
"649 1239.5 CURVE SMOOTH",
"656.333 1255.83 OFFCURVE",
"660 1273.33 OFFCURVE",
"660 1292 CURVE SMOOTH"
);
},
{
closed = 1;
nodes = (
"1044 1311.33 OFFCURVE",
"1040.33 1329.5 OFFCURVE",
"1033 1346.5 CURVE SMOOTH",
"1025.67 1363.5 OFFCURVE",
"1015.83 1378.33 OFFCURVE",
"1003.5 1391 CURVE SMOOTH",
"991.167 1403.67 OFFCURVE",
"976.5 1413.67 OFFCURVE",
"959.5 1421 CURVE SMOOTH",
"942.5 1428.33 OFFCURVE",
"924.667 1432 OFFCURVE",
"906 1432 CURVE SMOOTH",
"886.667 1432 OFFCURVE",
"868.833 1428.33 OFFCURVE",
"852.5 1421 CURVE SMOOTH",
"836.167 1413.67 OFFCURVE",
"821.667 1403.67 OFFCURVE",
"809 1391 CURVE SMOOTH",
"796.333 1378.33 OFFCURVE",
"786.5 1363.5 OFFCURVE",
"779.5 1346.5 CURVE SMOOTH",
"772.5 1329.5 OFFCURVE",
"769 1311.33 OFFCURVE",
"769 1292 CURVE SMOOTH",
"769 1273.33 OFFCURVE",
"772.5 1255.83 OFFCURVE",
"779.5 1239.5 CURVE SMOOTH",
"786.5 1223.17 OFFCURVE",
"796.333 1209 OFFCURVE",
"809 1197 CURVE SMOOTH",
"821.667 1185 OFFCURVE",
"836.167 1175.5 OFFCURVE",
"852.5 1168.5 CURVE SMOOTH",
"868.833 1161.5 OFFCURVE",
"886.667 1158 OFFCURVE",
"906 1158 CURVE SMOOTH",
"924.667 1158 OFFCURVE",
"942.5 1161.5 OFFCURVE",
"959.5 1168.5 CURVE SMOOTH",
"976.5 1175.5 OFFCURVE",
"991.167 1185 OFFCURVE",
"1003.5 1197 CURVE SMOOTH",
"1015.83 1209 OFFCURVE",
"1025.67 1223.17 OFFCURVE",
"1033 1239.5 CURVE SMOOTH",
"1040.33 1255.83 OFFCURVE",
"1044 1273.33 OFFCURVE",
"1044 1292 CURVE SMOOTH"
);
}
);
width = 1042;
}
);
leftKerningGroup = a;
rightKerningGroup = a;
unicode = 00E4;
},
{
glyphname = agrave;
layers = (
{
layerId = "EDEFDD19-C737-4BEE-813D-BCFC1948A1E8";
name = "Bold Italic";
paths = (
{
closed = 1;
nodes = (
"35 0 LINE"
);
},
{
closed = 1;
nodes = (
"855 0 LINE",
"978 995 LINE",
"934 1012.33 OFFCURVE",
"888.833 1024.33 OFFCURVE",
"842.5 1031 CURVE SMOOTH",
"796.167 1037.67 OFFCURVE",
"750 1041 OFFCURVE",
"704 1041 CURVE SMOOTH",
"640 1041 OFFCURVE",
"579.167 1032.5 OFFCURVE",
"521.5 1015.5 CURVE SMOOTH",
"463.833 998.5 OFFCURVE",
"410.167 974.667 OFFCURVE",
"360.5 944 CURVE SMOOTH",
"310.833 913.333 OFFCURVE",
"266 876.667 OFFCURVE",
"226 834 CURVE SMOOTH",
"186 791.333 OFFCURVE",
"151.833 744.5 OFFCURVE",
"123.5 693.5 CURVE SMOOTH",
"95.1667 642.5 OFFCURVE",
"73.3333 588 OFFCURVE",
"58 530 CURVE SMOOTH",
"42.6667 472 OFFCURVE",
"35 412.333 OFFCURVE",
"35 351 CURVE SMOOTH",
"35 289.667 OFFCURVE",
"42.1667 236.167 OFFCURVE",
"56.5 190.5 CURVE SMOOTH",
"70.8333 144.833 OFFCURVE",
"90.5 106.833 OFFCURVE",
"115.5 76.4998 CURVE SMOOTH",
"140.5 46.1665 OFFCURVE",
"169.833 23.3332 OFFCURVE",
"203.5 7.99983 CURVE SMOOTH",
"237.167 -7 OFFCURVE",
"273.333 -15 OFFCURVE",
"312 -15 CURVE SMOOTH",
"380 -15 OFFCURVE",
"442.333 5.49983 OFFCURVE",
"499 46.4998 CURVE SMOOTH",
"555.667 87.4998 OFFCURVE",
"606.667 143.333 OFFCURVE",
"652 214 CURVE",
"644 81.9998 LINE",
"644 58.6665 OFFCURVE",
"649.5 39.1665 OFFCURVE",
"660.5 23.4998 CURVE SMOOTH",
"671.5 7.83316 OFFCURVE",
"692.667 0 OFFCURVE",
"724 0 CURVE SMOOTH"
);
},
{
closed = 1;
nodes = (
"369.667 187 OFFCURVE",
"338.667 203.667 OFFCURVE",
"316 237 CURVE SMOOTH",
"293.333 270.333 OFFCURVE",
"282 323 OFFCURVE",
"282 395 CURVE SMOOTH",
"282 458.333 OFFCURVE",
"291.833 518.5 OFFCURVE",
"311.5 575.5 CURVE SMOOTH",
"331.167 632.5 OFFCURVE",
"358.167 682.5 OFFCURVE",
"392.5 725.5 CURVE SMOOTH",
"426.833 768.5 OFFCURVE",
"467.667 802.667 OFFCURVE",
"515 828 CURVE SMOOTH",
"562.333 853.333 OFFCURVE",
"613.667 866 OFFCURVE",
"669 866 CURVE SMOOTH",
"685 866 OFFCURVE",
"702 865 OFFCURVE",
"720 863 CURVE",
"681 554 LINE",
"666.333 502.667 OFFCURVE",
"649 454.667 OFFCURVE",
"629 410 CURVE SMOOTH",
"609 365.333 OFFCURVE",
"587.333 326.5 OFFCURVE",
"564 293.5 CURVE SMOOTH",
"540.667 260.5 OFFCURVE",
"515.833 234.5 OFFCURVE",
"489.5 215.5 CURVE SMOOTH",
"463.167 196.5 OFFCURVE",
"436.333 187 OFFCURVE",
"409 187 CURVE SMOOTH"
);
},
{
closed = 1;
nodes = (
"428 1462 LINE",
"626 1201 LINE",
"635.333 1187.67 OFFCURVE",
"645.167 1178.5 OFFCURVE",
"655.5 1173.5 CURVE SMOOTH",
"665.833 1168.5 OFFCURVE",
"679.667 1166 OFFCURVE",
"697 1166 CURVE SMOOTH",
"826 1166 LINE",
"723 1409 LINE SMOOTH",
"715.667 1426.33 OFFCURVE",
"706.333 1439.5 OFFCURVE",
"695 1448.5 CURVE SMOOTH",
"683.667 1457.5 OFFCURVE",
"666 1462 OFFCURVE",
"642 1462 CURVE SMOOTH"
);
}
);
width = 1042;
}
);
leftKerningGroup = a;
rightKerningGroup = a;
unicode = 00E0;
},
{
glyphname = aring;
layers = (
{
layerId = "EDEFDD19-C737-4BEE-813D-BCFC1948A1E8";
name = "Bold Italic";
paths = (
{
closed = 1;
nodes = (
"35 0 LINE"
);
},
{
closed = 1;
nodes = (
"855 0 LINE",
"978 995 LINE",
"934 1012.33 OFFCURVE",
"888.833 1024.33 OFFCURVE",
"842.5 1031 CURVE SMOOTH",
"796.167 1037.67 OFFCURVE",
"750 1041 OFFCURVE",
"704 1041 CURVE SMOOTH",
"640 1041 OFFCURVE",
"579.167 1032.5 OFFCURVE",
"521.5 1015.5 CURVE SMOOTH",
"463.833 998.5 OFFCURVE",
"410.167 974.667 OFFCURVE",
"360.5 944 CURVE SMOOTH",
"310.833 913.333 OFFCURVE",
"266 876.667 OFFCURVE",
"226 834 CURVE SMOOTH",
"186 791.333 OFFCURVE",
"151.833 744.5 OFFCURVE",
"123.5 693.5 CURVE SMOOTH",
"95.1667 642.5 OFFCURVE",
"73.3333 588 OFFCURVE",
"58 530 CURVE SMOOTH",
"42.6667 472 OFFCURVE",
"35 412.333 OFFCURVE",
"35 351 CURVE SMOOTH",
"35 289.667 OFFCURVE",
"42.1667 236.167 OFFCURVE",
"56.5 190.5 CURVE SMOOTH",
"70.8333 144.833 OFFCURVE",
"90.5 106.833 OFFCURVE",
"115.5 76.4998 CURVE SMOOTH",
"140.5 46.1665 OFFCURVE",
"169.833 23.3332 OFFCURVE",
"203.5 7.99983 CURVE SMOOTH",
"237.167 -7 OFFCURVE",
"273.333 -15 OFFCURVE",
"312 -15 CURVE SMOOTH",
"380 -15 OFFCURVE",
"442.333 5.49983 OFFCURVE",
"499 46.4998 CURVE SMOOTH",
"555.667 87.4998 OFFCURVE",
"606.667 143.333 OFFCURVE",
"652 214 CURVE",
"644 81.9998 LINE",
"644 58.6665 OFFCURVE",
"649.5 39.1665 OFFCURVE",
"660.5 23.4998 CURVE SMOOTH",
"671.5 7.83316 OFFCURVE",
"692.667 0 OFFCURVE",
"724 0 CURVE SMOOTH"
);
},
{
closed = 1;
nodes = (
"369.667 187 OFFCURVE",
"338.667 203.667 OFFCURVE",
"316 237 CURVE SMOOTH",
"293.333 270.333 OFFCURVE",
"282 323 OFFCURVE",
"282 395 CURVE SMOOTH",
"282 458.333 OFFCURVE",
"291.833 518.5 OFFCURVE",
"311.5 575.5 CURVE SMOOTH",
"331.167 632.5 OFFCURVE",
"358.167 682.5 OFFCURVE",
"392.5 725.5 CURVE SMOOTH",
"426.833 768.5 OFFCURVE",
"467.667 802.667 OFFCURVE",
"515 828 CURVE SMOOTH",
"562.333 853.333 OFFCURVE",
"613.667 866 OFFCURVE",
"669 866 CURVE SMOOTH",
"685 866 OFFCURVE",
"702 865 OFFCURVE",
"720 863 CURVE",
"681 554 LINE",
"666.333 502.667 OFFCURVE",
"649 454.667 OFFCURVE",
"629 410 CURVE SMOOTH",
"609 365.333 OFFCURVE",
"587.333 326.5 OFFCURVE",
"564 293.5 CURVE SMOOTH",
"540.667 260.5 OFFCURVE",
"515.833 234.5 OFFCURVE",
"489.5 215.5 CURVE SMOOTH",
"463.167 196.5 OFFCURVE",
"436.333 187 OFFCURVE",
"409 187 CURVE SMOOTH"
);
},
{
closed = 1;
nodes = (
"521.667 1295 OFFCURVE",
"524.167 1267.67 OFFCURVE",
"532.5 1243 CURVE SMOOTH",
"540.833 1218.33 OFFCURVE",
"553.333 1197.17 OFFCURVE",
"570 1179.5 CURVE SMOOTH",
"586.667 1161.83 OFFCURVE",
"606.667 1148.17 OFFCURVE",
"630 1138.5 CURVE SMOOTH",
"653.333 1128.83 OFFCURVE",
"678.667 1124 OFFCURVE",
"706 1124 CURVE SMOOTH",
"734 1124 OFFCURVE",
"761.167 1128.83 OFFCURVE",
"787.5 1138.5 CURVE SMOOTH",
"813.833 1148.17 OFFCURVE",
"837.5 1161.83 OFFCURVE",
"858.5 1179.5 CURVE SMOOTH",
"879.5 1197.17 OFFCURVE",
"897 1218.33 OFFCURVE",
"911 1243 CURVE SMOOTH",
"925 1267.67 OFFCURVE",
"933.667 1295 OFFCURVE",
"937 1325 CURVE SMOOTH",
"940.333 1355.67 OFFCURVE",
"937.833 1383.67 OFFCURVE",
"929.5 1409 CURVE SMOOTH",
"921.167 1434.33 OFFCURVE",
"908.5 1456 OFFCURVE",
"891.5 1474 CURVE SMOOTH",
"874.5 1492 OFFCURVE",
"854 1506 OFFCURVE",
"830 1516 CURVE SMOOTH",
"806 1526 OFFCURVE",
"780 1531 OFFCURVE",
"752 1531 CURVE SMOOTH",
"724.667 1531 OFFCURVE",
"698.167 1526 OFFCURVE",
"672.5 1516 CURVE SMOOTH",
"646.833 1506 OFFCURVE",
"623.667 1492 OFFCURVE",
"603 1474 CURVE SMOOTH",
"582.333 1456 OFFCURVE",
"565 1434.33 OFFCURVE",
"551 1409 CURVE SMOOTH",
"537 1383.67 OFFCURVE",
"528.333 1355.67 OFFCURVE",
"525 1325 CURVE SMOOTH"
);
},
{
closed = 1;
nodes = (
"652.333 1353 OFFCURVE",
"661.833 1375.17 OFFCURVE",
"677.5 1391.5 CURVE SMOOTH",
"693.167 1407.83 OFFCURVE",
"714.667 1416 OFFCURVE",
"742 1416 CURVE SMOOTH",
"766 1416 OFFCURVE",
"784.667 1407.83 OFFCURVE",
"798 1391.5 CURVE SMOOTH",
"811.333 1375.17 OFFCURVE",
"816.333 1353 OFFCURVE",
"813 1325 CURVE SMOOTH",
"809.667 1299.67 OFFCURVE",
"799.833 1278.5 OFFCURVE",
"783.5 1261.5 CURVE SMOOTH",
"767.167 1244.5 OFFCURVE",
"746.667 1236 OFFCURVE",
"722 1236 CURVE SMOOTH",
"694.667 1236 OFFCURVE",
"674.833 1244.5 OFFCURVE",
"662.5 1261.5 CURVE SMOOTH",
"650.167 1278.5 OFFCURVE",
"645.667 1299.67 OFFCURVE",
"649 1325 CURVE SMOOTH"
);
}
);
width = 1042;
}
);
leftKerningGroup = a;
rightKerningGroup = a;
unicode = 00E5;
},
{
glyphname = atilde;
layers = (
{
layerId = "EDEFDD19-C737-4BEE-813D-BCFC1948A1E8";
name = "Bold Italic";
paths = (
{
closed = 1;
nodes = (
"35 0 LINE"
);
},
{
closed = 1;
nodes = (
"855 0 LINE",
"978 995 LINE",
"934 1012.33 OFFCURVE",
"888.833 1024.33 OFFCURVE",
"842.5 1031 CURVE SMOOTH",
"796.167 1037.67 OFFCURVE",
"750 1041 OFFCURVE",
"704 1041 CURVE SMOOTH",
"640 1041 OFFCURVE",
"579.167 1032.5 OFFCURVE",
"521.5 1015.5 CURVE SMOOTH",
"463.833 998.5 OFFCURVE",
"410.167 974.667 OFFCURVE",
"360.5 944 CURVE SMOOTH",
"310.833 913.333 OFFCURVE",
"266 876.667 OFFCURVE",
"226 834 CURVE SMOOTH",
"186 791.333 OFFCURVE",
"151.833 744.5 OFFCURVE",
"123.5 693.5 CURVE SMOOTH",
"95.1667 642.5 OFFCURVE",
"73.3333 588 OFFCURVE",
"58 530 CURVE SMOOTH",
"42.6667 472 OFFCURVE",
"35 412.333 OFFCURVE",
"35 351 CURVE SMOOTH",
"35 289.667 OFFCURVE",
"42.1667 236.167 OFFCURVE",
"56.5 190.5 CURVE SMOOTH",
"70.8333 144.833 OFFCURVE",
"90.5 106.833 OFFCURVE",
"115.5 76.4998 CURVE SMOOTH",
"140.5 46.1665 OFFCURVE",
"169.833 23.3332 OFFCURVE",
"203.5 7.99983 CURVE SMOOTH",
"237.167 -7 OFFCURVE",
"273.333 -15 OFFCURVE",
"312 -15 CURVE SMOOTH",
"380 -15 OFFCURVE",
"442.333 5.49983 OFFCURVE",
"499 46.4998 CURVE SMOOTH",
"555.667 87.4998 OFFCURVE",
"606.667 143.333 OFFCURVE",
"652 214 CURVE",
"644 81.9998 LINE",
"644 58.6665 OFFCURVE",
"649.5 39.1665 OFFCURVE",
"660.5 23.4998 CURVE SMOOTH",
"671.5 7.83316 OFFCURVE",
"692.667 0 OFFCURVE",
"724 0 CURVE SMOOTH"
);
},
{
closed = 1;
nodes = (
"369.667 187 OFFCURVE",
"338.667 203.667 OFFCURVE",
"316 237 CURVE SMOOTH",
"293.333 270.333 OFFCURVE",
"282 323 OFFCURVE",
"282 395 CURVE SMOOTH",
"282 458.333 OFFCURVE",
"291.833 518.5 OFFCURVE",
"311.5 575.5 CURVE SMOOTH",
"331.167 632.5 OFFCURVE",
"358.167 682.5 OFFCURVE",
"392.5 725.5 CURVE SMOOTH",
"426.833 768.5 OFFCURVE",
"467.667 802.667 OFFCURVE",
"515 828 CURVE SMOOTH",
"562.333 853.333 OFFCURVE",
"613.667 866 OFFCURVE",
"669 866 CURVE SMOOTH",
"685 866 OFFCURVE",
"702 865 OFFCURVE",
"720 863 CURVE",
"681 554 LINE",
"666.333 502.667 OFFCURVE",
"649 454.667 OFFCURVE",
"629 410 CURVE SMOOTH",
"609 365.333 OFFCURVE",
"587.333 326.5 OFFCURVE",
"564 293.5 CURVE SMOOTH",
"540.667 260.5 OFFCURVE",
"515.833 234.5 OFFCURVE",
"489.5 215.5 CURVE SMOOTH",
"463.167 196.5 OFFCURVE",
"436.333 187 OFFCURVE",
"409 187 CURVE SMOOTH"
);
},
{
closed = 1;
nodes = (
"796 1359 OFFCURVE",
"783.5 1363.33 OFFCURVE",
"770.5 1372 CURVE SMOOTH",
"757.5 1380.67 OFFCURVE",
"743.167 1390 OFFCURVE",
"727.5 1400 CURVE SMOOTH",
"711.833 1410 OFFCURVE",
"694.833 1419.33 OFFCURVE",
"676.5 1428 CURVE SMOOTH",
"658.167 1436.67 OFFCURVE",
"638 1441 OFFCURVE",
"616 1441 CURVE SMOOTH",
"588.667 1441 OFFCURVE",
"562.833 1435 OFFCURVE",
"538.5 1423 CURVE SMOOTH",
"514.167 1411 OFFCURVE",
"492.333 1394.17 OFFCURVE",
"473 1372.5 CURVE SMOOTH",
"453.667 1350.83 OFFCURVE",
"437.333 1324.83 OFFCURVE",
"424 1294.5 CURVE SMOOTH",
"410.667 1264.17 OFFCURVE",
"402 1230.33 OFFCURVE",
"398 1193 CURVE",
"538 1193 LINE",
"541.333 1221 OFFCURVE",
"548.667 1240.83 OFFCURVE",
"560 1252.5 CURVE SMOOTH",
"571.333 1264.17 OFFCURVE",
"586 1270 OFFCURVE",
"604 1270 CURVE SMOOTH",
"616 1270 OFFCURVE",
"628.833 1265.67 OFFCURVE",
"642.5 1257 CURVE SMOOTH",
"656.167 1248.33 OFFCURVE",
"670.667 1239 OFFCURVE",
"686 1229 CURVE SMOOTH",
"701.333 1219 OFFCURVE",
"718.167 1209.67 OFFCURVE",
"736.5 1201 CURVE SMOOTH",
"754.833 1192.33 OFFCURVE",
"775 1188 OFFCURVE",
"797 1188 CURVE SMOOTH",
"824.333 1188 OFFCURVE",
"850.167 1193.83 OFFCURVE",
"874.5 1205.5 CURVE SMOOTH",
"898.833 1217.17 OFFCURVE",
"920.5 1233.83 OFFCURVE",
"939.5 1255.5 CURVE SMOOTH",
"958.5 1277.17 OFFCURVE",
"974.5 1303.17 OFFCURVE",
"987.5 1333.5 CURVE SMOOTH",
"1000.5 1363.83 OFFCURVE",
"1009.33 1397.67 OFFCURVE",
"1014 1435 CURVE",
"875 1435 LINE",
"871.667 1406.33 OFFCURVE",
"864.167 1386.5 OFFCURVE",
"852.5 1375.5 CURVE SMOOTH",
"840.833 1364.5 OFFCURVE",
"826 1359 OFFCURVE",
"808 1359 CURVE SMOOTH"
);
}
);
width = 1042;
}
);
leftKerningGroup = a;
rightKerningGroup = a;
unicode = 00E3;
},
{
glyphname = ae;
layers = (
{
layerId = "EDEFDD19-C737-4BEE-813D-BCFC1948A1E8";
name = "Bold Italic";
paths = (
{
closed = 1;
nodes = (
"1038 1041 OFFCURVE",
"975.167 1027.5 OFFCURVE",
"919.5 1000.5 CURVE SMOOTH",
"863.833 973.5 OFFCURVE",
"815.333 936 OFFCURVE",
"774 888 CURVE",
"755.333 936.667 OFFCURVE",
"725.167 974.833 OFFCURVE",
"683.5 1002.5 CURVE SMOOTH",
"641.833 1030.17 OFFCURVE",
"586 1044 OFFCURVE",
"516 1044 CURVE SMOOTH",
"443.333 1044 OFFCURVE",
"375.333 1030.5 OFFCURVE",
"312 1003.5 CURVE SMOOTH",
"248.667 976.5 OFFCURVE",
"186.667 936 OFFCURVE",
"126 882 CURVE",
"159 805 LINE",
"165 793 OFFCURVE",
"173.167 782.833 OFFCURVE",
"183.5 774.5 CURVE SMOOTH",
"193.833 766.167 OFFCURVE",
"207 762 OFFCURVE",
"223 762 CURVE SMOOTH",
"242.333 762 OFFCURVE",
"260.167 766.833 OFFCURVE",
"276.5 776.5 CURVE SMOOTH",
"292.833 786.167 OFFCURVE",
"310.833 796.667 OFFCURVE",
"330.5 808 CURVE SMOOTH",
"350.167 819.333 OFFCURVE",
"372.5 829.833 OFFCURVE",
"397.5 839.5 CURVE SMOOTH",
"422.5 849.167 OFFCURVE",
"453 854 OFFCURVE",
"489 854 CURVE SMOOTH",
"538.333 854 OFFCURVE",
"574 837.333 OFFCURVE",
"596 804 CURVE SMOOTH",
"618 770.667 OFFCURVE",
"624.667 718.667 OFFCURVE",
"616 648 CURVE SMOOTH",
"611 607 LINE",
"494.333 603.667 OFFCURVE",
"397 590.5 OFFCURVE",
"319 567.5 CURVE SMOOTH",
"241 544.5 OFFCURVE",
"178.667 515.5 OFFCURVE",
"132 480.5 CURVE SMOOTH",
"85.3333 445.5 OFFCURVE",
"52.3333 406.333 OFFCURVE",
"32.9999 363 CURVE SMOOTH",
"13.6666 319.667 OFFCURVE",
"3.99994 275.667 OFFCURVE",
"3.99994 231 CURVE SMOOTH",
"3.99994 151 OFFCURVE",
"28.8333 89.8335 OFFCURVE",
"78.4999 47.5001 CURVE SMOOTH",
"128.167 5.16681 OFFCURVE",
"202.333 -16 OFFCURVE",
"301 -16 CURVE SMOOTH",
"333.667 -16 OFFCURVE",
"367.167 -12 OFFCURVE",
"401.5 -4 CURVE SMOOTH",
"435.833 3.16681 OFFCURVE",
"469.167 15.1668 OFFCURVE",
"501.5 31.5001 CURVE SMOOTH",
"533.833 47.8335 OFFCURVE",
"564.5 68.6668 OFFCURVE",
"593.5 94 CURVE SMOOTH",
"622.5 119.333 OFFCURVE",
"648.333 149.667 OFFCURVE",
"671 185 CURVE",
"701.667 117 OFFCURVE",
"743.667 66.6668 OFFCURVE",
"797 34 CURVE SMOOTH",
"850.333 1.33347 OFFCURVE",
"909.333 -15 OFFCURVE",
"974 -15 CURVE SMOOTH",
"1020.67 -15 OFFCURVE",
"1063.67 -11 OFFCURVE",
"1103 -3 CURVE SMOOTH",
"1142.33 5 OFFCURVE",
"1179.83 17.3335 OFFCURVE",
"1215.5 34 CURVE SMOOTH",
"1251.17 50.6668 OFFCURVE",
"1285.83 72 OFFCURVE",
"1319.5 98 CURVE SMOOTH",
"1353.17 124 OFFCURVE",
"1387.67 154.667 OFFCURVE",
"1423 190 CURVE",
"1360 266 LINE",
"1354 272.667 OFFCURVE",
"1347.17 278 OFFCURVE",
"1339.5 282 CURVE SMOOTH",
"1331.83 286 OFFCURVE",
"1324 288 OFFCURVE",
"1316 288 CURVE SMOOTH",
"1296.67 288 OFFCURVE",
"1278.83 282.167 OFFCURVE",
"1262.5 270.5 CURVE SMOOTH",
"1246.17 258.833 OFFCURVE",
"1227.67 246 OFFCURVE",
"1207 232 CURVE SMOOTH",
"1186.33 218 OFFCURVE",
"1161.67 205.167 OFFCURVE",
"1133 193.5 CURVE SMOOTH",
"1104.33 181.833 OFFCURVE",
"1067.67 176 OFFCURVE",
"1023 176 CURVE SMOOTH",
"958.333 176 OFFCURVE",
"908 198 OFFCURVE",
"872 242 CURVE SMOOTH",
"836 286 OFFCURVE",
"818 355 OFFCURVE",
"818 449 CURVE SMOOTH",
"818 456 LINE",
"898 458 OFFCURVE",
"968.333 464 OFFCURVE",
"1029 474 CURVE SMOOTH",
"1089.67 484 OFFCURVE",
"1141.83 496.833 OFFCURVE",
"1185.5 512.5 CURVE SMOOTH",
"1229.17 528.167 OFFCURVE",
"1265.33 546.167 OFFCURVE",
"1294 566.5 CURVE SMOOTH",
"1322.67 586.833 OFFCURVE",
"1345.5 608.5 OFFCURVE",
"1362.5 631.5 CURVE SMOOTH",
"1379.5 654.5 OFFCURVE",
"1391.5 678.5 OFFCURVE",
"1398.5 703.5 CURVE SMOOTH",
"1405.5 728.5 OFFCURVE",
"1409 753.333 OFFCURVE",
"1409 778 CURVE SMOOTH",
"1409 814 OFFCURVE",
"1401.33 848 OFFCURVE",
"1386 880 CURVE SMOOTH",
"1370.67 912 OFFCURVE",
"1349.5 940 OFFCURVE",
"1322.5 964 CURVE SMOOTH",
"1295.5 988 OFFCURVE",
"1263.67 1006.83 OFFCURVE",
"1227 1020.5 CURVE SMOOTH",
"1190.33 1034.17 OFFCURVE",
"1150.67 1041 OFFCURVE",
"1108 1041 CURVE SMOOTH"
);
},
{
closed = 1;
nodes = (
"587 415 LINE SMOOTH",
"581 368.333 OFFCURVE",
"570.666 328.167 OFFCURVE",
"556 294.5 CURVE SMOOTH",
"541.333 260.833 OFFCURVE",
"523.5 233 OFFCURVE",
"502.5 211 CURVE SMOOTH",
"481.5 189 OFFCURVE",
"457.666 172.833 OFFCURVE",
"431 162.5 CURVE SMOOTH",
"404.333 152.167 OFFCURVE",
"376.333 147 OFFCURVE",
"347 147 CURVE SMOOTH",
"311 147 OFFCURVE",
"283.166 156.5 OFFCURVE",
"263.5 175.5 CURVE SMOOTH",
"243.833 194.5 OFFCURVE",
"234 223 OFFCURVE",
"234 261 CURVE SMOOTH",
"234 287.667 OFFCURVE",
"239.5 312.5 OFFCURVE",
"250.5 335.5 CURVE SMOOTH",
"261.5 358.5 OFFCURVE",
"280.666 378.833 OFFCURVE",
"308 396.5 CURVE SMOOTH",
"335.333 414.167 OFFCURVE",
"372 428.5 OFFCURVE",
"418 439.5 CURVE SMOOTH",
"464 450.5 OFFCURVE",
"522 457.667 OFFCURVE",
"592 461 CURVE"
);
},
{
closed = 1;
nodes = (
"1117 869 OFFCURVE",
"1146.5 859.333 OFFCURVE",
"1165.5 840 CURVE SMOOTH",
"1184.5 820.667 OFFCURVE",
"1194 796 OFFCURVE",
"1194 766 CURVE SMOOTH",
"1194 746.667 OFFCURVE",
"1189 728 OFFCURVE",
"1179 710 CURVE SMOOTH",
"1169 692 OFFCURVE",
"1150.5 675.667 OFFCURVE",
"1123.5 661 CURVE SMOOTH",
"1096.5 646.333 OFFCURVE",
"1059.33 633.5 OFFCURVE",
"1012 622.5 CURVE SMOOTH",
"964.667 611.5 OFFCURVE",
"903.667 603 OFFCURVE",
"829 597 CURVE",
"836.333 638.333 OFFCURVE",
"846.833 675.667 OFFCURVE",
"860.5 709 CURVE SMOOTH",
"874.167 742.333 OFFCURVE",
"891.333 770.833 OFFCURVE",
"912 794.5 CURVE SMOOTH",
"932.667 818.167 OFFCURVE",
"956.667 836.5 OFFCURVE",
"984 849.5 CURVE SMOOTH",
"1011.33 862.5 OFFCURVE",
"1042.33 869 OFFCURVE",
"1077 869 CURVE SMOOTH"
);
}
);
width = 1494;
}
);
leftKerningGroup = a;
rightKerningGroup = e;
unicode = 00E6;
},
{
glyphname = b;
layers = (
{
layerId = "EDEFDD19-C737-4BEE-813D-BCFC1948A1E8";
name = "Bold Italic";
paths = (
{
closed = 1;
nodes = (
"40 0 LINE",
"174 0 LINE SMOOTH",
"200.667 0 OFFCURVE",
"220 5.5 OFFCURVE",
"232 16.5 CURVE SMOOTH",
"244 27.5 OFFCURVE",
"253.667 44.6667 OFFCURVE",
"261 68 CURVE",
"269 102 LINE",
"297 66 OFFCURVE",
"331.5 37.5 OFFCURVE",
"372.5 16.5 CURVE SMOOTH",
"413.5 -5 OFFCURVE",
"460.333 -15 OFFCURVE",
"513 -15 CURVE SMOOTH",
"558.333 -15 OFFCURVE",
"602.167 -6 OFFCURVE",
"644.5 11 CURVE SMOOTH",
"686.833 28.3333 OFFCURVE",
"726.5 52.3333 OFFCURVE",
"763.5 83 CURVE SMOOTH",
"800.5 113.667 OFFCURVE",
"834.333 150 OFFCURVE",
"865 192 CURVE SMOOTH",
"895.667 234 OFFCURVE",
"921.833 280 OFFCURVE",
"943.5 330 CURVE SMOOTH",
"965.167 380 OFFCURVE",
"982 433 OFFCURVE",
"994 489 CURVE SMOOTH",
"1006 545 OFFCURVE",
"1012 602 OFFCURVE",
"1012 660 CURVE SMOOTH",
"1012 724.667 OFFCURVE",
"1005.33 781 OFFCURVE",
"992 829 CURVE SMOOTH",
"978.667 877 OFFCURVE",
"959.667 916.667 OFFCURVE",
"935 948 CURVE SMOOTH",
"910.333 979.333 OFFCURVE",
"880.667 1002.83 OFFCURVE",
"846 1018.5 CURVE SMOOTH",
"811.333 1034.17 OFFCURVE",
"772.667 1042 OFFCURVE",
"730 1042 CURVE SMOOTH",
"663.333 1042 OFFCURVE",
"600.5 1022.33 OFFCURVE",
"541.5 983 CURVE SMOOTH",
"482.5 943.667 OFFCURVE",
"429 890.333 OFFCURVE",
"381 823 CURVE",
"462 1486 LINE",
"220 1486 LINE"
);
},
{
closed = 1;
nodes = (
"676 848 OFFCURVE",
"708.667 830.5 OFFCURVE",
"732 795.5 CURVE SMOOTH",
"755.333 760.5 OFFCURVE",
"767 707 OFFCURVE",
"767 635 CURVE SMOOTH",
"767 579.667 OFFCURVE",
"760 524.5 OFFCURVE",
"746 469.5 CURVE SMOOTH",
"732 414.5 OFFCURVE",
"712.167 365 OFFCURVE",
"686.5 321 CURVE SMOOTH",
"660.833 277 OFFCURVE",
"630 241.333 OFFCURVE",
"594 214 CURVE SMOOTH",
"558 186.667 OFFCURVE",
"518 173 OFFCURVE",
"474 173 CURVE SMOOTH",
"445.333 173 OFFCURVE",
"416.333 178 OFFCURVE",
"387 188 CURVE SMOOTH",
"357.667 198 OFFCURVE",
"331.667 215.333 OFFCURVE",
"309 240 CURVE",
"340 489 LINE",
"356 539.667 OFFCURVE",
"375.167 586.833 OFFCURVE",
"397.5 630.5 CURVE SMOOTH",
"419.833 674.167 OFFCURVE",
"444 712.167 OFFCURVE",
"470 744.5 CURVE SMOOTH",
"496 776.833 OFFCURVE",
"523 802.167 OFFCURVE",
"551 820.5 CURVE SMOOTH",
"579 838.833 OFFCURVE",
"606.667 848 OFFCURVE",
"634 848 CURVE SMOOTH"
);
}
);
width = 1078;
}
);
leftKerningGroup = b;
rightKerningGroup = b;
unicode = 0062;
},
{
glyphname = c;
layers = (
{
layerId = "EDEFDD19-C737-4BEE-813D-BCFC1948A1E8";
name = "Bold Italic";
paths = (
{
closed = 1;
nodes = (
"831 182 LINE",
"769 258 LINE",
"763 264.667 OFFCURVE",
"756.167 270.167 OFFCURVE",
"748.5 274.5 CURVE SMOOTH",
"740.833 278.833 OFFCURVE",
"732.667 281 OFFCURVE",
"724 281 CURVE SMOOTH",
"713.333 281 OFFCURVE",
"703.5 278.333 OFFCURVE",
"694.5 273 CURVE SMOOTH",
"685.5 267.667 OFFCURVE",
"676 261.167 OFFCURVE",
"666 253.5 CURVE SMOOTH",
"656 245.833 OFFCURVE",
"645.333 237.5 OFFCURVE",
"634 228.5 CURVE SMOOTH",
"622.667 219.5 OFFCURVE",
"609.5 211.167 OFFCURVE",
"594.5 203.5 CURVE SMOOTH",
"579.5 195.833 OFFCURVE",
"562.333 189.333 OFFCURVE",
"543 184 CURVE SMOOTH",
"523.667 178.667 OFFCURVE",
"501.333 176 OFFCURVE",
"476 176 CURVE SMOOTH",
"418.667 176 OFFCURVE",
"373.333 196.5 OFFCURVE",
"340 237.5 CURVE SMOOTH",
"306.667 278.5 OFFCURVE",
"290 336.667 OFFCURVE",
"290 412 CURVE SMOOTH",
"290 476.667 OFFCURVE",
"297.833 535.667 OFFCURVE",
"313.5 589 CURVE SMOOTH",
"329.167 642.333 OFFCURVE",
"350.333 688 OFFCURVE",
"377 726 CURVE SMOOTH",
"403.667 764 OFFCURVE",
"434.333 793.333 OFFCURVE",
"469 814 CURVE SMOOTH",
"503.667 834.667 OFFCURVE",
"540 845 OFFCURVE",
"578 845 CURVE SMOOTH",
"607.333 845 OFFCURVE",
"631.167 841.5 OFFCURVE",
"649.5 834.5 CURVE SMOOTH",
"667.833 827.5 OFFCURVE",
"683.167 820 OFFCURVE",
"695.5 812 CURVE SMOOTH",
"707.833 804 OFFCURVE",
"718.5 796.5 OFFCURVE",
"727.5 789.5 CURVE SMOOTH",
"736.5 782.5 OFFCURVE",
"746.667 779 OFFCURVE",
"758 779 CURVE SMOOTH",
"767.333 779 OFFCURVE",
"776 781.5 OFFCURVE",
"784 786.5 CURVE SMOOTH",
"792 791.5 OFFCURVE",
"798.667 797 OFFCURVE",
"804 803 CURVE SMOOTH",
"883 897 LINE",
"846.333 945 OFFCURVE",
"804.167 981 OFFCURVE",
"756.5 1005 CURVE SMOOTH",
"708.833 1029 OFFCURVE",
"651 1041 OFFCURVE",
"583 1041 CURVE SMOOTH",
"530.333 1041 OFFCURVE",
"480.5 1033.17 OFFCURVE",
"433.5 1017.5 CURVE SMOOTH",
"386.5 1001.83 OFFCURVE",
"343 980 OFFCURVE",
"303 952 CURVE SMOOTH",
"263 924 OFFCURVE",
"227 890.667 OFFCURVE",
"195 852 CURVE SMOOTH",
"163 813.333 OFFCURVE",
"135.667 770.667 OFFCURVE",
"113 724 CURVE SMOOTH",
"90.3333 677.333 OFFCURVE",
"72.9999 627.667 OFFCURVE",
"60.9999 575 CURVE SMOOTH",
"48.9999 522.333 OFFCURVE",
"42.9999 468.333 OFFCURVE",
"42.9999 413 CURVE SMOOTH",
"42.9999 348.333 OFFCURVE",
"51.6666 289.667 OFFCURVE",
"68.9999 237 CURVE SMOOTH",
"86.3333 184.333 OFFCURVE",
"111.333 139.333 OFFCURVE",
"144 102 CURVE SMOOTH",
"176.667 64.6666 OFFCURVE",
"216.5 35.8333 OFFCURVE",
"263.5 15.4999 CURVE SMOOTH",
"310.5 -5 OFFCURVE",
"363.667 -15 OFFCURVE",
"423 -15 CURVE SMOOTH",
"465 -15 OFFCURVE",
"503.5 -12 OFFCURVE",
"538.5 -6 CURVE SMOOTH",
"573.5 0.833252 OFFCURVE",
"607 11.6666 OFFCURVE",
"639 26.9999 CURVE SMOOTH",
"671 42.3333 OFFCURVE",
"702.5 62.6666 OFFCURVE",
"733.5 87.9999 CURVE SMOOTH",
"764.5 113.333 OFFCURVE",
"797 144.667 OFFCURVE",
"831 182 CURVE"
);
}
);
width = 907;
}
);
leftKerningGroup = c;
rightKerningGroup = c;
unicode = 0063;
},
{
glyphname = ccedilla;
layers = (
{
layerId = "EDEFDD19-C737-4BEE-813D-BCFC1948A1E8";
name = "Bold Italic";
paths = (
{
closed = 1;
nodes = (
"262.333 -234 OFFCURVE",
"252 -242 OFFCURVE",
"246 -257 CURVE SMOOTH",
"214 -334 LINE",
"234.667 -341 OFFCURVE",
"255.667 -347 OFFCURVE",
"277 -351 CURVE SMOOTH",
"298.333 -354 OFFCURVE",
"321.667 -356 OFFCURVE",
"347 -356 CURVE SMOOTH",
"383.667 -356 OFFCURVE",
"417.333 -352 OFFCURVE",
"448 -345 CURVE SMOOTH",
"478.667 -338 OFFCURVE",
"505 -327 OFFCURVE",
"527 -313 CURVE SMOOTH",
"549 -299 OFFCURVE",
"566.167 -282 OFFCURVE",
"578.5 -262 CURVE SMOOTH",
"590.833 -241 OFFCURVE",
"597 -218 OFFCURVE",
"597 -193 CURVE SMOOTH",
"597 -163 OFFCURVE",
"586.667 -137 OFFCURVE",
"566 -115 CURVE SMOOTH",
"545.333 -92 OFFCURVE",
"509.667 -74 OFFCURVE",
"459 -61 CURVE",
"478 -13 LINE",
"512 -10 OFFCURVE",
"544 -5 OFFCURVE",
"574 3 CURVE SMOOTH",
"604 11 OFFCURVE",
"633 22.8333 OFFCURVE",
"661 38.5 CURVE SMOOTH",
"689 54.1667 OFFCURVE",
"716.833 73.6667 OFFCURVE",
"744.5 97 CURVE SMOOTH",
"772.167 120.333 OFFCURVE",
"801 148.667 OFFCURVE",
"831 182 CURVE",
"769 258 LINE",
"763 264.667 OFFCURVE",
"756.167 270.167 OFFCURVE",
"748.5 274.5 CURVE SMOOTH",
"740.833 278.833 OFFCURVE",
"732.667 281 OFFCURVE",
"724 281 CURVE SMOOTH",
"713.333 281 OFFCURVE",
"703.5 278.333 OFFCURVE",
"694.5 273 CURVE SMOOTH",
"685.5 267.667 OFFCURVE",
"676 261.167 OFFCURVE",
"666 253.5 CURVE SMOOTH",
"656 245.833 OFFCURVE",
"645.333 237.5 OFFCURVE",
"634 228.5 CURVE SMOOTH",
"622.667 219.5 OFFCURVE",
"609.5 211.167 OFFCURVE",
"594.5 203.5 CURVE SMOOTH",
"579.5 195.833 OFFCURVE",
"562.333 189.333 OFFCURVE",
"543 184 CURVE SMOOTH",
"523.667 178.667 OFFCURVE",
"501.333 176 OFFCURVE",
"476 176 CURVE SMOOTH",
"418.667 176 OFFCURVE",
"373.333 196.5 OFFCURVE",
"340 237.5 CURVE SMOOTH",
"306.667 278.5 OFFCURVE",
"290 336.667 OFFCURVE",
"290 412 CURVE SMOOTH",
"290 476.667 OFFCURVE",
"297.833 535.667 OFFCURVE",
"313.5 589 CURVE SMOOTH",
"329.167 642.333 OFFCURVE",
"350.333 688 OFFCURVE",
"377 726 CURVE SMOOTH",
"403.667 764 OFFCURVE",
"434.333 793.333 OFFCURVE",
"469 814 CURVE SMOOTH",
"503.667 834.667 OFFCURVE",
"540 845 OFFCURVE",
"578 845 CURVE SMOOTH",
"607.333 845 OFFCURVE",
"631.167 841.5 OFFCURVE",
"649.5 834.5 CURVE SMOOTH",
"667.833 827.5 OFFCURVE",
"683.167 820 OFFCURVE",
"695.5 812 CURVE SMOOTH",
"707.833 804 OFFCURVE",
"718.5 796.5 OFFCURVE",
"727.5 789.5 CURVE SMOOTH",
"736.5 782.5 OFFCURVE",
"746.667 779 OFFCURVE",
"758 779 CURVE SMOOTH",
"767.333 779 OFFCURVE",
"776 781.5 OFFCURVE",
"784 786.5 CURVE SMOOTH",
"792 791.5 OFFCURVE",
"798.667 797 OFFCURVE",
"804 803 CURVE SMOOTH",
"883 897 LINE",
"846.333 945 OFFCURVE",
"804.167 981 OFFCURVE",
"756.5 1005 CURVE SMOOTH",
"708.833 1029 OFFCURVE",
"651 1041 OFFCURVE",
"583 1041 CURVE SMOOTH",
"530.333 1041 OFFCURVE",
"480.5 1033.17 OFFCURVE",
"433.5 1017.5 CURVE SMOOTH",
"386.5 1001.83 OFFCURVE",
"343 980 OFFCURVE",
"303 952 CURVE SMOOTH",
"263 924 OFFCURVE",
"227 890.667 OFFCURVE",
"195 852 CURVE SMOOTH",
"163 813.333 OFFCURVE",
"135.667 770.667 OFFCURVE",
"113 724 CURVE SMOOTH",
"90.3333 677.333 OFFCURVE",
"72.9999 627.667 OFFCURVE",
"60.9999 575 CURVE SMOOTH",
"48.9999 522.333 OFFCURVE",
"42.9999 468.333 OFFCURVE",
"42.9999 413 CURVE SMOOTH",
"42.9999 356.333 OFFCURVE",
"49.6666 304.167 OFFCURVE",
"62.9999 256.5 CURVE SMOOTH",
"76.3333 208.833 OFFCURVE",
"95.6666 167 OFFCURVE",
"121 131 CURVE SMOOTH",
"146.333 94.9999 OFFCURVE",
"177.333 65.1666 OFFCURVE",
"214 41.4999 CURVE SMOOTH",
"250.667 17.8333 OFFCURVE",
"292.667 1.66661 OFFCURVE",
"340 -7 CURVE",
"281 -141 LINE",
"323 -148 OFFCURVE",
"354 -155 OFFCURVE",
"374 -163 CURVE SMOOTH",
"394 -171 OFFCURVE",
"404 -184 OFFCURVE",
"404 -201 CURVE SMOOTH",
"404 -214 OFFCURVE",
"399 -226 OFFCURVE",
"389 -235 CURVE SMOOTH",
"379 -244 OFFCURVE",
"363.667 -249 OFFCURVE",
"343 -249 CURVE SMOOTH",
"325.667 -249 OFFCURVE",
"312.667 -247 OFFCURVE",
"304 -242 CURVE SMOOTH",
"295.333 -237 OFFCURVE",
"286.333 -234 OFFCURVE",
"277 -234 CURVE SMOOTH"
);
}
);
width = 907;
}
);
leftKerningGroup = c;
rightKerningGroup = c;
unicode = 00E7;
},
{
glyphname = d;
lastChange = "2014-08-21 04:53:14 -0500";
layers = (
{
layerId = "EDEFDD19-C737-4BEE-813D-BCFC1948A1E8";
name = "Bold Italic";
paths = (
{
closed = 1;
nodes = (
"758 0 LINE",
"889 0 LINE",
"1073 1486 LINE",
"831 1486 LINE",
"764 948 LINE",
"736 977.333 OFFCURVE",
"703.333 1000.33 OFFCURVE",
"666 1017 CURVE SMOOTH",
"628.667 1033.67 OFFCURVE",
"587 1042 OFFCURVE",
"541 1042 CURVE SMOOTH",
"495.667 1042 OFFCURVE",
"451.833 1033.33 OFFCURVE",
"409.5 1016 CURVE SMOOTH",
"367.167 998.667 OFFCURVE",
"327.333 974.667 OFFCURVE",
"290 944 CURVE SMOOTH",
"252.667 913.333 OFFCURVE",
"218.833 877 OFFCURVE",
"188.5 835 CURVE SMOOTH",
"158.167 793 OFFCURVE",
"132 747 OFFCURVE",
"110 697 CURVE SMOOTH",
"88 647 OFFCURVE",
"71 594.167 OFFCURVE",
"59 538.5 CURVE SMOOTH",
"47 482.833 OFFCURVE",
"41 426 OFFCURVE",
"41 368 CURVE SMOOTH",
"41 302.667 OFFCURVE",
"47.6667 246 OFFCURVE",
"61 198 CURVE SMOOTH",
"74.3333 150 OFFCURVE",
"93.3333 110.333 OFFCURVE",
"118 79 CURVE SMOOTH",
"142.667 47.6667 OFFCURVE",
"172.333 24.1667 OFFCURVE",
"207 8.50008 CURVE SMOOTH",
"241.667 -7 OFFCURVE",
"280.333 -15 OFFCURVE",
"323 -15 CURVE SMOOTH",
"357.667 -15 OFFCURVE",
"391.5 -9 OFFCURVE",
"424.5 2 CURVE SMOOTH",
"457.5 13.3334 OFFCURVE",
"489.167 29.3334 OFFCURVE",
"519.5 50 CURVE SMOOTH",
"549.833 70.6667 OFFCURVE",
"579 95.8334 OFFCURVE",
"607 125.5 CURVE SMOOTH",
"635 155.167 OFFCURVE",
"661.333 188.333 OFFCURVE",
"686 225 CURVE",
"678 82 LINE",
"678 58.6667 OFFCURVE",
"683.5 39.1667 OFFCURVE",
"694.5 23.5001 CURVE SMOOTH",
"705.5 7.8334 OFFCURVE",
"696 0 OFFCURVE",
"735 0 CURVE SMOOTH"
);
},
{
closed = 1;
nodes = (
"378 179 OFFCURVE",
"345.167 196.5 OFFCURVE",
"321.5 231.5 CURVE SMOOTH",
"297.833 266.5 OFFCURVE",
"286 320 OFFCURVE",
"286 392 CURVE SMOOTH",
"286 447.333 OFFCURVE",
"293 502.5 OFFCURVE",
"307 557.5 CURVE SMOOTH",
"321 612.5 OFFCURVE",
"340.833 662 OFFCURVE",
"366.5 706 CURVE SMOOTH",
"392.167 750 OFFCURVE",
"423 785.667 OFFCURVE",
"459 813 CURVE SMOOTH",
"495 840.333 OFFCURVE",
"535 854 OFFCURVE",
"579 854 CURVE SMOOTH",
"607.667 854 OFFCURVE",
"636.667 849 OFFCURVE",
"666 839 CURVE SMOOTH",
"695.333 829 OFFCURVE",
"721.333 811.667 OFFCURVE",
"744 787 CURVE",
"713 539 LINE",
"697 488.333 OFFCURVE",
"677.667 441 OFFCURVE",
"655 397 CURVE SMOOTH",
"632.333 353 OFFCURVE",
"608 314.833 OFFCURVE",
"582 282.5 CURVE SMOOTH",
"556 250.167 OFFCURVE",
"529.167 224.833 OFFCURVE",
"501.5 206.5 CURVE SMOOTH",
"473.833 188.167 OFFCURVE",
"446.667 179 OFFCURVE",
"420 179 CURVE SMOOTH"
);
}
);
width = 1079;
}
);
leftKerningGroup = d;
rightKerningGroup = d;
unicode = 0064;
},
{
glyphname = eth;
layers = (
{
layerId = "EDEFDD19-C737-4BEE-813D-BCFC1948A1E8";
name = "Bold Italic";
paths = (
{
closed = 1;
nodes = (
"464 981 LINE",
"671 1114 LINE",
"715 1072.67 OFFCURVE",
"747.667 1024.83 OFFCURVE",
"769 970.5 CURVE SMOOTH",
"790.333 916.167 OFFCURVE",
"802.667 852.667 OFFCURVE",
"806 780 CURVE",
"774 830 OFFCURVE",
"734.167 867.667 OFFCURVE",
"686.5 893 CURVE SMOOTH",
"638.833 918.333 OFFCURVE",
"583.667 931 OFFCURVE",
"521 931 CURVE SMOOTH",
"451.667 931 OFFCURVE",
"387.667 917 OFFCURVE",
"329 889 CURVE SMOOTH",
"270.333 861 OFFCURVE",
"219.5 823 OFFCURVE",
"176.5 775 CURVE SMOOTH",
"133.5 727 OFFCURVE",
"99.8333 671.167 OFFCURVE",
"75.4999 607.5 CURVE SMOOTH",
"51.1666 543.833 OFFCURVE",
"38.9999 476.333 OFFCURVE",
"38.9999 405 CURVE SMOOTH",
"38.9999 340.333 OFFCURVE",
"48.8333 282 OFFCURVE",
"68.4999 230 CURVE SMOOTH",
"88.1666 178 OFFCURVE",
"115.5 133.833 OFFCURVE",
"150.5 97.4999 CURVE SMOOTH",
"185.5 61.1666 OFFCURVE",
"227.333 33.3333 OFFCURVE",
"276 13.9999 CURVE SMOOTH",
"324.667 -5 OFFCURVE",
"378 -15 OFFCURVE",
"436 -15 CURVE SMOOTH",
"524.667 -15 OFFCURVE",
"603.833 2.33327 OFFCURVE",
"673.5 36.9999 CURVE SMOOTH",
"743.167 71.6666 OFFCURVE",
"801.833 121.167 OFFCURVE",
"849.5 185.5 CURVE SMOOTH",
"897.167 249.833 OFFCURVE",
"933.5 327.667 OFFCURVE",
"958.5 419 CURVE SMOOTH",
"983.5 510.333 OFFCURVE",
"996 612.667 OFFCURVE",
"996 726 CURVE SMOOTH",
"996 828 OFFCURVE",
"982 918 OFFCURVE",
"954 996 CURVE SMOOTH",
"926 1074 OFFCURVE",
"887 1141.33 OFFCURVE",
"837 1198 CURVE",
"939 1263 LINE",
"954.333 1271.67 OFFCURVE",
"962.5 1282.17 OFFCURVE",
"963.5 1294.5 CURVE SMOOTH",
"964.5 1306.83 OFFCURVE",
"962.333 1318.67 OFFCURVE",
"957 1330 CURVE SMOOTH",
"917 1408 LINE",
"733 1294 LINE",
"685 1328.67 OFFCURVE",
"632.667 1357 OFFCURVE",
"576 1379 CURVE SMOOTH",
"519.333 1401 OFFCURVE",
"459.667 1417.67 OFFCURVE",
"397 1429 CURVE",
"361 1353 LINE SMOOTH",
"349.667 1329.67 OFFCURVE",
"346.333 1309.83 OFFCURVE",
"351 1293.5 CURVE SMOOTH",
"355.667 1277.17 OFFCURVE",
"371.333 1264.67 OFFCURVE",
"398 1256 CURVE SMOOTH",
"454 1239.33 OFFCURVE",
"504.333 1219.33 OFFCURVE",
"549 1196 CURVE",
"433 1121 LINE SMOOTH",
"423.667 1115 OFFCURVE",
"417.167 1106.33 OFFCURVE",
"413.5 1095 CURVE SMOOTH",
"409.833 1083.67 OFFCURVE",
"411.667 1072 OFFCURVE",
"419 1060 CURVE SMOOTH"
);
},
{
closed = 1;
nodes = (
"437.667 167 OFFCURVE",
"412.333 172.5 OFFCURVE",
"389 183.5 CURVE SMOOTH",
"365.667 194.5 OFFCURVE",
"345.667 210.667 OFFCURVE",
"329 232 CURVE SMOOTH",
"312.333 253.333 OFFCURVE",
"299.333 279.5 OFFCURVE",
"290 310.5 CURVE SMOOTH",
"280.667 341.5 OFFCURVE",
"276 376.667 OFFCURVE",
"276 416 CURVE SMOOTH",
"276 462.667 OFFCURVE",
"282.167 506.333 OFFCURVE",
"294.5 547 CURVE SMOOTH",
"306.833 587.667 OFFCURVE",
"324.667 623 OFFCURVE",
"348 653 CURVE SMOOTH",
"371.333 683 OFFCURVE",
"399.833 706.667 OFFCURVE",
"433.5 724 CURVE SMOOTH",
"467.167 741.333 OFFCURVE",
"505 750 OFFCURVE",
"547 750 CURVE SMOOTH",
"578.333 750 OFFCURVE",
"605.833 745 OFFCURVE",
"629.5 735 CURVE SMOOTH",
"653.167 725 OFFCURVE",
"673.5 711.667 OFFCURVE",
"690.5 695 CURVE SMOOTH",
"707.5 678.333 OFFCURVE",
"721.667 658.667 OFFCURVE",
"733 636 CURVE SMOOTH",
"744.333 613.333 OFFCURVE",
"753.333 589.667 OFFCURVE",
"760 565 CURVE",
"749.333 491 OFFCURVE",
"734.333 428.667 OFFCURVE",
"715 378 CURVE SMOOTH",
"695.667 327.333 OFFCURVE",
"673.167 286.333 OFFCURVE",
"647.5 255 CURVE SMOOTH",
"621.833 223.667 OFFCURVE",
"593.5 201.167 OFFCURVE",
"562.5 187.5 CURVE SMOOTH",
"531.5 173.833 OFFCURVE",
"499 167 OFFCURVE",
"465 167 CURVE SMOOTH"
);
}
);
width = 1065;
}
);
leftKerningGroup = eth;
rightKerningGroup = eth;
unicode = 00F0;
},
{
glyphname = e;
layers = (
{
layerId = "EDEFDD19-C737-4BEE-813D-BCFC1948A1E8";
name = "Bold Italic";
paths = (
{
closed = 1;
nodes = (
"911 816.667 OFFCURVE",
"904.333 846 OFFCURVE",
"891 876 CURVE SMOOTH",
"877.667 906 OFFCURVE",
"857.5 933.167 OFFCURVE",
"830.5 957.5 CURVE SMOOTH",
"803.5 981.833 OFFCURVE",
"769.833 1001.67 OFFCURVE",
"729.5 1017 CURVE SMOOTH",
"689.167 1032.33 OFFCURVE",
"642.333 1040 OFFCURVE",
"589 1040 CURVE SMOOTH",
"533.667 1040 OFFCURVE",
"481.833 1032 OFFCURVE",
"433.5 1016 CURVE SMOOTH",
"385.167 1000 OFFCURVE",
"340.833 977.667 OFFCURVE",
"300.5 949 CURVE SMOOTH",
"260.167 920.333 OFFCURVE",
"224 886.333 OFFCURVE",
"192 847 CURVE SMOOTH",
"160 807.667 OFFCURVE",
"133 764.667 OFFCURVE",
"111 718 CURVE SMOOTH",
"89 671.333 OFFCURVE",
"72.1667 622 OFFCURVE",
"60.5001 570 CURVE SMOOTH",
"48.8334 518 OFFCURVE",
"43 465 OFFCURVE",
"43 411 CURVE SMOOTH",
"43 346.333 OFFCURVE",
"52.5001 287.833 OFFCURVE",
"71.5001 235.5 CURVE SMOOTH",
"90.5001 183.167 OFFCURVE",
"117.333 138.5 OFFCURVE",
"152 101.5 CURVE SMOOTH",
"186.667 64.4999 OFFCURVE",
"228.333 35.8332 OFFCURVE",
"277 15.4999 CURVE SMOOTH",
"325.667 -5 OFFCURVE",
"380 -15 OFFCURVE",
"440 -15 CURVE SMOOTH",
"486 -15 OFFCURVE",
"528.667 -11 OFFCURVE",
"568 -3 CURVE SMOOTH",
"607.333 4.99986 OFFCURVE",
"644.667 17.3332 OFFCURVE",
"680 33.9999 CURVE SMOOTH",
"715.333 50.6665 OFFCURVE",
"750 71.9999 OFFCURVE",
"784 97.9999 CURVE SMOOTH",
"818 124 OFFCURVE",
"852.667 154.667 OFFCURVE",
"888 190 CURVE",
"825 266 LINE",
"819 272.667 OFFCURVE",
"812.167 278 OFFCURVE",
"804.5 282 CURVE SMOOTH",
"796.833 286 OFFCURVE",
"789 288 OFFCURVE",
"781 288 CURVE SMOOTH",
"767.667 288 OFFCURVE",
"755.333 285.167 OFFCURVE",
"744 279.5 CURVE SMOOTH",
"732.667 273.833 OFFCURVE",
"721.167 267 OFFCURVE",
"709.5 259 CURVE SMOOTH",
"697.833 251 OFFCURVE",
"685.167 242 OFFCURVE",
"671.5 232 CURVE SMOOTH",
"657.833 222 OFFCURVE",
"642.5 213 OFFCURVE",
"625.5 205 CURVE SMOOTH",
"608.5 197 OFFCURVE",
"588.667 190.167 OFFCURVE",
"566 184.5 CURVE SMOOTH",
"543.333 178.833 OFFCURVE",
"517.333 176 OFFCURVE",
"488 176 CURVE SMOOTH",
"351.333 176 OFFCURVE",
"283 256.667 OFFCURVE",
"283 418 CURVE SMOOTH",
"283 431 LINE",
"408.333 443.667 OFFCURVE",
"511.5 460.833 OFFCURVE",
"592.5 482.5 CURVE SMOOTH",
"673.5 504.167 OFFCURVE",
"737.667 530 OFFCURVE",
"785 560 CURVE SMOOTH",
"832.333 590 OFFCURVE",
"865.167 624 OFFCURVE",
"883.5 662 CURVE SMOOTH",
"901.833 700 OFFCURVE",
"911 742 OFFCURVE",
"911 788 CURVE SMOOTH"
);
},
{
closed = 1;
nodes = (
"595 868 OFFCURVE",
"612.167 865.167 OFFCURVE",
"626.5 859.5 CURVE SMOOTH",
"640.833 853.833 OFFCURVE",
"652.5 846.833 OFFCURVE",
"661.5 838.5 CURVE SMOOTH",
"670.5 830.167 OFFCURVE",
"677.167 820.667 OFFCURVE",
"681.5 810 CURVE SMOOTH",
"685.833 799.333 OFFCURVE",
"688 789 OFFCURVE",
"688 779 CURVE SMOOTH",
"688 758.333 OFFCURVE",
"683.5 739 OFFCURVE",
"674.5 721 CURVE SMOOTH",
"665.5 703 OFFCURVE",
"647.167 686 OFFCURVE",
"619.5 670 CURVE SMOOTH",
"591.833 654 OFFCURVE",
"552.833 639.333 OFFCURVE",
"502.5 626 CURVE SMOOTH",
"452.167 612.667 OFFCURVE",
"385.667 600.333 OFFCURVE",
"303 589 CURVE",
"313 629.667 OFFCURVE",
"326.667 667.167 OFFCURVE",
"344 701.5 CURVE SMOOTH",
"361.333 735.833 OFFCURVE",
"381.5 765.333 OFFCURVE",
"404.5 790 CURVE SMOOTH",
"427.5 814.667 OFFCURVE",
"453.333 833.833 OFFCURVE",
"482 847.5 CURVE SMOOTH",
"510.667 861.167 OFFCURVE",
"541.667 868 OFFCURVE",
"575 868 CURVE SMOOTH"
);
}
);
width = 974;
}
);
leftKerningGroup = c;
rightKerningGroup = e;
unicode = 0065;
},
{
glyphname = eacute;
layers = (
{
layerId = "EDEFDD19-C737-4BEE-813D-BCFC1948A1E8";
name = "Bold Italic";
paths = (
{
closed = 1;
nodes = (
"43 0 LINE"
);
},
{
closed = 1;
nodes = (
"911 816.667 OFFCURVE",
"904.333 846 OFFCURVE",
"891 876 CURVE SMOOTH",
"877.667 906 OFFCURVE",
"857.5 933.167 OFFCURVE",
"830.5 957.5 CURVE SMOOTH",
"803.5 981.833 OFFCURVE",
"769.833 1001.67 OFFCURVE",
"729.5 1017 CURVE SMOOTH",
"689.167 1032.33 OFFCURVE",
"642.333 1040 OFFCURVE",
"589 1040 CURVE SMOOTH",
"533.667 1040 OFFCURVE",
"481.833 1032 OFFCURVE",
"433.5 1016 CURVE SMOOTH",
"385.167 1000 OFFCURVE",
"340.833 977.667 OFFCURVE",
"300.5 949 CURVE SMOOTH",
"260.167 920.333 OFFCURVE",
"224 886.333 OFFCURVE",
"192 847 CURVE SMOOTH",
"160 807.667 OFFCURVE",
"133 764.667 OFFCURVE",
"111 718 CURVE SMOOTH",
"89 671.333 OFFCURVE",
"72.1667 622 OFFCURVE",
"60.5001 570 CURVE SMOOTH",
"48.8334 518 OFFCURVE",
"43 465 OFFCURVE",
"43 411 CURVE SMOOTH",
"43 346.333 OFFCURVE",
"52.5001 287.833 OFFCURVE",
"71.5001 235.5 CURVE SMOOTH",
"90.5001 183.167 OFFCURVE",
"117.333 138.5 OFFCURVE",
"152 101.5 CURVE SMOOTH",
"186.667 64.4999 OFFCURVE",
"228.333 35.8332 OFFCURVE",
"277 15.4999 CURVE SMOOTH",
"325.667 -5 OFFCURVE",
"380 -15 OFFCURVE",
"440 -15 CURVE SMOOTH",
"486 -15 OFFCURVE",
"528.667 -11 OFFCURVE",
"568 -3 CURVE SMOOTH",
"607.333 4.99986 OFFCURVE",
"644.667 17.3332 OFFCURVE",
"680 33.9999 CURVE SMOOTH",
"715.333 50.6665 OFFCURVE",
"750 71.9999 OFFCURVE",
"784 97.9999 CURVE SMOOTH",
"818 124 OFFCURVE",
"852.667 154.667 OFFCURVE",
"888 190 CURVE",
"825 266 LINE",
"819 272.667 OFFCURVE",
"812.167 278 OFFCURVE",
"804.5 282 CURVE SMOOTH",
"796.833 286 OFFCURVE",
"789 288 OFFCURVE",
"781 288 CURVE SMOOTH",
"767.667 288 OFFCURVE",
"755.333 285.167 OFFCURVE",
"744 279.5 CURVE SMOOTH",
"732.667 273.833 OFFCURVE",
"721.167 267 OFFCURVE",
"709.5 259 CURVE SMOOTH",
"697.833 251 OFFCURVE",
"685.167 242 OFFCURVE",
"671.5 232 CURVE SMOOTH",
"657.833 222 OFFCURVE",
"642.5 213 OFFCURVE",
"625.5 205 CURVE SMOOTH",
"608.5 197 OFFCURVE",
"588.667 190.167 OFFCURVE",
"566 184.5 CURVE SMOOTH",
"543.333 178.833 OFFCURVE",
"517.333 176 OFFCURVE",
"488 176 CURVE SMOOTH",
"351.333 176 OFFCURVE",
"283 256.667 OFFCURVE",
"283 418 CURVE SMOOTH",
"283 431 LINE",
"408.333 443.667 OFFCURVE",
"511.5 460.833 OFFCURVE",
"592.5 482.5 CURVE SMOOTH",
"673.5 504.167 OFFCURVE",
"737.667 530 OFFCURVE",
"785 560 CURVE SMOOTH",
"832.333 590 OFFCURVE",
"865.167 624 OFFCURVE",
"883.5 662 CURVE SMOOTH",
"901.833 700 OFFCURVE",
"911 742 OFFCURVE",
"911 788 CURVE SMOOTH"
);
},
{
closed = 1;
nodes = (
"595 868 OFFCURVE",
"612.167 865.167 OFFCURVE",
"626.5 859.5 CURVE SMOOTH",
"640.833 853.833 OFFCURVE",
"652.5 846.833 OFFCURVE",
"661.5 838.5 CURVE SMOOTH",
"670.5 830.167 OFFCURVE",
"677.167 820.667 OFFCURVE",
"681.5 810 CURVE SMOOTH",
"685.833 799.333 OFFCURVE",
"688 789 OFFCURVE",
"688 779 CURVE SMOOTH",
"688 758.333 OFFCURVE",
"683.5 739 OFFCURVE",
"674.5 721 CURVE SMOOTH",
"665.5 703 OFFCURVE",
"647.167 686 OFFCURVE",
"619.5 670 CURVE SMOOTH",
"591.833 654 OFFCURVE",
"552.833 639.333 OFFCURVE",
"502.5 626 CURVE SMOOTH",
"452.167 612.667 OFFCURVE",
"385.667 600.333 OFFCURVE",
"303 589 CURVE",
"313 629.667 OFFCURVE",
"326.667 667.167 OFFCURVE",
"344 701.5 CURVE SMOOTH",
"361.333 735.833 OFFCURVE",
"381.5 765.333 OFFCURVE",
"404.5 790 CURVE SMOOTH",
"427.5 814.667 OFFCURVE",
"453.333 833.833 OFFCURVE",
"482 847.5 CURVE SMOOTH",
"510.667 861.167 OFFCURVE",
"541.667 868 OFFCURVE",
"575 868 CURVE SMOOTH"
);
},
{
closed = 1;
nodes = (
"949 1462 LINE",
"729 1462 LINE SMOOTH",
"704.333 1462 OFFCURVE",
"685.333 1457.5 OFFCURVE",
"672 1448.5 CURVE SMOOTH",
"658.667 1439.5 OFFCURVE",
"646.333 1426.33 OFFCURVE",
"635 1409 CURVE SMOOTH",
"477 1166 LINE",
"613 1166 LINE SMOOTH",
"630.333 1166 OFFCURVE",
"644.667 1168.5 OFFCURVE",
"656 1173.5 CURVE SMOOTH",
"667.333 1178.5 OFFCURVE",
"679.333 1187.67 OFFCURVE",
"692 1201 CURVE SMOOTH"
);
}
);
width = 974;
}
);
leftKerningGroup = c;
rightKerningGroup = e;
unicode = 00E9;
},
{
glyphname = ecircumflex;
layers = (
{
layerId = "EDEFDD19-C737-4BEE-813D-BCFC1948A1E8";
name = "Bold Italic";
paths = (
{
closed = 1;
nodes = (
"43 0 LINE"
);
},
{
closed = 1;
nodes = (
"911 816.667 OFFCURVE",
"904.333 846 OFFCURVE",
"891 876 CURVE SMOOTH",
"877.667 906 OFFCURVE",
"857.5 933.167 OFFCURVE",
"830.5 957.5 CURVE SMOOTH",
"803.5 981.833 OFFCURVE",
"769.833 1001.67 OFFCURVE",
"729.5 1017 CURVE SMOOTH",
"689.167 1032.33 OFFCURVE",
"642.333 1040 OFFCURVE",
"589 1040 CURVE SMOOTH",
"533.667 1040 OFFCURVE",
"481.833 1032 OFFCURVE",
"433.5 1016 CURVE SMOOTH",
"385.167 1000 OFFCURVE",
"340.833 977.667 OFFCURVE",
"300.5 949 CURVE SMOOTH",
"260.167 920.333 OFFCURVE",
"224 886.333 OFFCURVE",
"192 847 CURVE SMOOTH",
"160 807.667 OFFCURVE",
"133 764.667 OFFCURVE",
"111 718 CURVE SMOOTH",
"89 671.333 OFFCURVE",
"72.1667 622 OFFCURVE",
"60.5001 570 CURVE SMOOTH",
"48.8334 518 OFFCURVE",
"43 465 OFFCURVE",
"43 411 CURVE SMOOTH",
"43 346.333 OFFCURVE",
"52.5001 287.833 OFFCURVE",
"71.5001 235.5 CURVE SMOOTH",
"90.5001 183.167 OFFCURVE",
"117.333 138.5 OFFCURVE",
"152 101.5 CURVE SMOOTH",
"186.667 64.4999 OFFCURVE",
"228.333 35.8332 OFFCURVE",
"277 15.4999 CURVE SMOOTH",
"325.667 -5 OFFCURVE",
"380 -15 OFFCURVE",
"440 -15 CURVE SMOOTH",
"486 -15 OFFCURVE",
"528.667 -11 OFFCURVE",
"568 -3 CURVE SMOOTH",
"607.333 4.99986 OFFCURVE",
"644.667 17.3332 OFFCURVE",
"680 33.9999 CURVE SMOOTH",
"715.333 50.6665 OFFCURVE",
"750 71.9999 OFFCURVE",
"784 97.9999 CURVE SMOOTH",
"818 124 OFFCURVE",
"852.667 154.667 OFFCURVE",
"888 190 CURVE",
"825 266 LINE",
"819 272.667 OFFCURVE",
"812.167 278 OFFCURVE",
"804.5 282 CURVE SMOOTH",
"796.833 286 OFFCURVE",
"789 288 OFFCURVE",
"781 288 CURVE SMOOTH",
"767.667 288 OFFCURVE",
"755.333 285.167 OFFCURVE",
"744 279.5 CURVE SMOOTH",
"732.667 273.833 OFFCURVE",
"721.167 267 OFFCURVE",
"709.5 259 CURVE SMOOTH",
"697.833 251 OFFCURVE",
"685.167 242 OFFCURVE",
"671.5 232 CURVE SMOOTH",
"657.833 222 OFFCURVE",
"642.5 213 OFFCURVE",
"625.5 205 CURVE SMOOTH",
"608.5 197 OFFCURVE",
"588.667 190.167 OFFCURVE",
"566 184.5 CURVE SMOOTH",
"543.333 178.833 OFFCURVE",
"517.333 176 OFFCURVE",
"488 176 CURVE SMOOTH",
"351.333 176 OFFCURVE",
"283 256.667 OFFCURVE",
"283 418 CURVE SMOOTH",
"283 431 LINE",
"408.333 443.667 OFFCURVE",
"511.5 460.833 OFFCURVE",
"592.5 482.5 CURVE SMOOTH",
"673.5 504.167 OFFCURVE",
"737.667 530 OFFCURVE",
"785 560 CURVE SMOOTH",
"832.333 590 OFFCURVE",
"865.167 624 OFFCURVE",
"883.5 662 CURVE SMOOTH",
"901.833 700 OFFCURVE",
"911 742 OFFCURVE",
"911 788 CURVE SMOOTH"
);
},
{
closed = 1;
nodes = (
"595 868 OFFCURVE",
"612.167 865.167 OFFCURVE",
"626.5 859.5 CURVE SMOOTH",
"640.833 853.833 OFFCURVE",
"652.5 846.833 OFFCURVE",
"661.5 838.5 CURVE SMOOTH",
"670.5 830.167 OFFCURVE",
"677.167 820.667 OFFCURVE",
"681.5 810 CURVE SMOOTH",
"685.833 799.333 OFFCURVE",
"688 789 OFFCURVE",
"688 779 CURVE SMOOTH",
"688 758.333 OFFCURVE",
"683.5 739 OFFCURVE",
"674.5 721 CURVE SMOOTH",
"665.5 703 OFFCURVE",
"647.167 686 OFFCURVE",
"619.5 670 CURVE SMOOTH",
"591.833 654 OFFCURVE",
"552.833 639.333 OFFCURVE",
"502.5 626 CURVE SMOOTH",
"452.167 612.667 OFFCURVE",
"385.667 600.333 OFFCURVE",
"303 589 CURVE",
"313 629.667 OFFCURVE",
"326.667 667.167 OFFCURVE",
"344 701.5 CURVE SMOOTH",
"361.333 735.833 OFFCURVE",
"381.5 765.333 OFFCURVE",
"404.5 790 CURVE SMOOTH",
"427.5 814.667 OFFCURVE",
"453.333 833.833 OFFCURVE",
"482 847.5 CURVE SMOOTH",
"510.667 861.167 OFFCURVE",
"541.667 868 OFFCURVE",
"575 868 CURVE SMOOTH"
);
},
{
closed = 1;
nodes = (
"905 1168 LINE",
"726 1446 LINE",
"512 1446 LINE",
"270 1168 LINE",
"428 1168 LINE SMOOTH",
"437.333 1168 OFFCURVE",
"446.667 1170 OFFCURVE",
"456 1174 CURVE SMOOTH",
"465.333 1178 OFFCURVE",
"474.333 1184.33 OFFCURVE",
"483 1193 CURVE SMOOTH",
"586 1297 LINE",
"597 1308 LINE SMOOTH",
"601 1312 OFFCURVE",
"604.667 1316.33 OFFCURVE",
"608 1321 CURVE",
"611.333 1316.33 OFFCURVE",
"614.167 1312 OFFCURVE",
"616.5 1308 CURVE SMOOTH",
"618.833 1304 OFFCURVE",
"621.667 1300.33 OFFCURVE",
"625 1297 CURVE",
"703 1193 LINE",
"711 1183.67 OFFCURVE",
"719.167 1177.17 OFFCURVE",
"727.5 1173.5 CURVE SMOOTH",
"735.833 1169.83 OFFCURVE",
"744.333 1168 OFFCURVE",
"753 1168 CURVE SMOOTH"
);
}
);
width = 974;
}
);
leftKerningGroup = c;
rightKerningGroup = e;
unicode = 00EA;
},
{
glyphname = edieresis;
layers = (
{
layerId = "EDEFDD19-C737-4BEE-813D-BCFC1948A1E8";
name = "Bold Italic";
paths = (
{
closed = 1;
nodes = (
"43 0 LINE"
);
},
{
closed = 1;
nodes = (
"911 816.667 OFFCURVE",
"904.333 846 OFFCURVE",
"891 876 CURVE SMOOTH",
"877.667 906 OFFCURVE",
"857.5 933.167 OFFCURVE",
"830.5 957.5 CURVE SMOOTH",
"803.5 981.833 OFFCURVE",
"769.833 1001.67 OFFCURVE",
"729.5 1017 CURVE SMOOTH",
"689.167 1032.33 OFFCURVE",
"642.333 1040 OFFCURVE",
"589 1040 CURVE SMOOTH",
"533.667 1040 OFFCURVE",
"481.833 1032 OFFCURVE",
"433.5 1016 CURVE SMOOTH",
"385.167 1000 OFFCURVE",
"340.833 977.667 OFFCURVE",
"300.5 949 CURVE SMOOTH",
"260.167 920.333 OFFCURVE",
"224 886.333 OFFCURVE",
"192 847 CURVE SMOOTH",
"160 807.667 OFFCURVE",
"133 764.667 OFFCURVE",
"111 718 CURVE SMOOTH",
"89 671.333 OFFCURVE",
"72.1667 622 OFFCURVE",
"60.5001 570 CURVE SMOOTH",
"48.8334 518 OFFCURVE",
"43 465 OFFCURVE",
"43 411 CURVE SMOOTH",
"43 346.333 OFFCURVE",
"52.5001 287.833 OFFCURVE",
"71.5001 235.5 CURVE SMOOTH",
"90.5001 183.167 OFFCURVE",
"117.333 138.5 OFFCURVE",
"152 101.5 CURVE SMOOTH",
"186.667 64.4999 OFFCURVE",
"228.333 35.8332 OFFCURVE",
"277 15.4999 CURVE SMOOTH",
"325.667 -5 OFFCURVE",
"380 -15 OFFCURVE",
"440 -15 CURVE SMOOTH",
"486 -15 OFFCURVE",
"528.667 -11 OFFCURVE",
"568 -3 CURVE SMOOTH",
"607.333 4.99986 OFFCURVE",
"644.667 17.3332 OFFCURVE",
"680 33.9999 CURVE SMOOTH",
"715.333 50.6665 OFFCURVE",
"750 71.9999 OFFCURVE",
"784 97.9999 CURVE SMOOTH",
"818 124 OFFCURVE",
"852.667 154.667 OFFCURVE",
"888 190 CURVE",
"825 266 LINE",
"819 272.667 OFFCURVE",
"812.167 278 OFFCURVE",
"804.5 282 CURVE SMOOTH",
"796.833 286 OFFCURVE",
"789 288 OFFCURVE",
"781 288 CURVE SMOOTH",
"767.667 288 OFFCURVE",
"755.333 285.167 OFFCURVE",
"744 279.5 CURVE SMOOTH",
"732.667 273.833 OFFCURVE",
"721.167 267 OFFCURVE",
"709.5 259 CURVE SMOOTH",
"697.833 251 OFFCURVE",
"685.167 242 OFFCURVE",
"671.5 232 CURVE SMOOTH",
"657.833 222 OFFCURVE",
"642.5 213 OFFCURVE",
"625.5 205 CURVE SMOOTH",
"608.5 197 OFFCURVE",
"588.667 190.167 OFFCURVE",
"566 184.5 CURVE SMOOTH",
"543.333 178.833 OFFCURVE",
"517.333 176 OFFCURVE",
"488 176 CURVE SMOOTH",
"351.333 176 OFFCURVE",
"283 256.667 OFFCURVE",
"283 418 CURVE SMOOTH",
"283 431 LINE",
"408.333 443.667 OFFCURVE",
"511.5 460.833 OFFCURVE",
"592.5 482.5 CURVE SMOOTH",
"673.5 504.167 OFFCURVE",
"737.667 530 OFFCURVE",
"785 560 CURVE SMOOTH",
"832.333 590 OFFCURVE",
"865.167 624 OFFCURVE",
"883.5 662 CURVE SMOOTH",
"901.833 700 OFFCURVE",
"911 742 OFFCURVE",
"911 788 CURVE SMOOTH"
);
},
{
closed = 1;
nodes = (
"595 868 OFFCURVE",
"612.167 865.167 OFFCURVE",
"626.5 859.5 CURVE SMOOTH",
"640.833 853.833 OFFCURVE",
"652.5 846.833 OFFCURVE",
"661.5 838.5 CURVE SMOOTH",
"670.5 830.167 OFFCURVE",
"677.167 820.667 OFFCURVE",
"681.5 810 CURVE SMOOTH",
"685.833 799.333 OFFCURVE",
"688 789 OFFCURVE",
"688 779 CURVE SMOOTH",
"688 758.333 OFFCURVE",
"683.5 739 OFFCURVE",
"674.5 721 CURVE SMOOTH",
"665.5 703 OFFCURVE",
"647.167 686 OFFCURVE",
"619.5 670 CURVE SMOOTH",
"591.833 654 OFFCURVE",
"552.833 639.333 OFFCURVE",
"502.5 626 CURVE SMOOTH",
"452.167 612.667 OFFCURVE",
"385.667 600.333 OFFCURVE",
"303 589 CURVE",
"313 629.667 OFFCURVE",
"326.667 667.167 OFFCURVE",
"344 701.5 CURVE SMOOTH",
"361.333 735.833 OFFCURVE",
"381.5 765.333 OFFCURVE",
"404.5 790 CURVE SMOOTH",
"427.5 814.667 OFFCURVE",
"453.333 833.833 OFFCURVE",
"482 847.5 CURVE SMOOTH",
"510.667 861.167 OFFCURVE",
"541.667 868 OFFCURVE",
"575 868 CURVE SMOOTH"
);
},
{
closed = 1;
nodes = (
"557 1311.33 OFFCURVE",
"553.333 1329.5 OFFCURVE",
"546 1346.5 CURVE SMOOTH",
"538.667 1363.5 OFFCURVE",
"528.5 1378.33 OFFCURVE",
"515.5 1391 CURVE SMOOTH",
"502.5 1403.67 OFFCURVE",
"487.5 1413.67 OFFCURVE",
"470.5 1421 CURVE SMOOTH",
"453.5 1428.33 OFFCURVE",
"435.667 1432 OFFCURVE",
"417 1432 CURVE SMOOTH",
"399 1432 OFFCURVE",
"381.833 1428.33 OFFCURVE",
"365.5 1421 CURVE SMOOTH",
"349.167 1413.67 OFFCURVE",
"334.667 1403.67 OFFCURVE",
"322 1391 CURVE SMOOTH",
"309.333 1378.33 OFFCURVE",
"299.333 1363.5 OFFCURVE",
"292 1346.5 CURVE SMOOTH",
"284.667 1329.5 OFFCURVE",
"281 1311.33 OFFCURVE",
"281 1292 CURVE SMOOTH",
"281 1273.33 OFFCURVE",
"284.667 1255.83 OFFCURVE",
"292 1239.5 CURVE SMOOTH",
"299.333 1223.17 OFFCURVE",
"309.333 1209 OFFCURVE",
"322 1197 CURVE SMOOTH",
"334.667 1185 OFFCURVE",
"349.167 1175.5 OFFCURVE",
"365.5 1168.5 CURVE SMOOTH",
"381.833 1161.5 OFFCURVE",
"399 1158 OFFCURVE",
"417 1158 CURVE SMOOTH",
"435.667 1158 OFFCURVE",
"453.5 1161.5 OFFCURVE",
"470.5 1168.5 CURVE SMOOTH",
"487.5 1175.5 OFFCURVE",
"502.5 1185 OFFCURVE",
"515.5 1197 CURVE SMOOTH",
"528.5 1209 OFFCURVE",
"538.667 1223.17 OFFCURVE",
"546 1239.5 CURVE SMOOTH",
"553.333 1255.83 OFFCURVE",
"557 1273.33 OFFCURVE",
"557 1292 CURVE SMOOTH"
);
},
{
closed = 1;
nodes = (
"941 1311.33 OFFCURVE",
"937.333 1329.5 OFFCURVE",
"930 1346.5 CURVE SMOOTH",
"922.667 1363.5 OFFCURVE",
"912.833 1378.33 OFFCURVE",
"900.5 1391 CURVE SMOOTH",
"888.167 1403.67 OFFCURVE",
"873.5 1413.67 OFFCURVE",
"856.5 1421 CURVE SMOOTH",
"839.5 1428.33 OFFCURVE",
"821.667 1432 OFFCURVE",
"803 1432 CURVE SMOOTH",
"783.667 1432 OFFCURVE",
"765.833 1428.33 OFFCURVE",
"749.5 1421 CURVE SMOOTH",
"733.167 1413.67 OFFCURVE",
"718.667 1403.67 OFFCURVE",
"706 1391 CURVE SMOOTH",
"693.333 1378.33 OFFCURVE",
"683.5 1363.5 OFFCURVE",
"676.5 1346.5 CURVE SMOOTH",
"669.5 1329.5 OFFCURVE",
"666 1311.33 OFFCURVE",
"666 1292 CURVE SMOOTH",
"666 1273.33 OFFCURVE",
"669.5 1255.83 OFFCURVE",
"676.5 1239.5 CURVE SMOOTH",
"683.5 1223.17 OFFCURVE",
"693.333 1209 OFFCURVE",
"706 1197 CURVE SMOOTH",
"718.667 1185 OFFCURVE",
"733.167 1175.5 OFFCURVE",
"749.5 1168.5 CURVE SMOOTH",
"765.833 1161.5 OFFCURVE",
"783.667 1158 OFFCURVE",
"803 1158 CURVE SMOOTH",
"821.667 1158 OFFCURVE",
"839.5 1161.5 OFFCURVE",
"856.5 1168.5 CURVE SMOOTH",
"873.5 1175.5 OFFCURVE",
"888.167 1185 OFFCURVE",
"900.5 1197 CURVE SMOOTH",
"912.833 1209 OFFCURVE",
"922.667 1223.17 OFFCURVE",
"930 1239.5 CURVE SMOOTH",
"937.333 1255.83 OFFCURVE",
"941 1273.33 OFFCURVE",
"941 1292 CURVE SMOOTH"
);
}
);
width = 974;
}
);
leftKerningGroup = c;
rightKerningGroup = e;
unicode = 00EB;
},
{
glyphname = egrave;
layers = (
{
layerId = "EDEFDD19-C737-4BEE-813D-BCFC1948A1E8";
name = "Bold Italic";
paths = (
{
closed = 1;
nodes = (
"43 0 LINE"
);
},
{
closed = 1;
nodes = (
"911 816.667 OFFCURVE",
"904.333 846 OFFCURVE",
"891 876 CURVE SMOOTH",
"877.667 906 OFFCURVE",
"857.5 933.167 OFFCURVE",
"830.5 957.5 CURVE SMOOTH",
"803.5 981.833 OFFCURVE",
"769.833 1001.67 OFFCURVE",
"729.5 1017 CURVE SMOOTH",
"689.167 1032.33 OFFCURVE",
"642.333 1040 OFFCURVE",
"589 1040 CURVE SMOOTH",
"533.667 1040 OFFCURVE",
"481.833 1032 OFFCURVE",
"433.5 1016 CURVE SMOOTH",
"385.167 1000 OFFCURVE",
"340.833 977.667 OFFCURVE",
"300.5 949 CURVE SMOOTH",
"260.167 920.333 OFFCURVE",
"224 886.333 OFFCURVE",
"192 847 CURVE SMOOTH",
"160 807.667 OFFCURVE",
"133 764.667 OFFCURVE",
"111 718 CURVE SMOOTH",
"89 671.333 OFFCURVE",
"72.1667 622 OFFCURVE",
"60.5001 570 CURVE SMOOTH",
"48.8334 518 OFFCURVE",
"43 465 OFFCURVE",
"43 411 CURVE SMOOTH",
"43 346.333 OFFCURVE",
"52.5001 287.833 OFFCURVE",
"71.5001 235.5 CURVE SMOOTH",
"90.5001 183.167 OFFCURVE",
"117.333 138.5 OFFCURVE",
"152 101.5 CURVE SMOOTH",
"186.667 64.4999 OFFCURVE",
"228.333 35.8332 OFFCURVE",
"277 15.4999 CURVE SMOOTH",
"325.667 -5 OFFCURVE",
"380 -15 OFFCURVE",
"440 -15 CURVE SMOOTH",
"486 -15 OFFCURVE",
"528.667 -11 OFFCURVE",
"568 -3 CURVE SMOOTH",
"607.333 4.99986 OFFCURVE",
"644.667 17.3332 OFFCURVE",
"680 33.9999 CURVE SMOOTH",
"715.333 50.6665 OFFCURVE",
"750 71.9999 OFFCURVE",
"784 97.9999 CURVE SMOOTH",
"818 124 OFFCURVE",
"852.667 154.667 OFFCURVE",
"888 190 CURVE",
"825 266 LINE",
"819 272.667 OFFCURVE",
"812.167 278 OFFCURVE",
"804.5 282 CURVE SMOOTH",
"796.833 286 OFFCURVE",
"789 288 OFFCURVE",
"781 288 CURVE SMOOTH",
"767.667 288 OFFCURVE",
"755.333 285.167 OFFCURVE",
"744 279.5 CURVE SMOOTH",
"732.667 273.833 OFFCURVE",
"721.167 267 OFFCURVE",
"709.5 259 CURVE SMOOTH",
"697.833 251 OFFCURVE",
"685.167 242 OFFCURVE",
"671.5 232 CURVE SMOOTH",
"657.833 222 OFFCURVE",
"642.5 213 OFFCURVE",
"625.5 205 CURVE SMOOTH",
"608.5 197 OFFCURVE",
"588.667 190.167 OFFCURVE",
"566 184.5 CURVE SMOOTH",
"543.333 178.833 OFFCURVE",
"517.333 176 OFFCURVE",
"488 176 CURVE SMOOTH",
"351.333 176 OFFCURVE",
"283 256.667 OFFCURVE",
"283 418 CURVE SMOOTH",
"283 431 LINE",
"408.333 443.667 OFFCURVE",
"511.5 460.833 OFFCURVE",
"592.5 482.5 CURVE SMOOTH",
"673.5 504.167 OFFCURVE",
"737.667 530 OFFCURVE",
"785 560 CURVE SMOOTH",
"832.333 590 OFFCURVE",
"865.167 624 OFFCURVE",
"883.5 662 CURVE SMOOTH",
"901.833 700 OFFCURVE",
"911 742 OFFCURVE",
"911 788 CURVE SMOOTH"
);
},
{
closed = 1;
nodes = (
"595 868 OFFCURVE",
"612.167 865.167 OFFCURVE",
"626.5 859.5 CURVE SMOOTH",
"640.833 853.833 OFFCURVE",
"652.5 846.833 OFFCURVE",
"661.5 838.5 CURVE SMOOTH",
"670.5 830.167 OFFCURVE",
"677.167 820.667 OFFCURVE",
"681.5 810 CURVE SMOOTH",
"685.833 799.333 OFFCURVE",
"688 789 OFFCURVE",
"688 779 CURVE SMOOTH",
"688 758.333 OFFCURVE",
"683.5 739 OFFCURVE",
"674.5 721 CURVE SMOOTH",
"665.5 703 OFFCURVE",
"647.167 686 OFFCURVE",
"619.5 670 CURVE SMOOTH",
"591.833 654 OFFCURVE",
"552.833 639.333 OFFCURVE",
"502.5 626 CURVE SMOOTH",
"452.167 612.667 OFFCURVE",
"385.667 600.333 OFFCURVE",
"303 589 CURVE",
"313 629.667 OFFCURVE",
"326.667 667.167 OFFCURVE",
"344 701.5 CURVE SMOOTH",
"361.333 735.833 OFFCURVE",
"381.5 765.333 OFFCURVE",
"404.5 790 CURVE SMOOTH",
"427.5 814.667 OFFCURVE",
"453.333 833.833 OFFCURVE",
"482 847.5 CURVE SMOOTH",
"510.667 861.167 OFFCURVE",
"541.667 868 OFFCURVE",
"575 868 CURVE SMOOTH"
);
},
{
closed = 1;
nodes = (
"301 1462 LINE",
"499 1201 LINE",
"508.333 1187.67 OFFCURVE",
"518.167 1178.5 OFFCURVE",
"528.5 1173.5 CURVE SMOOTH",
"538.833 1168.5 OFFCURVE",
"552.667 1166 OFFCURVE",
"570 1166 CURVE SMOOTH",
"699 1166 LINE",
"596 1409 LINE SMOOTH",
"588.667 1426.33 OFFCURVE",
"579.333 1439.5 OFFCURVE",
"568 1448.5 CURVE SMOOTH",
"556.667 1457.5 OFFCURVE",
"539 1462 OFFCURVE",
"515 1462 CURVE SMOOTH"
);
}
);
width = 974;
}
);
leftKerningGroup = c;
rightKerningGroup = e;
unicode = 00E8;
},
{
glyphname = f;
layers = (
{
layerId = "EDEFDD19-C737-4BEE-813D-BCFC1948A1E8";
name = "Bold Italic";
paths = (
{
closed = 1;
nodes = (
"448 841 LINE",
"668 841 LINE",
"691 1017 LINE",
"461 1017 LINE",
"469 1085 LINE SMOOTH",
"473.667 1123 OFFCURVE",
"481.5 1155.17 OFFCURVE",
"492.5 1181.5 CURVE SMOOTH",
"503.5 1207.83 OFFCURVE",
"517.5 1229.17 OFFCURVE",
"534.5 1245.5 CURVE SMOOTH",
"551.5 1261.83 OFFCURVE",
"571.167 1273.67 OFFCURVE",
"593.5 1281 CURVE SMOOTH",
"615.833 1288.33 OFFCURVE",
"640.333 1292 OFFCURVE",
"667 1292 CURVE SMOOTH",
"686.333 1292 OFFCURVE",
"703.667 1293.5 OFFCURVE",
"719 1296.5 CURVE SMOOTH",
"734.333 1299.5 OFFCURVE",
"743.667 1308.67 OFFCURVE",
"747 1324 CURVE",
"769 1452 LINE",
"733 1464.67 OFFCURVE",
"693.667 1471 OFFCURVE",
"651 1471 CURVE SMOOTH",
"596.333 1471 OFFCURVE",
"545.333 1462.33 OFFCURVE",
"498 1445 CURVE SMOOTH",
"450.667 1427.67 OFFCURVE",
"408.833 1402.67 OFFCURVE",
"372.5 1370 CURVE SMOOTH",
"336.167 1337.33 OFFCURVE",
"306.167 1297.67 OFFCURVE",
"282.5 1251 CURVE SMOOTH",
"258.833 1204.33 OFFCURVE",
"243.333 1151.67 OFFCURVE",
"236 1093 CURVE SMOOTH",
"227 1017 LINE",
"88.9999 1017 LINE",
"76.9999 917 LINE SMOOTH",
"74.3333 898.334 OFFCURVE",
"77.9999 884.167 OFFCURVE",
"87.9999 874.5 CURVE SMOOTH",
"97.9999 864.834 OFFCURVE",
"110.667 858.334 OFFCURVE",
"126 855 CURVE",
"205 841 LINE",
"73.9999 -247 LINE",
"173 -247 LINE SMOOTH",
"209 -247 OFFCURVE",
"236.667 -238 OFFCURVE",
"256 -221 CURVE SMOOTH",
"275.333 -203 OFFCURVE",
"290 -178 OFFCURVE",
"300 -146 CURVE",
"351 42 LINE"
);
}
);
width = 662;
}
);
leftKerningGroup = f;
rightKerningGroup = f;
unicode = 0066;
},
{
glyphname = g;
lastChange = "2014-08-20 23:41:58 -0500";
layers = (
{
layerId = "EDEFDD19-C737-4BEE-813D-BCFC1948A1E8";
name = "Bold Italic";
paths = (
{
closed = 1;
nodes = (
"989 1025 LINE",
"843 1025 LINE SMOOTH",
"812.333 1025 OFFCURVE",
"790.667 1010.33 OFFCURVE",
"778 981 CURVE",
"758 922 LINE",
"730 959.333 OFFCURVE",
"696 988.667 OFFCURVE",
"656 1010 CURVE SMOOTH",
"616 1031.33 OFFCURVE",
"570.333 1042 OFFCURVE",
"519 1042 CURVE SMOOTH",
"475 1042 OFFCURVE",
"432.667 1033.67 OFFCURVE",
"392 1017 CURVE SMOOTH",
"351.333 1000.33 OFFCURVE",
"313.333 977.333 OFFCURVE",
"278 948 CURVE SMOOTH",
"242.667 918.667 OFFCURVE",
"210.667 883.667 OFFCURVE",
"182 843 CURVE SMOOTH",
"153.333 802.333 OFFCURVE",
"128.833 757.833 OFFCURVE",
"108.5 709.5 CURVE SMOOTH",
"88.1666 661.167 OFFCURVE",
"72.3333 609.833 OFFCURVE",
"60.9999 555.5 CURVE SMOOTH",
"49.6666 501.167 OFFCURVE",
"43.9999 446 OFFCURVE",
"43.9999 390 CURVE SMOOTH",
"43.9999 327.333 OFFCURVE",
"50.3333 272.5 OFFCURVE",
"62.9999 225.5 CURVE SMOOTH",
"75.6666 178.5 OFFCURVE",
"93.8333 139.166 OFFCURVE",
"117.5 107.5 CURVE SMOOTH",
"141.167 75.8331 OFFCURVE",
"169.5 52.1665 OFFCURVE",
"202.5 36.4998 CURVE SMOOTH",
"235.5 20.8331 OFFCURVE",
"272.667 12.9998 OFFCURVE",
"314 12.9998 CURVE SMOOTH",
"380.667 12.9998 OFFCURVE",
"442.333 31.9998 OFFCURVE",
"499 69.9998 CURVE SMOOTH",
"555.667 108 OFFCURVE",
"607 160.666 OFFCURVE",
"653 228 CURVE",
"633 60.9998 LINE SMOOTH",
"629 26.9998 OFFCURVE",
"620 -5 OFFCURVE",
"606 -36 CURVE SMOOTH",
"592 -66 OFFCURVE",
"573.5 -92 OFFCURVE",
"550.5 -115 CURVE SMOOTH",
"527.5 -137 OFFCURVE",
"500 -155 OFFCURVE",
"468 -168 CURVE SMOOTH",
"436 -181 OFFCURVE",
"399.667 -187 OFFCURVE",
"359 -187 CURVE SMOOTH",
"324.333 -187 OFFCURVE",
"295.833 -183 OFFCURVE",
"273.5 -175 CURVE SMOOTH",
"251.167 -167 OFFCURVE",
"232 -158 OFFCURVE",
"216 -149 CURVE SMOOTH",
"200 -140 OFFCURVE",
"185.833 -131 OFFCURVE",
"173.5 -123 CURVE SMOOTH",
"161.167 -115 OFFCURVE",
"147.667 -111 OFFCURVE",
"133 -111 CURVE SMOOTH",
"117.667 -111 OFFCURVE",
"104.833 -114 OFFCURVE",
"94.4999 -120 CURVE SMOOTH",
"84.1666 -125 OFFCURVE",
"75.3333 -134 OFFCURVE",
"67.9999 -145 CURVE",
"5.99994 -228 LINE",
"21.9999 -246 OFFCURVE",
"41.1666 -263 OFFCURVE",
"63.4999 -279 CURVE SMOOTH",
"85.8333 -294 OFFCURVE",
"111.167 -308 OFFCURVE",
"139.5 -320 CURVE SMOOTH",
"167.833 -332 OFFCURVE",
"199.667 -341 OFFCURVE",
"235 -348 CURVE SMOOTH",
"270.333 -355 OFFCURVE",
"309 -358 OFFCURVE",
"351 -358 CURVE SMOOTH",
"427.667 -358 OFFCURVE",
"496.5 -347 OFFCURVE",
"557.5 -326 CURVE SMOOTH",
"618.5 -305 OFFCURVE",
"670.833 -275 OFFCURVE",
"714.5 -237 CURVE SMOOTH",
"758.167 -198 OFFCURVE",
"793.167 -152 OFFCURVE",
"819.5 -99 CURVE SMOOTH",
"845.833 -46 OFFCURVE",
"863 13.3331 OFFCURVE",
"871 77.9998 CURVE SMOOTH"
);
},
{
closed = 1;
nodes = (
"372.333 208 OFFCURVE",
"342.333 225.666 OFFCURVE",
"321 261 CURVE SMOOTH",
"299.667 296.333 OFFCURVE",
"289 347.666 OFFCURVE",
"289 415 CURVE SMOOTH",
"289 467.667 OFFCURVE",
"295 520.667 OFFCURVE",
"307 574 CURVE SMOOTH",
"319 627.333 OFFCURVE",
"336.5 675.333 OFFCURVE",
"359.5 718 CURVE SMOOTH",
"382.5 760.667 OFFCURVE",
"410.5 795.333 OFFCURVE",
"443.5 822 CURVE SMOOTH",
"476.5 848.667 OFFCURVE",
"514.333 862 OFFCURVE",
"557 862 CURVE SMOOTH",
"585 862 OFFCURVE",
"613.833 855.667 OFFCURVE",
"643.5 843 CURVE SMOOTH",
"673.167 830.333 OFFCURVE",
"699 810 OFFCURVE",
"721 782 CURVE",
"695 571 LINE",
"680.333 515.667 OFFCURVE",
"662.5 465.667 OFFCURVE",
"641.5 421 CURVE SMOOTH",
"620.5 376.333 OFFCURVE",
"597.5 338.333 OFFCURVE",
"572.5 307 CURVE SMOOTH",
"547.5 275.667 OFFCURVE",
"521.167 251.333 OFFCURVE",
"493.5 234 CURVE SMOOTH",
"465.833 216.667 OFFCURVE",
"438.333 208 OFFCURVE",
"411 208 CURVE SMOOTH"
);
}
);
width = 1051;
}
);
unicode = 0067;
},
